{"glyphs":{"0":{"ha":911,"x_min":18,"x_max":922,"o":"m 369 -36 q 88 88 157 -36 q 65 436 18 213 q 158 692 97 586 q 319 853 218 797 q 571 908 419 908 q 853 784 783 908 q 874 436 922 660 q 783 181 843 288 q 622 19 722 75 q 369 -36 522 -36 m 404 125 q 588 206 525 125 q 683 436 651 286 q 703 608 706 539 q 661 713 700 678 q 536 747 622 747 q 351 667 415 747 q 256 436 288 586 q 237 263 235 332 q 278 160 239 194 q 404 125 317 125 z "},"1":{"ha":464,"x_min":119,"x_max":500,"o":"m 119 0 l 272 725 l 122 701 l 156 858 l 500 908 l 307 0 l 119 0 z "},"2":{"ha":713,"x_min":-26,"x_max":735,"o":"m -26 0 l -8 90 q 122 235 47 171 q 282 364 197 300 q 388 444 346 413 q 454 501 429 476 q 493 553 479 526 q 515 618 507 579 q 499 715 529 683 q 379 747 468 747 q 266 735 324 747 q 154 704 208 724 l 190 869 q 319 898 246 888 q 456 908 392 908 q 668 831 601 908 q 707 622 735 754 q 628 466 688 531 q 483 339 569 401 q 354 242 415 289 q 249 144 293 196 l 614 144 l 583 0 l -26 0 z "},"3":{"ha":728,"x_min":-21,"x_max":742,"o":"m 236 -14 q 147 -8 196 -14 q 53 7 97 -3 q -21 29 8 17 l 14 193 q 125 158 65 169 q 243 147 185 147 q 396 174 342 147 q 464 274 450 201 q 440 358 476 333 q 324 383 403 383 l 183 383 l 226 521 l 343 521 q 522 633 500 521 q 501 720 535 692 q 369 749 467 749 q 248 736 310 749 q 138 704 186 724 l 172 864 q 294 896 221 883 q 436 908 367 908 q 669 839 597 908 q 718 660 742 769 q 663 537 704 594 q 553 453 621 479 q 642 378 619 431 q 650 254 665 326 q 513 51 621 117 q 236 -14 406 -14 z "},"4":{"ha":757,"x_min":-15,"x_max":756,"o":"m 379 0 l 418 188 l -15 188 l 13 315 l 592 894 l 756 894 l 638 339 l 725 339 l 693 188 l 606 188 l 567 0 l 379 0 m 194 332 l 481 332 l 557 688 l 194 332 z "},"5":{"ha":719,"x_min":-17,"x_max":718,"o":"m 233 -14 q 147 -9 193 -14 q 57 6 100 -4 q -17 29 14 15 l 18 192 q 126 159 63 171 q 242 147 189 147 q 390 178 336 147 q 458 282 443 208 q 463 353 468 325 q 426 394 457 381 q 329 408 396 408 l 60 408 l 82 514 l 186 894 l 718 894 l 674 750 l 315 750 l 261 553 l 396 553 q 610 482 544 553 q 647 275 675 411 q 522 65 619 143 q 233 -14 425 -14 z "},"6":{"ha":803,"x_min":8,"x_max":772,"o":"m 321 -14 q 82 74 156 -14 q 44 338 8 163 l 85 529 q 170 726 108 640 q 331 860 232 811 q 561 908 429 908 q 680 900 631 908 q 772 875 729 892 l 739 714 q 539 749 657 749 q 351 699 414 749 q 269 567 288 649 l 261 524 q 375 572 313 556 q 488 588 438 588 q 701 510 638 588 q 735 290 765 432 q 667 133 717 201 q 533 25 618 64 q 321 -14 449 -14 m 353 125 q 501 168 453 125 q 565 283 550 211 q 570 371 576 335 q 530 426 564 407 q 424 444 496 444 q 326 428 378 444 q 231 385 275 411 l 213 300 q 223 169 194 213 q 353 125 251 125 z "},"7":{"ha":692,"x_min":51,"x_max":764,"o":"m 51 0 l 528 750 l 118 750 l 149 894 l 764 894 l 740 779 l 246 0 l 51 0 z "},"8":{"ha":829,"x_min":-1,"x_max":838,"o":"m 332 -14 q 77 52 156 -14 q 26 249 -1 118 q 92 379 42 321 q 215 463 142 438 q 141 540 160 490 q 135 647 122 590 q 257 838 160 767 q 529 908 354 908 q 769 838 701 908 q 813 647 838 767 q 759 535 799 588 q 646 453 719 482 q 751 249 783 400 q 332 -14 694 -14 m 481 510 q 585 556 550 528 q 633 643 621 585 q 617 733 647 706 q 497 761 588 761 q 371 734 417 761 q 311 643 325 707 q 392 528 290 549 l 481 510 m 364 132 q 509 160 458 132 q 574 251 560 188 q 560 334 586 308 q 469 374 535 360 l 367 396 q 261 352 303 382 q 206 257 219 322 q 227 160 192 189 q 364 132 263 132 z "},"9":{"ha":803,"x_min":63,"x_max":828,"o":"m 275 -14 q 156 -6 206 -14 q 63 19 107 3 l 97 181 q 297 146 179 146 q 481 196 413 146 q 567 328 549 246 l 575 371 q 460 324 524 340 q 347 307 397 307 q 137 385 203 307 q 101 604 71 463 q 168 763 121 694 q 301 869 215 831 q 515 908 386 908 q 756 817 685 908 q 792 557 828 726 l 750 365 q 583 83 710 181 q 275 -14 457 -14 m 413 450 q 510 467 458 450 q 606 510 561 483 l 622 594 q 610 726 642 682 q 483 769 578 769 q 340 726 394 769 q 271 611 286 683 q 281 492 254 535 q 413 450 307 450 z "},"A":{"ha":990,"x_min":-28,"x_max":860,"o":"m -28 0 l 503 894 l 708 894 l 860 0 l 672 0 l 632 215 l 303 215 l 175 0 l -28 0 m 363 360 l 636 360 l 575 719 l 363 360 z "},"Á":{"ha":990,"x_min":-28,"x_max":865,"o":"m 536 956 l 703 1215 l 865 1215 l 688 956 l 536 956 m -28 0 l 503 894 l 708 894 l 860 0 l 672 0 l 632 215 l 303 215 l 175 0 l -28 0 m 363 360 l 636 360 l 575 719 l 363 360 z "},"Ă":{"ha":990,"x_min":-28,"x_max":885,"o":"m 617 956 q 473 1014 521 956 q 447 1174 425 1072 l 564 1174 q 566 1097 554 1131 q 633 1064 578 1064 q 713 1097 682 1064 q 753 1174 743 1131 l 885 1174 q 796 1014 863 1072 q 617 956 729 956 m -28 0 l 503 894 l 708 894 l 860 0 l 672 0 l 632 215 l 303 215 l 175 0 l -28 0 m 363 360 l 636 360 l 575 719 l 363 360 z "},"Ắ":{"ha":990,"x_min":-28,"x_max":894,"o":"m 582 1136 l 715 1332 l 857 1332 l 714 1136 l 582 1136 m 621 956 q 512 978 560 956 q 442 1048 464 1000 q 438 1172 421 1096 l 544 1172 q 551 1085 532 1115 q 638 1054 569 1054 q 779 1172 753 1054 l 894 1172 q 799 1006 869 1057 q 621 956 728 956 m -28 0 l 503 894 l 708 894 l 860 0 l 672 0 l 632 215 l 303 215 l 175 0 l -28 0 m 363 360 l 636 360 l 575 719 l 363 360 z "},"Ặ":{"ha":990,"x_min":-28,"x_max":883,"o":"m 615 956 q 472 1014 519 956 q 446 1174 424 1072 l 563 1174 q 565 1097 553 1131 q 632 1064 576 1064 q 711 1097 681 1064 q 751 1174 742 1131 l 883 1174 q 794 1014 861 1072 q 615 956 728 956 m -28 0 l 503 894 l 708 894 l 860 0 l 672 0 l 632 215 l 303 215 l 175 0 l -28 0 m 363 360 l 636 360 l 575 719 l 363 360 m 289 -251 l 318 -114 l 467 -114 l 438 -251 l 289 -251 z "},"Ằ":{"ha":990,"x_min":-28,"x_max":894,"o":"m 601 1136 l 542 1332 l 683 1332 l 733 1136 l 601 1136 m 621 956 q 512 978 560 956 q 442 1048 464 1000 q 438 1172 421 1096 l 544 1172 q 551 1085 532 1115 q 638 1054 569 1054 q 779 1172 753 1054 l 894 1172 q 799 1006 869 1057 q 621 956 728 956 m -28 0 l 503 894 l 708 894 l 860 0 l 672 0 l 632 215 l 303 215 l 175 0 l -28 0 m 363 360 l 636 360 l 575 719 l 363 360 z "},"Ẳ":{"ha":990,"x_min":-28,"x_max":894,"o":"m 592 1149 l 610 1232 q 701 1249 675 1235 q 732 1289 726 1264 q 723 1324 738 1315 q 672 1333 708 1333 q 631 1328 651 1333 q 593 1317 611 1324 l 610 1396 q 668 1408 635 1403 q 736 1413 701 1413 q 838 1382 806 1413 q 858 1301 869 1351 q 819 1230 849 1256 q 729 1193 789 1204 l 719 1149 l 592 1149 m 621 956 q 512 978 560 956 q 442 1048 464 1000 q 438 1172 421 1096 l 544 1172 q 551 1085 532 1115 q 638 1054 569 1054 q 779 1172 753 1054 l 894 1172 q 799 1006 869 1057 q 621 956 728 956 m -28 0 l 503 894 l 708 894 l 860 0 l 672 0 l 632 215 l 303 215 l 175 0 l -28 0 m 363 360 l 636 360 l 575 719 l 363 360 z "},"Ẵ":{"ha":990,"x_min":-28,"x_max":936,"o":"m 792 1201 q 716 1215 751 1201 q 648 1243 681 1229 q 581 1257 615 1257 q 444 1206 501 1257 l 469 1325 q 528 1356 493 1344 q 600 1368 564 1368 q 676 1354 643 1368 q 740 1326 708 1340 q 811 1313 772 1313 q 936 1365 890 1313 l 913 1246 q 863 1215 894 1228 q 792 1201 831 1201 m 621 956 q 512 978 560 956 q 442 1048 464 1000 q 438 1172 421 1096 l 544 1172 q 551 1085 532 1115 q 638 1054 569 1054 q 779 1172 753 1054 l 894 1172 q 799 1006 869 1057 q 621 956 728 956 m -28 0 l 503 894 l 708 894 l 860 0 l 672 0 l 632 215 l 303 215 l 175 0 l -28 0 m 363 360 l 636 360 l 575 719 l 363 360 z "},"Ǎ":{"ha":990,"x_min":-28,"x_max":917,"o":"m 558 956 l 424 1197 l 563 1197 l 632 1058 l 765 1197 l 917 1197 l 678 956 l 558 956 m -28 0 l 503 894 l 708 894 l 860 0 l 672 0 l 632 215 l 303 215 l 175 0 l -28 0 m 363 360 l 636 360 l 575 719 l 363 360 z "},"Â":{"ha":990,"x_min":-28,"x_max":865,"o":"m 372 956 l 610 1197 l 729 1197 l 865 956 l 728 956 l 654 1094 l 525 956 l 372 956 m -28 0 l 503 894 l 708 894 l 860 0 l 672 0 l 632 215 l 303 215 l 175 0 l -28 0 m 363 360 l 636 360 l 575 719 l 363 360 z "},"Ấ":{"ha":990,"x_min":-28,"x_max":1063,"o":"m 789 1118 l 921 1314 l 1063 1314 l 919 1118 l 789 1118 m 367 956 l 581 1143 l 724 1143 l 860 956 l 715 956 l 644 1068 l 528 956 l 367 956 m -28 0 l 503 894 l 708 894 l 860 0 l 672 0 l 632 215 l 303 215 l 175 0 l -28 0 m 363 360 l 636 360 l 575 719 l 363 360 z "},"Ậ":{"ha":990,"x_min":-28,"x_max":865,"o":"m 372 956 l 610 1197 l 729 1197 l 865 956 l 728 956 l 654 1094 l 525 956 l 372 956 m -28 0 l 503 894 l 708 894 l 860 0 l 672 0 l 632 215 l 303 215 l 175 0 l -28 0 m 363 360 l 636 360 l 575 719 l 363 360 m 289 -251 l 318 -114 l 467 -114 l 438 -251 l 289 -251 z "},"Ầ":{"ha":990,"x_min":-28,"x_max":865,"o":"m 381 1118 l 321 1314 l 463 1314 l 513 1118 l 381 1118 m 372 956 l 586 1143 l 729 1143 l 865 956 l 721 956 l 650 1068 l 533 956 l 372 956 m -28 0 l 503 894 l 708 894 l 860 0 l 672 0 l 632 215 l 303 215 l 175 0 l -28 0 m 363 360 l 636 360 l 575 719 l 363 360 z "},"Ẩ":{"ha":990,"x_min":-28,"x_max":1078,"o":"m 800 1088 l 821 1185 q 907 1199 885 1188 q 933 1233 929 1211 q 879 1271 940 1271 q 839 1266 858 1271 q 801 1254 819 1261 l 821 1340 q 872 1352 844 1347 q 938 1357 899 1357 q 1044 1326 1011 1357 q 1067 1244 1078 1294 q 1026 1171 1057 1199 q 938 1135 994 1143 l 928 1088 l 800 1088 m 372 956 l 586 1143 l 729 1143 l 865 956 l 721 956 l 650 1068 l 533 956 l 372 956 m -28 0 l 503 894 l 708 894 l 860 0 l 672 0 l 632 215 l 303 215 l 175 0 l -28 0 m 363 360 l 636 360 l 575 719 l 363 360 z "},"Ẫ":{"ha":990,"x_min":-28,"x_max":939,"o":"m 794 1164 q 718 1178 754 1164 q 649 1206 682 1192 q 582 1219 617 1219 q 446 1168 506 1219 l 472 1288 q 530 1319 494 1307 q 601 1331 565 1331 q 678 1317 644 1331 q 743 1289 711 1303 q 814 1275 775 1275 q 885 1289 854 1275 q 939 1328 917 1303 l 913 1208 q 865 1177 896 1190 q 794 1164 833 1164 m 372 956 l 586 1143 l 729 1143 l 865 956 l 721 956 l 650 1068 l 533 956 l 372 956 m -28 0 l 503 894 l 708 894 l 860 0 l 672 0 l 632 215 l 303 215 l 175 0 l -28 0 m 363 360 l 636 360 l 575 719 l 363 360 z "},"Ä":{"ha":990,"x_min":-28,"x_max":863,"o":"m 415 989 l 444 1125 l 590 1125 l 561 989 l 415 989 m 686 989 l 715 1125 l 863 1125 l 833 989 l 686 989 m -28 0 l 503 894 l 708 894 l 860 0 l 672 0 l 632 215 l 303 215 l 175 0 l -28 0 m 363 360 l 636 360 l 575 719 l 363 360 z "},"Ạ":{"ha":990,"x_min":-28,"x_max":860,"o":"m -28 0 l 503 894 l 708 894 l 860 0 l 672 0 l 632 215 l 303 215 l 175 0 l -28 0 m 363 360 l 636 360 l 575 719 l 363 360 m 289 -251 l 318 -114 l 467 -114 l 438 -251 l 289 -251 z "},"À":{"ha":990,"x_min":-28,"x_max":860,"o":"m 540 956 l 474 1215 l 636 1215 l 692 956 l 540 956 m -28 0 l 503 894 l 708 894 l 860 0 l 672 0 l 632 215 l 303 215 l 175 0 l -28 0 m 363 360 l 636 360 l 575 719 l 363 360 z "},"Ả":{"ha":990,"x_min":-28,"x_max":868,"o":"m 550 956 l 574 1068 q 679 1088 651 1072 q 713 1135 707 1104 q 697 1176 719 1163 q 629 1189 674 1189 q 584 1185 610 1189 q 539 1174 558 1181 l 560 1267 q 701 1285 617 1285 q 829 1249 790 1285 q 856 1151 868 1213 q 810 1063 843 1093 q 707 1019 776 1032 l 693 956 l 550 956 m -28 0 l 503 894 l 708 894 l 860 0 l 672 0 l 632 215 l 303 215 l 175 0 l -28 0 m 363 360 l 636 360 l 575 719 l 363 360 z "},"Ā":{"ha":990,"x_min":-28,"x_max":861,"o":"m 411 982 l 435 1097 l 861 1097 l 838 982 l 411 982 m -28 0 l 503 894 l 708 894 l 860 0 l 672 0 l 632 215 l 303 215 l 175 0 l -28 0 m 363 360 l 636 360 l 575 719 l 363 360 z "},"Ą":{"ha":1015,"x_min":-28,"x_max":860,"o":"m 715 -306 q 613 -275 651 -306 q 582 -179 574 -244 q 619 -72 589 -118 q 681 0 650 -26 l 640 215 l 303 215 l 175 0 l -28 0 l 503 894 l 708 894 l 860 0 q 776 -67 807 -29 q 736 -144 744 -104 q 746 -185 731 -174 q 789 -196 761 -196 q 825 -192 806 -196 q 858 -181 844 -187 l 836 -286 q 783 -300 815 -294 q 715 -306 750 -306 m 363 360 l 636 360 l 575 719 l 363 360 z "},"Å":{"ha":990,"x_min":-28,"x_max":860,"o":"m -28 0 l 485 864 q 454 992 438 910 q 523 1110 468 1061 q 660 1158 578 1158 q 778 1110 742 1158 q 799 992 814 1061 q 714 861 782 907 l 860 0 l 672 0 l 632 215 l 303 215 l 175 0 l -28 0 m 608 913 q 676 935 653 913 q 707 992 700 958 q 697 1048 714 1025 q 642 1071 681 1071 q 576 1048 601 1071 q 544 992 551 1025 q 555 935 538 958 q 608 913 572 913 m 363 360 l 636 360 l 575 719 l 363 360 z "},"Ǻ":{"ha":990,"x_min":-28,"x_max":908,"o":"m 579 1186 l 746 1446 l 908 1446 l 731 1186 l 579 1186 m -28 0 l 485 864 q 454 992 438 910 q 523 1110 468 1061 q 660 1158 578 1158 q 778 1110 742 1158 q 799 992 814 1061 q 714 861 782 907 l 860 0 l 672 0 l 632 215 l 303 215 l 175 0 l -28 0 m 608 913 q 676 935 653 913 q 707 992 700 958 q 697 1048 714 1025 q 642 1071 681 1071 q 576 1048 601 1071 q 544 992 551 1025 q 555 935 538 958 q 608 913 572 913 m 363 360 l 636 360 l 575 719 l 363 360 z "},"Ã":{"ha":990,"x_min":-28,"x_max":888,"o":"m 739 957 q 663 971 699 957 q 594 999 626 985 q 526 1013 561 1013 q 390 961 450 1013 l 419 1094 q 478 1126 443 1114 q 549 1138 513 1138 q 625 1124 592 1138 q 690 1096 658 1110 q 761 1082 722 1082 q 888 1135 839 1082 l 858 1001 q 810 970 842 983 q 739 957 778 957 m -28 0 l 503 894 l 708 894 l 860 0 l 672 0 l 632 215 l 303 215 l 175 0 l -28 0 m 363 360 l 636 360 l 575 719 l 363 360 z "},"Æ":{"ha":1179,"x_min":-28,"x_max":1238,"o":"m -28 0 l 503 894 l 1238 894 l 1207 749 l 826 749 l 778 519 l 1107 519 l 1076 375 l 747 375 l 699 144 l 1079 144 l 1049 0 l 481 0 l 526 217 l 304 217 l 175 0 l -28 0 m 378 361 l 557 361 l 640 756 l 604 756 l 378 361 z "},"Ǽ":{"ha":1179,"x_min":-28,"x_max":1238,"o":"m 708 956 l 875 1215 l 1038 1215 l 860 956 l 708 956 m -28 0 l 503 894 l 1238 894 l 1207 749 l 826 749 l 778 519 l 1107 519 l 1076 375 l 747 375 l 699 144 l 1079 144 l 1049 0 l 481 0 l 526 217 l 304 217 l 175 0 l -28 0 m 378 361 l 557 361 l 640 756 l 604 756 l 378 361 z "},"B":{"ha":883,"x_min":1,"x_max":882,"o":"m 1 0 l 190 894 l 643 894 q 826 827 771 894 q 858 653 882 760 q 806 533 843 581 q 715 458 768 485 q 800 391 774 439 q 808 261 826 343 q 699 66 781 132 q 471 0 618 0 l 1 0 m 300 524 l 531 524 q 634 553 599 524 q 681 638 669 583 q 669 726 693 697 q 565 756 646 756 l 349 756 l 300 524 m 218 138 l 456 138 q 566 167 526 138 q 621 269 606 196 q 607 358 633 329 q 496 388 581 388 l 271 388 l 218 138 z "},"C":{"ha":833,"x_min":35,"x_max":885,"o":"m 432 -14 q 201 41 293 -14 q 72 198 108 96 q 65 439 35 300 q 249 785 113 661 q 628 908 385 908 q 770 897 708 908 q 885 864 832 885 l 850 700 q 607 749 742 749 q 372 672 454 749 q 256 439 289 596 q 271 218 224 292 q 482 144 318 144 q 613 156 547 144 q 743 192 679 168 l 708 26 q 580 -3 647 8 q 432 -14 513 -14 z "},"Ć":{"ha":833,"x_min":35,"x_max":885,"o":"m 543 956 l 710 1215 l 872 1215 l 694 956 l 543 956 m 432 -14 q 201 41 293 -14 q 72 198 108 96 q 65 439 35 300 q 249 785 113 661 q 628 908 385 908 q 770 897 708 908 q 885 864 832 885 l 850 700 q 607 749 742 749 q 372 672 454 749 q 256 439 289 596 q 271 218 224 292 q 482 144 318 144 q 613 156 547 144 q 743 192 679 168 l 708 26 q 580 -3 647 8 q 432 -14 513 -14 z "},"Č":{"ha":833,"x_min":35,"x_max":940,"o":"m 582 956 l 447 1197 l 586 1197 l 656 1058 l 789 1197 l 940 1197 l 701 956 l 582 956 m 432 -14 q 201 41 293 -14 q 72 198 108 96 q 65 439 35 300 q 249 785 113 661 q 628 908 385 908 q 770 897 708 908 q 885 864 832 885 l 850 700 q 607 749 742 749 q 372 672 454 749 q 256 439 289 596 q 271 218 224 292 q 482 144 318 144 q 613 156 547 144 q 743 192 679 168 l 708 26 q 580 -3 647 8 q 432 -14 513 -14 z "},"Ç":{"ha":833,"x_min":39,"x_max":885,"o":"m 333 -333 q 278 -330 310 -333 q 231 -322 246 -326 l 251 -228 q 333 -239 289 -239 q 422 -230 394 -239 q 454 -187 449 -221 q 435 -144 461 -151 q 360 -136 408 -136 l 299 -136 l 361 -10 q 170 62 246 4 q 67 215 94 119 q 65 439 39 311 q 249 785 113 661 q 628 908 385 908 q 770 897 708 908 q 885 864 832 885 l 850 700 q 607 749 742 749 q 372 672 454 749 q 256 439 289 596 q 271 218 224 292 q 482 144 318 144 q 613 156 547 144 q 743 192 679 168 l 708 26 q 601 1 657 11 q 482 -12 546 -10 l 454 -62 q 557 -97 528 -62 q 575 -189 586 -131 q 501 -295 561 -257 q 333 -333 442 -333 z "},"Ĉ":{"ha":833,"x_min":35,"x_max":885,"o":"m 354 956 l 592 1197 l 711 1197 l 847 956 l 710 956 l 636 1094 l 507 956 l 354 956 m 432 -14 q 201 41 293 -14 q 72 198 108 96 q 65 439 35 300 q 249 785 113 661 q 628 908 385 908 q 770 897 708 908 q 885 864 832 885 l 850 700 q 607 749 742 749 q 372 672 454 749 q 256 439 289 596 q 271 218 224 292 q 482 144 318 144 q 613 156 547 144 q 743 192 679 168 l 708 26 q 580 -3 647 8 q 432 -14 513 -14 z "},"Ċ":{"ha":833,"x_min":35,"x_max":885,"o":"m 553 990 l 582 1126 l 728 1126 l 699 990 l 553 990 m 432 -14 q 201 41 293 -14 q 72 198 108 96 q 65 439 35 300 q 249 785 113 661 q 628 908 385 908 q 770 897 708 908 q 885 864 832 885 l 850 700 q 607 749 742 749 q 372 672 454 749 q 256 439 289 596 q 271 218 224 292 q 482 144 318 144 q 613 156 547 144 q 743 192 679 168 l 708 26 q 580 -3 647 8 q 432 -14 513 -14 z "},"D":{"ha":911,"x_min":1,"x_max":922,"o":"m 1 0 l 190 894 l 565 894 q 838 782 753 894 q 875 443 922 669 q 710 106 828 213 q 376 0 592 0 l 1 0 m 219 144 l 381 144 q 513 169 454 144 q 616 258 572 193 q 685 443 660 322 q 703 628 711 564 q 648 715 694 692 q 511 739 601 739 l 346 739 l 219 144 z "},"Ð":{"ha":976,"x_min":50,"x_max":988,"o":"m 67 0 l 144 367 l 50 367 l 81 511 l 175 511 l 256 894 l 631 894 q 903 782 818 894 q 940 443 988 669 q 775 106 893 213 q 442 0 657 0 l 67 0 m 285 144 l 446 144 q 578 169 519 144 q 681 258 638 193 q 750 443 725 322 q 768 628 776 564 q 713 715 760 692 q 576 739 667 739 l 411 739 l 363 511 l 569 511 l 539 367 l 332 367 l 285 144 z "},"Ď":{"ha":911,"x_min":1,"x_max":922,"o":"m 497 986 l 363 1228 l 501 1228 l 571 1089 l 704 1228 l 856 1228 l 617 986 l 497 986 m 1 0 l 190 894 l 565 894 q 838 782 753 894 q 875 443 922 669 q 710 106 828 213 q 376 0 592 0 l 1 0 m 219 144 l 381 144 q 513 169 454 144 q 616 258 572 193 q 685 443 660 322 q 703 628 711 564 q 648 715 694 692 q 511 739 601 739 l 346 739 l 219 144 z "},"Đ":{"ha":963,"x_min":36,"x_max":974,"o":"m 53 0 l 131 367 l 36 367 l 67 511 l 161 511 l 242 894 l 617 894 q 889 782 804 894 q 926 443 974 669 q 761 106 879 213 q 428 0 643 0 l 53 0 m 271 144 l 432 144 q 565 169 506 144 q 667 258 624 193 q 736 443 710 322 q 754 628 763 564 q 699 715 746 692 q 563 739 653 739 l 397 739 l 349 511 l 556 511 l 525 367 l 318 367 l 271 144 z "},"Ḍ":{"ha":911,"x_min":1,"x_max":922,"o":"m 1 0 l 190 894 l 565 894 q 838 782 753 894 q 875 443 922 669 q 710 106 828 213 q 376 0 592 0 l 1 0 m 219 144 l 381 144 q 513 169 454 144 q 616 258 572 193 q 685 443 660 322 q 703 628 711 564 q 648 715 694 692 q 511 739 601 739 l 346 739 l 219 144 m 240 -251 l 269 -114 l 418 -114 l 389 -251 l 240 -251 z "},"Ḏ":{"ha":911,"x_min":1,"x_max":922,"o":"m 1 0 l 190 894 l 565 894 q 838 782 753 894 q 875 443 922 669 q 710 106 828 213 q 376 0 592 0 l 1 0 m 219 144 l 381 144 q 513 169 454 144 q 616 258 572 193 q 685 443 660 322 q 703 628 711 564 q 648 715 694 692 q 511 739 601 739 l 346 739 l 219 144 m 42 -253 l 65 -137 l 492 -137 l 468 -253 l 42 -253 z "},"E":{"ha":774,"x_min":1,"x_max":832,"o":"m 1 0 l 190 894 l 832 894 l 801 749 l 347 749 l 299 519 l 701 519 l 671 375 l 268 375 l 219 144 l 674 144 l 643 0 l 1 0 z "},"É":{"ha":774,"x_min":1,"x_max":832,"o":"m 433 956 l 600 1215 l 763 1215 l 585 956 l 433 956 m 1 0 l 190 894 l 832 894 l 801 749 l 347 749 l 299 519 l 701 519 l 671 375 l 268 375 l 219 144 l 674 144 l 643 0 l 1 0 z "},"Ĕ":{"ha":774,"x_min":1,"x_max":832,"o":"m 533 956 q 390 1014 438 956 q 364 1174 342 1072 l 481 1174 q 483 1097 471 1131 q 550 1064 494 1064 q 629 1097 599 1064 q 669 1174 660 1131 l 801 1174 q 713 1014 779 1072 q 533 956 646 956 m 1 0 l 190 894 l 832 894 l 801 749 l 347 749 l 299 519 l 701 519 l 671 375 l 268 375 l 219 144 l 674 144 l 643 0 l 1 0 z "},"Ě":{"ha":774,"x_min":1,"x_max":836,"o":"m 478 956 l 343 1197 l 482 1197 l 551 1058 l 685 1197 l 836 1197 l 597 956 l 478 956 m 1 0 l 190 894 l 832 894 l 801 749 l 347 749 l 299 519 l 701 519 l 671 375 l 268 375 l 219 144 l 674 144 l 643 0 l 1 0 z "},"Ê":{"ha":774,"x_min":1,"x_max":832,"o":"m 278 956 l 515 1197 l 635 1197 l 771 956 l 633 956 l 560 1094 l 431 956 l 278 956 m 1 0 l 190 894 l 832 894 l 801 749 l 347 749 l 299 519 l 701 519 l 671 375 l 268 375 l 219 144 l 674 144 l 643 0 l 1 0 z "},"Ế":{"ha":765,"x_min":1,"x_max":976,"o":"m 703 1117 l 835 1313 l 976 1313 l 833 1117 l 703 1117 m 281 954 l 494 1142 l 638 1142 l 774 954 l 629 954 l 558 1067 l 442 954 l 281 954 m 1 0 l 190 894 l 832 894 l 801 749 l 347 749 l 299 519 l 701 519 l 671 375 l 268 375 l 219 144 l 674 144 l 643 0 l 1 0 z "},"Ệ":{"ha":774,"x_min":1,"x_max":832,"o":"m 272 956 l 510 1197 l 629 1197 l 765 956 l 628 956 l 554 1094 l 425 956 l 272 956 m 1 0 l 190 894 l 832 894 l 801 749 l 347 749 l 299 519 l 701 519 l 671 375 l 268 375 l 219 144 l 674 144 l 643 0 l 1 0 m 189 -251 l 218 -114 l 367 -114 l 338 -251 l 189 -251 z "},"Ề":{"ha":772,"x_min":0,"x_max":831,"o":"m 290 1117 l 231 1313 l 372 1313 l 422 1117 l 290 1117 m 282 954 l 496 1142 l 639 1142 l 775 954 l 631 954 l 560 1067 l 443 954 l 282 954 m 0 0 l 189 894 l 831 894 l 800 749 l 346 749 l 297 519 l 700 519 l 669 375 l 267 375 l 218 144 l 672 144 l 642 0 l 0 0 z "},"Ể":{"ha":765,"x_min":1,"x_max":986,"o":"m 708 1086 l 729 1183 q 815 1198 793 1186 q 842 1232 838 1210 q 788 1269 849 1269 q 747 1265 767 1269 q 710 1253 728 1260 l 729 1339 q 780 1351 753 1346 q 846 1356 807 1356 q 953 1324 919 1356 q 975 1243 986 1293 q 934 1169 965 1197 q 846 1133 903 1142 l 836 1086 l 708 1086 m 281 954 l 494 1142 l 638 1142 l 774 954 l 629 954 l 558 1067 l 442 954 l 281 954 m 1 0 l 190 894 l 832 894 l 801 749 l 347 749 l 299 519 l 701 519 l 671 375 l 268 375 l 219 144 l 674 144 l 643 0 l 1 0 z "},"Ễ":{"ha":774,"x_min":1,"x_max":849,"o":"m 704 1163 q 628 1176 664 1163 q 559 1204 592 1190 q 492 1218 526 1218 q 356 1167 415 1218 l 382 1286 q 440 1317 404 1306 q 511 1329 475 1329 q 588 1315 554 1329 q 653 1288 621 1301 q 724 1274 685 1274 q 795 1288 764 1274 q 849 1326 826 1301 l 822 1207 q 774 1176 806 1189 q 704 1163 743 1163 m 282 954 l 496 1142 l 639 1142 l 775 954 l 631 954 l 560 1067 l 443 954 l 282 954 m 1 0 l 190 894 l 832 894 l 801 749 l 347 749 l 299 519 l 701 519 l 671 375 l 268 375 l 219 144 l 674 144 l 643 0 l 1 0 z "},"Ë":{"ha":774,"x_min":1,"x_max":832,"o":"m 329 990 l 358 1126 l 504 1126 l 475 990 l 329 990 m 600 990 l 629 1126 l 776 1126 l 747 990 l 600 990 m 1 0 l 190 894 l 832 894 l 801 749 l 347 749 l 299 519 l 701 519 l 671 375 l 268 375 l 219 144 l 674 144 l 643 0 l 1 0 z "},"Ė":{"ha":774,"x_min":1,"x_max":832,"o":"m 460 990 l 489 1126 l 635 1126 l 606 990 l 460 990 m 1 0 l 190 894 l 832 894 l 801 749 l 347 749 l 299 519 l 701 519 l 671 375 l 268 375 l 219 144 l 674 144 l 643 0 l 1 0 z "},"Ẹ":{"ha":774,"x_min":1,"x_max":832,"o":"m 1 0 l 190 894 l 832 894 l 801 749 l 347 749 l 299 519 l 701 519 l 671 375 l 268 375 l 219 144 l 674 144 l 643 0 l 1 0 m 190 -251 l 219 -114 l 368 -114 l 339 -251 l 190 -251 z "},"È":{"ha":774,"x_min":1,"x_max":832,"o":"m 471 956 l 404 1215 l 567 1215 l 622 956 l 471 956 m 1 0 l 190 894 l 832 894 l 801 749 l 347 749 l 299 519 l 701 519 l 671 375 l 268 375 l 219 144 l 674 144 l 643 0 l 1 0 z "},"Ẻ":{"ha":774,"x_min":1,"x_max":832,"o":"m 451 954 l 475 1067 q 581 1087 553 1071 q 614 1133 608 1103 q 598 1174 621 1161 q 531 1188 575 1188 q 485 1183 511 1188 q 440 1172 460 1179 l 461 1265 q 603 1283 518 1283 q 731 1247 692 1283 q 757 1150 769 1211 q 711 1061 744 1092 q 608 1018 678 1031 l 594 954 l 451 954 m 1 0 l 190 894 l 832 894 l 801 749 l 347 749 l 299 519 l 701 519 l 671 375 l 268 375 l 219 144 l 674 144 l 643 0 l 1 0 z "},"Ē":{"ha":774,"x_min":1,"x_max":832,"o":"m 314 1003 l 338 1118 l 764 1118 l 740 1003 l 314 1003 m 1 0 l 190 894 l 832 894 l 801 749 l 347 749 l 299 519 l 701 519 l 671 375 l 268 375 l 219 144 l 674 144 l 643 0 l 1 0 z "},"Ę":{"ha":774,"x_min":1,"x_max":832,"o":"m 1 0 l 190 894 l 832 894 l 801 749 l 347 749 l 299 519 l 701 519 l 671 375 l 268 375 l 219 144 l 674 144 l 643 0 l 583 0 q 501 -67 535 -31 q 460 -144 468 -104 q 469 -185 454 -174 q 513 -196 485 -196 q 549 -192 529 -196 q 582 -181 568 -187 l 560 -286 q 506 -300 539 -294 q 439 -306 474 -306 q 333 -274 375 -306 q 306 -179 292 -243 q 444 0 329 -69 l 1 0 z "},"Ẽ":{"ha":774,"x_min":1,"x_max":832,"o":"m 649 972 q 572 986 608 972 q 503 1014 536 1000 q 436 1028 471 1028 q 300 976 360 1028 l 329 1110 q 388 1141 353 1129 q 458 1153 422 1153 q 535 1139 501 1153 q 600 1111 568 1125 q 671 1097 632 1097 q 797 1150 749 1097 l 768 1017 q 719 985 751 999 q 649 972 688 972 m 1 0 l 190 894 l 832 894 l 801 749 l 347 749 l 299 519 l 701 519 l 671 375 l 268 375 l 219 144 l 674 144 l 643 0 l 1 0 z "},"F":{"ha":732,"x_min":1,"x_max":819,"o":"m 1 0 l 190 894 l 819 894 l 789 749 l 347 749 l 299 519 l 689 519 l 658 375 l 268 375 l 189 0 l 1 0 z "},"G":{"ha":893,"x_min":19,"x_max":896,"o":"m 426 -14 q 116 104 213 -14 q 64 432 19 222 q 256 781 111 654 q 635 908 401 908 q 778 899 715 908 q 896 871 842 890 l 861 710 q 744 740 807 731 q 614 749 682 749 q 375 670 463 749 q 254 432 288 592 q 244 272 233 336 q 308 176 256 208 q 464 144 360 144 q 557 152 511 144 q 642 172 603 160 l 686 381 l 478 381 l 503 500 l 869 500 l 776 63 q 638 10 725 33 q 426 -14 550 -14 z "},"Ğ":{"ha":893,"x_min":19,"x_max":901,"o":"m 633 956 q 490 1014 538 956 q 464 1174 442 1072 l 581 1174 q 583 1097 571 1131 q 650 1064 594 1064 q 729 1097 699 1064 q 769 1174 760 1131 l 901 1174 q 813 1014 879 1072 q 633 956 746 956 m 426 -14 q 116 104 213 -14 q 64 432 19 222 q 256 781 111 654 q 635 908 401 908 q 778 899 715 908 q 896 871 842 890 l 861 710 q 744 740 807 731 q 614 749 682 749 q 375 670 463 749 q 254 432 288 592 q 244 272 233 336 q 308 176 256 208 q 464 144 360 144 q 557 152 511 144 q 642 172 603 160 l 686 381 l 478 381 l 503 500 l 869 500 l 776 63 q 638 10 725 33 q 426 -14 550 -14 z "},"Ǧ":{"ha":893,"x_min":19,"x_max":931,"o":"m 572 954 l 438 1196 l 576 1196 l 646 1057 l 779 1196 l 931 1196 l 692 954 l 572 954 m 426 -14 q 116 104 213 -14 q 64 432 19 222 q 256 781 111 654 q 635 908 401 908 q 778 899 715 908 q 896 871 842 890 l 861 710 q 744 740 807 731 q 614 749 682 749 q 375 670 463 749 q 254 432 288 592 q 244 272 233 336 q 308 176 256 208 q 464 144 360 144 q 557 152 511 144 q 642 172 603 160 l 686 381 l 478 381 l 503 500 l 869 500 l 776 63 q 638 10 725 33 q 426 -14 550 -14 z "},"Ĝ":{"ha":893,"x_min":19,"x_max":896,"o":"m 378 956 l 615 1197 l 735 1197 l 871 956 l 733 956 l 660 1094 l 531 956 l 378 956 m 426 -14 q 116 104 213 -14 q 64 432 19 222 q 256 781 111 654 q 635 908 401 908 q 778 899 715 908 q 896 871 842 890 l 861 710 q 744 740 807 731 q 614 749 682 749 q 375 670 463 749 q 254 432 288 592 q 244 272 233 336 q 308 176 256 208 q 464 144 360 144 q 557 152 511 144 q 642 172 603 160 l 686 381 l 478 381 l 503 500 l 869 500 l 776 63 q 638 10 725 33 q 426 -14 550 -14 z "},"Ģ":{"ha":893,"x_min":19,"x_max":896,"o":"m 426 -14 q 116 104 213 -14 q 64 432 19 222 q 256 781 111 654 q 635 908 401 908 q 778 899 715 908 q 896 871 842 890 l 861 710 q 744 740 807 731 q 614 749 682 749 q 375 670 463 749 q 254 432 288 592 q 244 272 233 336 q 308 176 256 208 q 464 144 360 144 q 557 152 511 144 q 642 172 603 160 l 686 381 l 478 381 l 503 500 l 869 500 l 776 63 q 638 10 725 33 q 426 -14 550 -14 m 263 -331 l 364 -51 l 511 -51 l 382 -331 l 263 -331 z "},"Ġ":{"ha":893,"x_min":19,"x_max":896,"o":"m 578 990 l 607 1126 l 753 1126 l 724 990 l 578 990 m 426 -14 q 116 104 213 -14 q 64 432 19 222 q 256 781 111 654 q 635 908 401 908 q 778 899 715 908 q 896 871 842 890 l 861 710 q 744 740 807 731 q 614 749 682 749 q 375 670 463 749 q 254 432 288 592 q 244 272 233 336 q 308 176 256 208 q 464 144 360 144 q 557 152 511 144 q 642 172 603 160 l 686 381 l 478 381 l 503 500 l 869 500 l 776 63 q 638 10 725 33 q 426 -14 550 -14 z "},"Ḡ":{"ha":893,"x_min":19,"x_max":896,"o":"m 436 996 l 460 1111 l 886 1111 l 863 996 l 436 996 m 426 -14 q 116 104 213 -14 q 64 432 19 222 q 256 781 111 654 q 635 908 401 908 q 778 899 715 908 q 896 871 842 890 l 861 710 q 744 740 807 731 q 614 749 682 749 q 375 670 463 749 q 254 432 288 592 q 244 272 233 336 q 308 176 256 208 q 464 144 360 144 q 557 152 511 144 q 642 172 603 160 l 686 381 l 478 381 l 503 500 l 869 500 l 776 63 q 638 10 725 33 q 426 -14 550 -14 z "},"H":{"ha":925,"x_min":1,"x_max":956,"o":"m 1 0 l 190 894 l 378 894 l 299 519 l 689 519 l 768 894 l 956 894 l 767 0 l 579 0 l 658 375 l 268 375 l 189 0 l 1 0 z "},"Ħ":{"ha":926,"x_min":6,"x_max":989,"o":"m 6 0 l 138 626 l 76 626 l 108 772 l 168 772 l 194 894 l 382 894 l 356 772 l 746 772 l 772 894 l 960 894 l 933 772 l 989 772 l 957 626 l 903 626 l 771 0 l 583 0 l 663 375 l 272 375 l 193 0 l 6 0 m 303 519 l 693 519 l 715 626 l 325 626 l 303 519 z "},"Ḫ":{"ha":925,"x_min":1,"x_max":956,"o":"m 1 0 l 190 894 l 378 894 l 299 519 l 689 519 l 768 894 l 956 894 l 767 0 l 579 0 l 658 375 l 268 375 l 189 0 l 1 0 m 317 -301 q 215 -275 258 -301 q 151 -200 171 -249 q 146 -83 132 -151 l 265 -83 q 268 -160 256 -126 q 335 -193 281 -193 q 413 -160 383 -193 q 453 -83 443 -126 l 583 -83 q 491 -243 561 -185 q 317 -301 421 -301 z "},"Ĥ":{"ha":925,"x_min":1,"x_max":956,"o":"m 340 956 l 578 1197 l 697 1197 l 833 956 l 696 956 l 622 1094 l 493 956 l 340 956 m 1 0 l 190 894 l 378 894 l 299 519 l 689 519 l 768 894 l 956 894 l 767 0 l 579 0 l 658 375 l 268 375 l 189 0 l 1 0 z "},"Ḥ":{"ha":925,"x_min":1,"x_max":956,"o":"m 1 0 l 190 894 l 378 894 l 299 519 l 689 519 l 768 894 l 956 894 l 767 0 l 579 0 l 658 375 l 268 375 l 189 0 l 1 0 m 256 -251 l 285 -114 l 433 -114 l 404 -251 l 256 -251 z "},"I":{"ha":347,"x_min":1,"x_max":378,"o":"m 1 0 l 190 894 l 378 894 l 189 0 l 1 0 z "},"Ĳ":{"ha":938,"x_min":1,"x_max":974,"o":"m 471 -14 q 278 18 358 -14 l 311 176 q 468 146 376 146 q 601 181 560 146 q 660 297 643 217 l 786 894 l 974 894 l 839 256 q 721 53 810 121 q 471 -14 632 -14 m 1 0 l 190 894 l 378 894 l 189 0 l 1 0 z "},"Í":{"ha":349,"x_min":1,"x_max":551,"o":"m 222 956 l 389 1215 l 551 1215 l 374 956 l 222 956 m 1 0 l 190 894 l 378 894 l 189 0 l 1 0 z "},"Ĭ":{"ha":346,"x_min":-1,"x_max":565,"o":"m 297 974 q 153 1032 201 974 q 128 1192 106 1090 l 244 1192 q 247 1115 235 1149 q 314 1082 258 1082 q 393 1115 363 1082 q 433 1192 424 1149 l 565 1192 q 476 1032 543 1090 q 297 974 410 974 m -1 0 l 188 894 l 375 894 l 186 0 l -1 0 z "},"Ǐ":{"ha":346,"x_min":-1,"x_max":594,"o":"m 236 956 l 101 1197 l 240 1197 l 310 1058 l 443 1197 l 594 1197 l 356 956 l 236 956 m -1 0 l 188 894 l 375 894 l 186 0 l -1 0 z "},"Î":{"ha":346,"x_min":-1,"x_max":543,"o":"m 50 956 l 288 1197 l 407 1197 l 543 956 l 406 956 l 332 1094 l 203 956 l 50 956 m -1 0 l 188 894 l 375 894 l 186 0 l -1 0 z "},"Ï":{"ha":346,"x_min":0,"x_max":544,"o":"m 97 997 l 126 1133 l 272 1133 l 243 997 l 97 997 m 368 997 l 397 1133 l 544 1133 l 515 997 l 368 997 m 0 0 l 189 894 l 376 894 l 188 0 l 0 0 z "},"İ":{"ha":347,"x_min":1,"x_max":408,"o":"m 233 997 l 263 1133 l 408 1133 l 379 997 l 233 997 m 1 0 l 190 894 l 378 894 l 189 0 l 1 0 z "},"Ị":{"ha":347,"x_min":-32,"x_max":378,"o":"m 1 0 l 190 894 l 378 894 l 189 0 l 1 0 m -32 -251 l -3 -114 l 146 -114 l 117 -251 l -32 -251 z "},"Ì":{"ha":346,"x_min":0,"x_max":376,"o":"m 219 956 l 153 1215 l 315 1215 l 371 956 l 219 956 m 0 0 l 189 894 l 376 894 l 188 0 l 0 0 z "},"Ỉ":{"ha":347,"x_min":0,"x_max":542,"o":"m 224 954 l 247 1067 q 353 1087 325 1071 q 386 1133 381 1103 q 370 1174 393 1161 q 303 1188 347 1188 q 258 1183 283 1188 q 213 1172 232 1179 l 233 1265 q 375 1283 290 1283 q 503 1247 464 1283 q 529 1150 542 1211 q 483 1061 517 1092 q 381 1018 450 1031 l 367 954 l 224 954 m 0 0 l 189 894 l 376 894 l 188 0 l 0 0 z "},"Ī":{"ha":347,"x_min":0,"x_max":546,"o":"m 94 1003 l 118 1118 l 546 1118 l 522 1003 l 94 1003 m 0 0 l 189 894 l 376 894 l 188 0 l 0 0 z "},"Į":{"ha":347,"x_min":-122,"x_max":376,"o":"m 25 -306 q -81 -274 -39 -306 q -108 -179 -122 -243 q 31 0 -85 -69 l 0 0 l 189 894 l 376 894 l 188 0 l 169 0 q 88 -67 121 -31 q 46 -144 54 -104 q 56 -185 40 -174 q 99 -196 71 -196 q 135 -192 115 -196 q 168 -181 154 -187 l 146 -286 q 92 -300 125 -294 q 25 -306 60 -306 z "},"Ĩ":{"ha":347,"x_min":0,"x_max":568,"o":"m 419 972 q 343 986 379 972 q 274 1014 307 1000 q 207 1028 242 1028 q 71 976 131 1028 l 100 1110 q 158 1141 124 1129 q 229 1153 193 1153 q 306 1139 272 1153 q 371 1111 339 1125 q 442 1097 403 1097 q 568 1150 519 1097 l 539 1017 q 490 985 522 999 q 419 972 458 972 m 0 0 l 189 894 l 376 894 l 188 0 l 0 0 z "},"J":{"ha":607,"x_min":-51,"x_max":644,"o":"m 142 -14 q -51 18 29 -14 l -18 176 q 139 146 47 146 q 272 181 231 146 q 331 297 314 217 l 457 894 l 644 894 l 510 256 q 392 53 481 121 q 142 -14 303 -14 z "},"Ĵ":{"ha":607,"x_min":-51,"x_max":814,"o":"m 321 956 l 558 1197 l 678 1197 l 814 956 l 676 956 l 603 1094 l 474 956 l 321 956 m 142 -14 q -51 18 29 -14 l -18 176 q 139 146 47 146 q 272 181 231 146 q 331 297 314 217 l 457 894 l 644 894 l 510 256 q 392 53 481 121 q 142 -14 303 -14 z "},"K":{"ha":896,"x_min":1,"x_max":938,"o":"m 1 0 l 190 894 l 378 894 l 297 515 l 722 894 l 938 894 l 538 532 l 765 0 l 565 0 l 396 413 l 249 283 l 189 0 l 1 0 z "},"Ķ":{"ha":896,"x_min":1,"x_max":938,"o":"m 1 0 l 190 894 l 378 894 l 297 515 l 722 894 l 938 894 l 538 532 l 765 0 l 565 0 l 396 413 l 249 283 l 189 0 l 1 0 m 189 -331 l 290 -51 l 438 -51 l 308 -331 l 189 -331 z "},"L":{"ha":732,"x_min":1,"x_max":660,"o":"m 1 0 l 190 894 l 378 894 l 219 144 l 660 144 l 629 0 l 1 0 z "},"Ĺ":{"ha":732,"x_min":1,"x_max":660,"o":"m 226 956 l 393 1215 l 556 1215 l 378 956 l 226 956 m 1 0 l 190 894 l 378 894 l 219 144 l 660 144 l 629 0 l 1 0 z "},"Ľ":{"ha":732,"x_min":1,"x_max":749,"o":"m 1 0 l 190 894 l 378 894 l 219 144 l 660 144 l 629 0 l 1 0 m 500 615 l 601 894 l 749 894 l 621 615 l 500 615 z "},"Ļ":{"ha":732,"x_min":1,"x_max":660,"o":"m 1 0 l 190 894 l 378 894 l 219 144 l 660 144 l 629 0 l 1 0 m 151 -331 l 253 -51 l 400 -51 l 271 -331 l 151 -331 z "},"Ŀ":{"ha":732,"x_min":1,"x_max":660,"o":"m 1 0 l 190 894 l 378 894 l 219 144 l 660 144 l 629 0 l 1 0 m 474 383 l 503 519 l 649 519 l 619 383 l 474 383 z "},"Ḷ":{"ha":732,"x_min":1,"x_max":660,"o":"m 1 0 l 190 894 l 378 894 l 219 144 l 660 144 l 629 0 l 1 0 m 178 -251 l 207 -114 l 356 -114 l 326 -251 l 178 -251 z "},"Ḹ":{"ha":753,"x_min":22,"x_max":681,"o":"m 140 996 l 164 1111 l 590 1111 l 567 996 l 140 996 m 22 0 l 211 894 l 399 894 l 240 144 l 681 144 l 650 0 l 22 0 m 199 -251 l 228 -114 l 376 -114 l 347 -251 l 199 -251 z "},"Ḻ":{"ha":732,"x_min":1,"x_max":660,"o":"m 1 0 l 190 894 l 378 894 l 219 144 l 660 144 l 629 0 l 1 0 m 47 -219 l 71 -104 l 497 -104 l 474 -219 l 47 -219 z "},"Ł":{"ha":732,"x_min":-37,"x_max":660,"o":"m 1 0 l 76 358 l -37 313 l -8 447 l 106 493 l 190 894 l 378 894 l 310 575 l 500 651 l 472 517 l 282 440 l 219 144 l 660 144 l 629 0 l 1 0 z "},"M":{"ha":1061,"x_min":1,"x_max":1092,"o":"m 1 0 l 190 894 l 372 894 l 521 357 l 897 894 l 1092 894 l 903 0 l 715 0 l 839 582 l 539 154 l 431 154 l 313 582 l 189 0 l 1 0 z "},"Ṃ":{"ha":1061,"x_min":1,"x_max":1092,"o":"m 1 0 l 190 894 l 372 894 l 521 357 l 897 894 l 1092 894 l 903 0 l 715 0 l 839 582 l 539 154 l 431 154 l 313 582 l 189 0 l 1 0 m 343 -251 l 372 -114 l 521 -114 l 492 -251 l 343 -251 z "},"N":{"ha":933,"x_min":1,"x_max":964,"o":"m 1 0 l 190 894 l 353 894 l 650 299 l 776 894 l 964 894 l 775 0 l 613 0 l 315 596 l 189 0 l 1 0 z "},"Ń":{"ha":933,"x_min":1,"x_max":964,"o":"m 500 956 l 667 1215 l 829 1215 l 651 956 l 500 956 m 1 0 l 190 894 l 353 894 l 650 299 l 776 894 l 964 894 l 775 0 l 613 0 l 315 596 l 189 0 l 1 0 z "},"Ň":{"ha":933,"x_min":1,"x_max":964,"o":"m 535 956 l 400 1197 l 539 1197 l 608 1058 l 742 1197 l 893 1197 l 654 956 l 535 956 m 1 0 l 190 894 l 353 894 l 650 299 l 776 894 l 964 894 l 775 0 l 613 0 l 315 596 l 189 0 l 1 0 z "},"Ņ":{"ha":933,"x_min":1,"x_max":964,"o":"m 1 0 l 190 894 l 353 894 l 650 299 l 776 894 l 964 894 l 775 0 l 613 0 l 315 596 l 189 0 l 1 0 m 214 -331 l 315 -51 l 463 -51 l 333 -331 l 214 -331 z "},"Ṅ":{"ha":933,"x_min":1,"x_max":964,"o":"m 536 990 l 565 1126 l 711 1126 l 682 990 l 536 990 m 1 0 l 190 894 l 353 894 l 650 299 l 776 894 l 964 894 l 775 0 l 613 0 l 315 596 l 189 0 l 1 0 z "},"Ṇ":{"ha":933,"x_min":1,"x_max":964,"o":"m 1 0 l 190 894 l 353 894 l 650 299 l 776 894 l 964 894 l 775 0 l 613 0 l 315 596 l 189 0 l 1 0 m 264 -251 l 293 -114 l 442 -114 l 413 -251 l 264 -251 z "},"Ŋ":{"ha":932,"x_min":1,"x_max":964,"o":"m 478 -325 q 333 -300 390 -325 l 360 -171 q 440 -185 400 -185 q 528 -162 497 -185 q 568 -89 558 -139 l 594 35 l 315 596 l 189 0 l 1 0 l 190 894 l 353 894 l 650 299 l 776 894 l 964 894 l 751 -107 q 662 -265 731 -204 q 478 -325 593 -325 z "},"Ṉ":{"ha":933,"x_min":1,"x_max":964,"o":"m 1 0 l 190 894 l 353 894 l 650 299 l 776 894 l 964 894 l 775 0 l 613 0 l 315 596 l 189 0 l 1 0 m 135 -215 l 158 -100 l 585 -100 l 561 -215 l 135 -215 z "},"Ñ":{"ha":933,"x_min":1,"x_max":964,"o":"m 725 972 q 649 986 685 972 q 580 1014 613 1000 q 513 1028 547 1028 q 376 976 436 1028 l 406 1110 q 464 1141 429 1129 q 535 1153 499 1153 q 611 1139 578 1153 q 676 1111 644 1125 q 747 1097 708 1097 q 874 1150 825 1097 l 844 1017 q 796 985 828 999 q 725 972 764 972 m 1 0 l 190 894 l 353 894 l 650 299 l 776 894 l 964 894 l 775 0 l 613 0 l 315 596 l 189 0 l 1 0 z "},"O":{"ha":972,"x_min":18,"x_max":989,"o":"m 404 -14 q 108 99 199 -14 q 67 443 18 213 q 247 799 119 689 q 601 908 374 908 q 901 799 813 908 q 936 443 989 689 q 760 99 888 213 q 404 -14 632 -14 m 439 146 q 639 219 565 146 q 746 443 713 292 q 763 625 771 558 q 708 720 756 692 q 567 749 661 749 q 366 680 440 749 q 257 443 292 611 q 263 216 225 286 q 439 146 301 146 z "},"Ó":{"ha":972,"x_min":18,"x_max":989,"o":"m 525 956 l 692 1215 l 854 1215 l 676 956 l 525 956 m 404 -14 q 108 99 199 -14 q 67 443 18 213 q 247 799 119 689 q 601 908 374 908 q 901 799 813 908 q 936 443 989 689 q 760 99 888 213 q 404 -14 632 -14 m 439 146 q 639 219 565 146 q 746 443 713 292 q 763 625 771 558 q 708 720 756 692 q 567 749 661 749 q 366 680 440 749 q 257 443 292 611 q 263 216 225 286 q 439 146 301 146 z "},"Ŏ":{"ha":972,"x_min":18,"x_max":989,"o":"m 610 956 q 466 1014 514 956 q 440 1174 418 1072 l 557 1174 q 559 1097 547 1131 q 626 1064 571 1064 q 706 1097 675 1064 q 746 1174 736 1131 l 878 1174 q 789 1014 856 1072 q 610 956 722 956 m 404 -14 q 108 99 199 -14 q 67 443 18 213 q 247 799 119 689 q 601 908 374 908 q 901 799 813 908 q 936 443 989 689 q 760 99 888 213 q 404 -14 632 -14 m 439 146 q 639 219 565 146 q 746 443 713 292 q 763 625 771 558 q 708 720 756 692 q 567 749 661 749 q 366 680 440 749 q 257 443 292 611 q 263 216 225 286 q 439 146 301 146 z "},"Ǒ":{"ha":972,"x_min":18,"x_max":989,"o":"m 551 956 l 417 1197 l 556 1197 l 625 1058 l 758 1197 l 910 1197 l 671 956 l 551 956 m 404 -14 q 108 99 199 -14 q 67 443 18 213 q 247 799 119 689 q 601 908 374 908 q 901 799 813 908 q 936 443 989 689 q 760 99 888 213 q 404 -14 632 -14 m 439 146 q 639 219 565 146 q 746 443 713 292 q 763 625 771 558 q 708 720 756 692 q 567 749 661 749 q 366 680 440 749 q 257 443 292 611 q 263 216 225 286 q 439 146 301 146 z "},"Ô":{"ha":972,"x_min":18,"x_max":989,"o":"m 365 956 l 603 1197 l 722 1197 l 858 956 l 721 956 l 647 1094 l 518 956 l 365 956 m 404 -14 q 108 99 199 -14 q 67 443 18 213 q 247 799 119 689 q 601 908 374 908 q 901 799 813 908 q 936 443 989 689 q 760 99 888 213 q 404 -14 632 -14 m 439 146 q 639 219 565 146 q 746 443 713 292 q 763 625 771 558 q 708 720 756 692 q 567 749 661 749 q 366 680 440 749 q 257 443 292 611 q 263 216 225 286 q 439 146 301 146 z "},"Ố":{"ha":972,"x_min":18,"x_max":1064,"o":"m 790 1117 l 922 1313 l 1064 1313 l 921 1117 l 790 1117 m 368 954 l 582 1142 l 725 1142 l 861 954 l 717 954 l 646 1067 l 529 954 l 368 954 m 404 -14 q 108 99 199 -14 q 67 443 18 213 q 247 799 119 689 q 601 908 374 908 q 901 799 813 908 q 936 443 989 689 q 760 99 888 213 q 404 -14 632 -14 m 439 146 q 639 219 565 146 q 746 443 713 292 q 763 625 771 558 q 708 720 756 692 q 567 749 661 749 q 366 680 440 749 q 257 443 292 611 q 263 216 225 286 q 439 146 301 146 z "},"Ộ":{"ha":972,"x_min":18,"x_max":989,"o":"m 368 969 l 606 1211 l 725 1211 l 861 969 l 724 969 l 650 1108 l 521 969 l 368 969 m 404 -14 q 108 99 199 -14 q 67 443 18 213 q 247 799 119 689 q 601 908 374 908 q 901 799 813 908 q 936 443 989 689 q 760 99 888 213 q 404 -14 632 -14 m 439 146 q 639 219 565 146 q 746 443 713 292 q 763 625 771 558 q 708 720 756 692 q 567 749 661 749 q 366 680 440 749 q 257 443 292 611 q 263 216 225 286 q 439 146 301 146 m 282 -251 l 311 -114 l 460 -114 l 431 -251 l 282 -251 z "},"Ồ":{"ha":972,"x_min":18,"x_max":989,"o":"m 369 1117 l 310 1313 l 451 1313 l 501 1117 l 369 1117 m 361 954 l 575 1142 l 718 1142 l 854 954 l 710 954 l 639 1067 l 522 954 l 361 954 m 404 -14 q 108 99 199 -14 q 67 443 18 213 q 247 799 119 689 q 601 908 374 908 q 901 799 813 908 q 936 443 989 689 q 760 99 888 213 q 404 -14 632 -14 m 439 146 q 639 219 565 146 q 746 443 713 292 q 763 625 771 558 q 708 720 756 692 q 567 749 661 749 q 366 680 440 749 q 257 443 292 611 q 263 216 225 286 q 439 146 301 146 z "},"Ổ":{"ha":972,"x_min":18,"x_max":1065,"o":"m 788 1086 l 808 1183 q 894 1198 872 1186 q 921 1232 917 1210 q 867 1269 928 1269 q 826 1265 846 1269 q 789 1253 807 1260 l 808 1339 q 859 1351 832 1346 q 925 1356 886 1356 q 1032 1324 999 1356 q 1054 1243 1065 1293 q 1013 1169 1044 1197 q 925 1133 982 1142 l 915 1086 l 788 1086 m 360 954 l 574 1142 l 717 1142 l 853 954 l 708 954 l 638 1067 l 521 954 l 360 954 m 404 -14 q 108 99 199 -14 q 67 443 18 213 q 247 799 119 689 q 601 908 374 908 q 901 799 813 908 q 936 443 989 689 q 760 99 888 213 q 404 -14 632 -14 m 439 146 q 639 219 565 146 q 746 443 713 292 q 763 625 771 558 q 708 720 756 692 q 567 749 661 749 q 366 680 440 749 q 257 443 292 611 q 263 216 225 286 q 439 146 301 146 z "},"Ỗ":{"ha":972,"x_min":18,"x_max":989,"o":"m 778 1164 q 701 1178 738 1164 q 633 1206 665 1192 q 565 1219 600 1219 q 429 1168 489 1219 l 456 1288 q 513 1319 478 1307 q 585 1331 549 1331 q 661 1317 628 1331 q 726 1289 694 1303 q 797 1275 758 1275 q 869 1289 838 1275 q 922 1328 900 1303 l 896 1208 q 848 1177 879 1190 q 778 1164 817 1164 m 360 954 l 574 1142 l 717 1142 l 853 954 l 708 954 l 638 1067 l 521 954 l 360 954 m 404 -14 q 108 99 199 -14 q 67 443 18 213 q 247 799 119 689 q 601 908 374 908 q 901 799 813 908 q 936 443 989 689 q 760 99 888 213 q 404 -14 632 -14 m 439 146 q 639 219 565 146 q 746 443 713 292 q 763 625 771 558 q 708 720 756 692 q 567 749 661 749 q 366 680 440 749 q 257 443 292 611 q 263 216 225 286 q 439 146 301 146 z "},"Ö":{"ha":972,"x_min":18,"x_max":989,"o":"m 410 990 l 439 1126 l 585 1126 l 556 990 l 410 990 m 681 990 l 710 1126 l 857 1126 l 828 990 l 681 990 m 404 -14 q 108 99 199 -14 q 67 443 18 213 q 247 799 119 689 q 601 908 374 908 q 901 799 813 908 q 936 443 989 689 q 760 99 888 213 q 404 -14 632 -14 m 439 146 q 639 219 565 146 q 746 443 713 292 q 763 625 771 558 q 708 720 756 692 q 567 749 661 749 q 366 680 440 749 q 257 443 292 611 q 263 216 225 286 q 439 146 301 146 z "},"Ọ":{"ha":972,"x_min":18,"x_max":989,"o":"m 404 -14 q 108 99 199 -14 q 67 443 18 213 q 247 799 119 689 q 601 908 374 908 q 901 799 813 908 q 936 443 989 689 q 760 99 888 213 q 404 -14 632 -14 m 439 146 q 639 219 565 146 q 746 443 713 292 q 763 625 771 558 q 708 720 756 692 q 567 749 661 749 q 366 680 440 749 q 257 443 292 611 q 263 216 225 286 q 439 146 301 146 m 282 -251 l 311 -114 l 460 -114 l 431 -251 l 282 -251 z "},"Ò":{"ha":972,"x_min":18,"x_max":989,"o":"m 543 956 l 476 1215 l 639 1215 l 694 956 l 543 956 m 404 -14 q 108 99 199 -14 q 67 443 18 213 q 247 799 119 689 q 601 908 374 908 q 901 799 813 908 q 936 443 989 689 q 760 99 888 213 q 404 -14 632 -14 m 439 146 q 639 219 565 146 q 746 443 713 292 q 763 625 771 558 q 708 720 756 692 q 567 749 661 749 q 366 680 440 749 q 257 443 292 611 q 263 216 225 286 q 439 146 301 146 z "},"Ỏ":{"ha":972,"x_min":18,"x_max":989,"o":"m 540 954 l 564 1067 q 669 1087 642 1071 q 703 1133 697 1103 q 687 1174 710 1161 q 619 1188 664 1188 q 574 1183 600 1188 q 529 1172 549 1179 l 550 1265 q 692 1283 607 1283 q 819 1247 781 1283 q 846 1150 858 1211 q 800 1061 833 1092 q 697 1018 767 1031 l 683 954 l 540 954 m 404 -14 q 108 99 199 -14 q 67 443 18 213 q 247 799 119 689 q 601 908 374 908 q 901 799 813 908 q 936 443 989 689 q 760 99 888 213 q 404 -14 632 -14 m 439 146 q 639 219 565 146 q 746 443 713 292 q 763 625 771 558 q 708 720 756 692 q 567 749 661 749 q 366 680 440 749 q 257 443 292 611 q 263 216 225 286 q 439 146 301 146 z "},"Ơ":{"ha":1085,"x_min":18,"x_max":1190,"o":"m 404 -14 q 108 99 199 -14 q 67 443 18 213 q 247 799 119 689 q 601 908 374 908 q 778 883 704 908 q 894 806 851 858 q 1001 841 965 808 q 1056 956 1038 874 l 1190 956 q 1104 765 1163 825 q 947 689 1046 704 q 954 578 957 639 q 936 443 951 517 q 760 99 888 213 q 404 -14 632 -14 m 439 146 q 639 219 565 146 q 746 443 713 292 q 763 625 771 558 q 708 720 756 692 q 567 749 661 749 q 366 680 440 749 q 257 443 292 611 q 263 216 225 286 q 439 146 301 146 z "},"Ớ":{"ha":1085,"x_min":18,"x_max":1190,"o":"m 549 956 l 715 1215 l 878 1215 l 700 956 l 549 956 m 404 -14 q 108 99 199 -14 q 67 443 18 213 q 247 799 119 689 q 601 908 374 908 q 778 883 704 908 q 894 806 851 858 q 1001 841 965 808 q 1056 956 1038 874 l 1190 956 q 1104 765 1163 825 q 947 689 1046 704 q 954 578 957 639 q 936 443 951 517 q 760 99 888 213 q 404 -14 632 -14 m 439 146 q 639 219 565 146 q 746 443 713 292 q 763 625 771 558 q 708 720 756 692 q 567 749 661 749 q 366 680 440 749 q 257 443 292 611 q 263 216 225 286 q 439 146 301 146 z "},"Ợ":{"ha":1085,"x_min":18,"x_max":1190,"o":"m 404 -14 q 108 99 199 -14 q 67 443 18 213 q 247 799 119 689 q 601 908 374 908 q 778 883 704 908 q 894 806 851 858 q 1001 841 965 808 q 1056 956 1038 874 l 1190 956 q 1104 765 1163 825 q 947 689 1046 704 q 954 578 957 639 q 936 443 951 517 q 760 99 888 213 q 404 -14 632 -14 m 439 146 q 639 219 565 146 q 746 443 713 292 q 763 625 771 558 q 708 720 756 692 q 567 749 661 749 q 366 680 440 749 q 257 443 292 611 q 263 216 225 286 q 439 146 301 146 m 286 -251 l 315 -114 l 464 -114 l 435 -251 l 286 -251 z "},"Ờ":{"ha":1085,"x_min":18,"x_max":1190,"o":"m 571 956 l 504 1215 l 667 1215 l 722 956 l 571 956 m 404 -14 q 108 99 199 -14 q 67 443 18 213 q 247 799 119 689 q 601 908 374 908 q 778 883 704 908 q 894 806 851 858 q 1001 841 965 808 q 1056 956 1038 874 l 1190 956 q 1104 765 1163 825 q 947 689 1046 704 q 954 578 957 639 q 936 443 951 517 q 760 99 888 213 q 404 -14 632 -14 m 439 146 q 639 219 565 146 q 746 443 713 292 q 763 625 771 558 q 708 720 756 692 q 567 749 661 749 q 366 680 440 749 q 257 443 292 611 q 263 216 225 286 q 439 146 301 146 z "},"Ở":{"ha":1085,"x_min":18,"x_max":1190,"o":"m 546 954 l 569 1067 q 675 1087 647 1071 q 708 1133 703 1103 q 692 1174 715 1161 q 625 1188 669 1188 q 580 1183 606 1188 q 535 1172 554 1179 l 556 1265 q 697 1283 613 1283 q 825 1247 786 1283 q 851 1150 864 1211 q 806 1061 839 1092 q 703 1018 772 1031 l 689 954 l 546 954 m 404 -14 q 108 99 199 -14 q 67 443 18 213 q 247 799 119 689 q 601 908 374 908 q 778 883 704 908 q 894 806 851 858 q 1001 841 965 808 q 1056 956 1038 874 l 1190 956 q 1104 765 1163 825 q 947 689 1046 704 q 954 578 957 639 q 936 443 951 517 q 760 99 888 213 q 404 -14 632 -14 m 439 146 q 639 219 565 146 q 746 443 713 292 q 763 625 771 558 q 708 720 756 692 q 567 749 661 749 q 366 680 440 749 q 257 443 292 611 q 263 216 225 286 q 439 146 301 146 z "},"Ỡ":{"ha":1085,"x_min":18,"x_max":1190,"o":"m 749 968 q 672 982 708 968 q 603 1010 636 996 q 536 1024 571 1024 q 400 972 460 1024 l 429 1106 q 488 1137 453 1125 q 558 1149 522 1149 q 635 1135 601 1149 q 700 1107 668 1121 q 771 1093 732 1093 q 897 1146 849 1093 l 868 1013 q 819 981 851 994 q 749 968 788 968 m 404 -14 q 108 99 199 -14 q 67 443 18 213 q 247 799 119 689 q 601 908 374 908 q 778 883 704 908 q 894 806 851 858 q 1001 841 965 808 q 1056 956 1038 874 l 1190 956 q 1104 765 1163 825 q 947 689 1046 704 q 954 578 957 639 q 936 443 951 517 q 760 99 888 213 q 404 -14 632 -14 m 439 146 q 639 219 565 146 q 746 443 713 292 q 763 625 771 558 q 708 720 756 692 q 567 749 661 749 q 366 680 440 749 q 257 443 292 611 q 263 216 225 286 q 439 146 301 146 z "},"Ő":{"ha":972,"x_min":18,"x_max":989,"o":"m 339 954 l 501 1199 l 667 1199 l 488 954 l 339 954 m 654 954 l 817 1199 l 983 1199 l 803 954 l 654 954 m 404 -14 q 108 99 199 -14 q 67 443 18 213 q 247 799 119 689 q 601 908 374 908 q 901 799 813 908 q 936 443 989 689 q 760 99 888 213 q 404 -14 632 -14 m 439 146 q 639 219 565 146 q 746 443 713 292 q 763 625 771 558 q 708 720 756 692 q 567 749 661 749 q 366 680 440 749 q 257 443 292 611 q 263 216 225 286 q 439 146 301 146 z "},"Ō":{"ha":972,"x_min":18,"x_max":989,"o":"m 404 1004 l 428 1119 l 854 1119 l 831 1004 l 404 1004 m 404 -14 q 108 99 199 -14 q 67 443 18 213 q 247 799 119 689 q 601 908 374 908 q 901 799 813 908 q 936 443 989 689 q 760 99 888 213 q 404 -14 632 -14 m 439 146 q 639 219 565 146 q 746 443 713 292 q 763 625 771 558 q 708 720 756 692 q 567 749 661 749 q 366 680 440 749 q 257 443 292 611 q 263 216 225 286 q 439 146 301 146 z "},"Ø":{"ha":972,"x_min":32,"x_max":974,"o":"m 129 -74 l 190 31 q 65 182 99 79 q 67 443 32 285 q 247 799 119 689 q 601 908 374 908 q 707 900 660 908 l 744 963 l 851 963 l 799 874 q 938 726 901 831 q 936 443 974 621 q 760 99 888 213 q 404 -14 632 -14 q 279 -1 336 -14 l 236 -74 l 129 -74 m 285 189 l 615 746 q 592 748 604 747 q 567 749 581 749 q 366 680 440 749 q 257 443 292 611 q 243 285 238 347 q 285 189 249 222 m 439 146 q 639 219 565 146 q 746 443 713 292 q 763 624 771 558 q 707 719 756 690 l 369 151 q 402 147 385 149 q 439 146 419 146 z "},"Ǿ":{"ha":972,"x_min":32,"x_max":974,"o":"m 499 956 l 665 1215 l 828 1215 l 650 956 l 499 956 m 129 -74 l 190 31 q 65 182 99 79 q 67 443 32 285 q 247 799 119 689 q 601 908 374 908 q 707 900 660 908 l 744 963 l 851 963 l 799 874 q 938 726 901 831 q 936 443 974 621 q 760 99 888 213 q 404 -14 632 -14 q 279 -1 336 -14 l 236 -74 l 129 -74 m 285 189 l 615 746 q 592 748 604 747 q 567 749 581 749 q 366 680 440 749 q 257 443 292 611 q 243 285 238 347 q 285 189 249 222 m 439 146 q 639 219 565 146 q 746 443 713 292 q 763 624 771 558 q 707 719 756 690 l 369 151 q 402 147 385 149 q 439 146 419 146 z "},"Õ":{"ha":972,"x_min":18,"x_max":989,"o":"m 738 986 q 661 1000 697 986 q 592 1028 625 1014 q 525 1042 560 1042 q 389 990 449 1042 l 418 1124 q 476 1155 442 1143 q 547 1167 511 1167 q 624 1153 590 1167 q 689 1125 657 1139 q 760 1111 721 1111 q 886 1164 838 1111 l 857 1031 q 808 999 840 1013 q 738 986 776 986 m 404 -14 q 108 99 199 -14 q 67 443 18 213 q 247 799 119 689 q 601 908 374 908 q 901 799 813 908 q 936 443 989 689 q 760 99 888 213 q 404 -14 632 -14 m 439 146 q 639 219 565 146 q 746 443 713 292 q 763 625 771 558 q 708 720 756 692 q 567 749 661 749 q 366 680 440 749 q 257 443 292 611 q 263 216 225 286 q 439 146 301 146 z "},"Œ":{"ha":1428,"x_min":18,"x_max":1486,"o":"m 404 -14 q 108 99 199 -14 q 67 443 18 213 q 247 799 119 689 q 601 908 374 908 q 836 856 751 908 l 844 894 l 1486 894 l 1456 749 l 1001 749 l 953 519 l 1356 519 l 1325 375 l 922 375 l 874 144 l 1328 144 l 1297 0 l 656 0 l 664 36 q 404 -14 556 -14 m 439 146 q 639 219 565 146 q 746 443 713 292 q 763 625 771 558 q 708 720 756 692 q 567 749 661 749 q 366 680 440 749 q 257 443 292 611 q 263 216 225 286 q 439 146 301 146 z "},"P":{"ha":831,"x_min":1,"x_max":869,"o":"m 1 0 l 190 894 l 599 894 q 763 852 701 894 q 847 740 825 810 q 851 586 869 669 q 733 365 822 450 q 482 281 643 281 l 247 281 l 189 0 l 1 0 m 279 429 l 467 429 q 602 472 556 429 q 663 586 649 514 q 656 705 679 664 q 542 746 633 746 l 347 746 l 279 429 z "},"Þ":{"ha":858,"x_min":1,"x_max":842,"o":"m 1 0 l 190 894 l 378 894 l 349 753 l 581 753 q 740 713 681 753 q 821 603 800 672 q 822 444 842 533 q 701 224 793 308 q 444 139 610 139 l 218 139 l 189 0 l 1 0 m 249 288 l 436 288 q 572 330 525 288 q 633 444 618 372 q 625 563 649 522 q 511 604 601 604 l 317 604 l 249 288 z "},"Q":{"ha":972,"x_min":24,"x_max":989,"o":"m 483 -239 q 338 -178 382 -239 q 314 -7 293 -118 q 89 128 154 17 q 67 443 24 240 q 247 799 119 689 q 601 908 374 908 q 901 799 813 908 q 936 443 989 689 q 778 117 890 231 q 471 -11 667 4 q 478 -86 461 -67 q 554 -106 494 -106 q 606 -101 578 -106 q 657 -90 633 -97 l 629 -221 q 563 -233 603 -228 q 483 -239 524 -239 m 439 146 q 639 219 565 146 q 746 443 713 292 q 763 625 771 558 q 708 720 756 692 q 567 749 661 749 q 366 680 440 749 q 257 443 292 611 q 263 216 225 286 q 439 146 301 146 z "},"R":{"ha":858,"x_min":1,"x_max":885,"o":"m 1 0 l 190 894 l 619 894 q 823 813 761 894 q 854 594 885 732 q 777 438 836 504 q 624 344 718 371 q 651 306 642 326 q 667 250 660 285 l 722 0 l 528 0 l 472 240 q 451 283 465 271 q 399 296 438 296 l 251 296 l 189 0 l 1 0 m 285 451 l 478 451 q 600 484 551 451 q 664 594 649 517 q 658 704 681 669 q 550 739 635 739 l 346 739 l 285 451 z "},"Ŕ":{"ha":858,"x_min":1,"x_max":885,"o":"m 449 956 l 615 1215 l 778 1215 l 600 956 l 449 956 m 1 0 l 190 894 l 619 894 q 823 813 761 894 q 854 594 885 732 q 777 438 836 504 q 624 344 718 371 q 651 306 642 326 q 667 250 660 285 l 722 0 l 528 0 l 472 240 q 451 283 465 271 q 399 296 438 296 l 251 296 l 189 0 l 1 0 m 285 451 l 478 451 q 600 484 551 451 q 664 594 649 517 q 658 704 681 669 q 550 739 635 739 l 346 739 l 285 451 z "},"Ř":{"ha":858,"x_min":1,"x_max":885,"o":"m 483 956 l 349 1197 l 488 1197 l 557 1058 l 690 1197 l 842 1197 l 603 956 l 483 956 m 1 0 l 190 894 l 619 894 q 823 813 761 894 q 854 594 885 732 q 777 438 836 504 q 624 344 718 371 q 651 306 642 326 q 667 250 660 285 l 722 0 l 528 0 l 472 240 q 451 283 465 271 q 399 296 438 296 l 251 296 l 189 0 l 1 0 m 285 451 l 478 451 q 600 484 551 451 q 664 594 649 517 q 658 704 681 669 q 550 739 635 739 l 346 739 l 285 451 z "},"Ŗ":{"ha":858,"x_min":1,"x_max":885,"o":"m 1 0 l 190 894 l 619 894 q 823 813 761 894 q 854 594 885 732 q 777 438 836 504 q 624 344 718 371 q 651 306 642 326 q 667 250 660 285 l 722 0 l 528 0 l 472 240 q 451 283 465 271 q 399 296 438 296 l 251 296 l 189 0 l 1 0 m 285 451 l 478 451 q 600 484 551 451 q 664 594 649 517 q 658 704 681 669 q 550 739 635 739 l 346 739 l 285 451 m 151 -331 l 253 -51 l 400 -51 l 271 -331 l 151 -331 z "},"Ṛ":{"ha":858,"x_min":1,"x_max":885,"o":"m 1 0 l 190 894 l 619 894 q 823 813 761 894 q 854 594 885 732 q 777 438 836 504 q 624 344 718 371 q 651 306 642 326 q 667 250 660 285 l 722 0 l 528 0 l 472 240 q 451 283 465 271 q 399 296 438 296 l 251 296 l 189 0 l 1 0 m 285 451 l 478 451 q 600 484 551 451 q 664 594 649 517 q 658 704 681 669 q 550 739 635 739 l 346 739 l 285 451 m 228 -251 l 257 -114 l 406 -114 l 376 -251 l 228 -251 z "},"Ṝ":{"ha":858,"x_min":1,"x_max":885,"o":"m 331 996 l 354 1111 l 781 1111 l 757 996 l 331 996 m 1 0 l 190 894 l 619 894 q 823 813 761 894 q 854 594 885 732 q 777 438 836 504 q 624 344 718 371 q 651 306 642 326 q 667 250 660 285 l 722 0 l 528 0 l 472 240 q 451 283 465 271 q 399 296 438 296 l 251 296 l 189 0 l 1 0 m 285 451 l 478 451 q 600 484 551 451 q 664 594 649 517 q 658 704 681 669 q 550 739 635 739 l 346 739 l 285 451 m 204 -251 l 233 -114 l 382 -114 l 353 -251 l 204 -251 z "},"Ṟ":{"ha":858,"x_min":1,"x_max":885,"o":"m 1 0 l 190 894 l 619 894 q 823 813 761 894 q 854 594 885 732 q 777 438 836 504 q 624 344 718 371 q 651 306 642 326 q 667 250 660 285 l 722 0 l 528 0 l 472 240 q 451 283 465 271 q 399 296 438 296 l 251 296 l 189 0 l 1 0 m 285 451 l 478 451 q 600 484 551 451 q 664 594 649 517 q 658 704 681 669 q 550 739 635 739 l 346 739 l 285 451 m 78 -215 l 101 -100 l 528 -100 l 504 -215 l 78 -215 z "},"S":{"ha":772,"x_min":-3,"x_max":774,"o":"m 275 -14 q 117 -1 189 -14 q -3 35 46 11 l 32 200 q 156 160 88 175 q 292 144 224 144 q 438 163 389 144 q 501 244 488 181 q 495 308 510 285 q 437 351 481 332 q 311 393 393 369 q 134 490 179 432 q 111 651 89 549 q 234 842 138 775 q 519 908 331 908 q 667 897 600 908 q 774 871 735 886 l 738 706 q 510 749 635 749 q 368 730 422 749 q 301 651 314 711 q 308 596 294 617 q 362 558 321 575 q 476 521 403 542 q 631 451 581 492 q 694 360 682 411 q 693 244 707 308 q 633 108 676 167 q 503 18 589 50 q 275 -14 418 -14 z "},"Ś":{"ha":772,"x_min":-3,"x_max":774,"o":"m 421 964 l 588 1224 l 750 1224 l 572 964 l 421 964 m 275 -14 q 117 -1 189 -14 q -3 35 46 11 l 32 200 q 156 160 88 175 q 292 144 224 144 q 438 163 389 144 q 501 244 488 181 q 495 308 510 285 q 437 351 481 332 q 311 393 393 369 q 134 490 179 432 q 111 651 89 549 q 234 842 138 775 q 519 908 331 908 q 667 897 600 908 q 774 871 735 886 l 738 706 q 510 749 635 749 q 368 730 422 749 q 301 651 314 711 q 308 596 294 617 q 362 558 321 575 q 476 521 403 542 q 631 451 581 492 q 694 360 682 411 q 693 244 707 308 q 633 108 676 167 q 503 18 589 50 q 275 -14 418 -14 z "},"Š":{"ha":772,"x_min":-3,"x_max":819,"o":"m 461 956 l 326 1197 l 465 1197 l 535 1058 l 668 1197 l 819 1197 l 581 956 l 461 956 m 275 -14 q 117 -1 189 -14 q -3 35 46 11 l 32 200 q 156 160 88 175 q 292 144 224 144 q 438 163 389 144 q 501 244 488 181 q 495 308 510 285 q 437 351 481 332 q 311 393 393 369 q 134 490 179 432 q 111 651 89 549 q 234 842 138 775 q 519 908 331 908 q 667 897 600 908 q 774 871 735 886 l 738 706 q 510 749 635 749 q 368 730 422 749 q 301 651 314 711 q 308 596 294 617 q 362 558 321 575 q 476 521 403 542 q 631 451 581 492 q 694 360 682 411 q 693 244 707 308 q 633 108 676 167 q 503 18 589 50 q 275 -14 418 -14 z "},"Ş":{"ha":772,"x_min":-3,"x_max":774,"o":"m 196 -333 q 140 -330 172 -333 q 93 -322 108 -326 l 114 -228 q 196 -239 151 -239 q 284 -230 257 -239 q 317 -187 311 -221 q 297 -144 324 -151 q 222 -136 271 -136 l 161 -136 l 222 -12 q 97 2 154 -10 q -3 35 39 14 l 32 200 q 156 160 88 175 q 292 144 224 144 q 438 163 389 144 q 501 244 488 181 q 495 308 510 285 q 437 351 481 332 q 311 393 393 369 q 134 490 179 432 q 111 651 89 549 q 234 842 138 775 q 519 908 331 908 q 667 897 600 908 q 774 871 735 886 l 738 706 q 510 749 635 749 q 368 730 422 749 q 301 651 314 711 q 308 596 294 617 q 362 558 321 575 q 476 521 403 542 q 631 451 581 492 q 694 360 682 411 q 693 244 707 308 q 640 118 678 172 q 532 31 603 64 q 344 -11 461 -3 l 317 -62 q 419 -97 390 -62 q 438 -189 449 -131 q 364 -295 424 -257 q 196 -333 304 -333 z "},"Ŝ":{"ha":772,"x_min":-3,"x_max":774,"o":"m 258 978 l 496 1219 l 615 1219 l 751 978 l 614 978 l 540 1117 l 411 978 l 258 978 m 275 -14 q 117 -1 189 -14 q -3 35 46 11 l 32 200 q 156 160 88 175 q 292 144 224 144 q 438 163 389 144 q 501 244 488 181 q 495 308 510 285 q 437 351 481 332 q 311 393 393 369 q 134 490 179 432 q 111 651 89 549 q 234 842 138 775 q 519 908 331 908 q 667 897 600 908 q 774 871 735 886 l 738 706 q 510 749 635 749 q 368 730 422 749 q 301 651 314 711 q 308 596 294 617 q 362 558 321 575 q 476 521 403 542 q 631 451 581 492 q 694 360 682 411 q 693 244 707 308 q 633 108 676 167 q 503 18 589 50 q 275 -14 418 -14 z "},"Ș":{"ha":772,"x_min":-3,"x_max":774,"o":"m 275 -14 q 117 -1 189 -14 q -3 35 46 11 l 32 200 q 156 160 88 175 q 292 144 224 144 q 438 163 389 144 q 501 244 488 181 q 495 308 510 285 q 437 351 481 332 q 311 393 393 369 q 134 490 179 432 q 111 651 89 549 q 234 842 138 775 q 519 908 331 908 q 667 897 600 908 q 774 871 735 886 l 738 706 q 510 749 635 749 q 368 730 422 749 q 301 651 314 711 q 308 596 294 617 q 362 558 321 575 q 476 521 403 542 q 631 451 581 492 q 694 360 682 411 q 693 244 707 308 q 633 108 676 167 q 503 18 589 50 q 275 -14 418 -14 m 126 -314 l 219 -65 l 381 -65 l 269 -314 l 126 -314 z "},"Ṡ":{"ha":772,"x_min":-3,"x_max":774,"o":"m 436 990 l 465 1126 l 611 1126 l 582 990 l 436 990 m 275 -14 q 117 -1 189 -14 q -3 35 46 11 l 32 200 q 156 160 88 175 q 292 144 224 144 q 438 163 389 144 q 501 244 488 181 q 495 308 510 285 q 437 351 481 332 q 311 393 393 369 q 134 490 179 432 q 111 651 89 549 q 234 842 138 775 q 519 908 331 908 q 667 897 600 908 q 774 871 735 886 l 738 706 q 510 749 635 749 q 368 730 422 749 q 301 651 314 711 q 308 596 294 617 q 362 558 321 575 q 476 521 403 542 q 631 451 581 492 q 694 360 682 411 q 693 244 707 308 q 633 108 676 167 q 503 18 589 50 q 275 -14 418 -14 z "},"Ṣ":{"ha":772,"x_min":-3,"x_max":774,"o":"m 275 -14 q 117 -1 189 -14 q -3 35 46 11 l 32 200 q 156 160 88 175 q 292 144 224 144 q 438 163 389 144 q 501 244 488 181 q 495 308 510 285 q 437 351 481 332 q 311 393 393 369 q 134 490 179 432 q 111 651 89 549 q 234 842 138 775 q 519 908 331 908 q 667 897 600 908 q 774 871 735 886 l 738 706 q 510 749 635 749 q 368 730 422 749 q 301 651 314 711 q 308 596 294 617 q 362 558 321 575 q 476 521 403 542 q 631 451 581 492 q 694 360 682 411 q 693 244 707 308 q 633 108 676 167 q 503 18 589 50 q 275 -14 418 -14 m 176 -251 l 206 -114 l 354 -114 l 325 -251 l 176 -251 z "},"ẞ":{"ha":872,"x_min":-6,"x_max":857,"o":"m 463 -14 q 269 18 350 -14 l 303 176 q 377 154 335 163 q 460 146 419 146 q 570 175 531 146 q 621 260 610 204 q 607 334 632 313 q 513 356 582 356 l 382 356 l 413 503 l 671 644 q 667 699 678 674 q 622 740 657 725 q 518 756 588 756 q 368 713 422 756 q 296 588 314 671 l 172 0 l -6 0 l 117 579 q 255 822 150 735 q 551 908 360 908 q 738 867 668 908 q 832 755 807 825 q 839 601 857 685 l 594 471 l 629 471 q 730 444 688 471 q 791 368 772 417 q 796 257 810 319 q 737 119 779 181 q 626 22 694 58 q 463 -14 558 -14 z "},"Ə":{"ha":942,"x_min":26,"x_max":953,"o":"m 374 -14 q 171 33 251 -14 q 58 167 90 81 q 50 368 26 253 l 85 531 l 753 531 q 745 672 765 621 q 658 746 725 724 q 461 768 590 768 q 367 761 419 768 q 265 742 315 754 q 175 714 214 729 l 204 851 q 358 892 271 875 q 532 908 444 908 q 852 786 751 908 q 904 436 953 664 q 808 197 875 299 q 634 41 742 96 q 374 -14 526 -14 m 403 121 q 724 394 665 121 l 219 394 l 206 329 q 226 175 183 229 q 403 121 269 121 z "},"T":{"ha":783,"x_min":104,"x_max":871,"o":"m 221 0 l 379 750 l 104 750 l 135 894 l 871 894 l 840 750 l 567 750 l 408 0 l 221 0 z "},"Ŧ":{"ha":783,"x_min":104,"x_max":871,"o":"m 221 0 l 307 407 l 144 407 l 174 544 l 336 544 l 379 750 l 104 750 l 135 894 l 871 894 l 840 750 l 567 750 l 524 544 l 688 544 l 658 407 l 494 407 l 408 0 l 221 0 z "},"Ť":{"ha":783,"x_min":104,"x_max":871,"o":"m 461 978 l 326 1219 l 465 1219 l 535 1081 l 668 1219 l 819 1219 l 581 978 l 461 978 m 221 0 l 379 750 l 104 750 l 135 894 l 871 894 l 840 750 l 567 750 l 408 0 l 221 0 z "},"Ţ":{"ha":783,"x_min":104,"x_max":871,"o":"m 224 -333 q 168 -330 200 -333 q 121 -322 136 -326 l 142 -228 q 224 -239 179 -239 q 312 -230 285 -239 q 344 -187 339 -221 q 325 -144 351 -151 q 250 -136 299 -136 l 189 -136 l 257 0 l 221 0 l 379 750 l 104 750 l 135 894 l 871 894 l 840 750 l 567 750 l 408 0 l 379 0 l 344 -62 q 447 -97 418 -62 q 465 -189 476 -131 q 392 -295 451 -257 q 224 -333 332 -333 z "},"Ț":{"ha":767,"x_min":88,"x_max":854,"o":"m 204 0 l 363 750 l 88 750 l 118 894 l 854 894 l 824 750 l 550 750 l 392 0 l 204 0 m 114 -344 l 215 -65 l 363 -65 l 233 -344 l 114 -344 z "},"Ṭ":{"ha":783,"x_min":104,"x_max":871,"o":"m 221 0 l 379 750 l 104 750 l 135 894 l 871 894 l 840 750 l 567 750 l 408 0 l 221 0 m 186 -237 l 215 -100 l 364 -100 l 335 -237 l 186 -237 z "},"Ṯ":{"ha":783,"x_min":58,"x_max":871,"o":"m 221 0 l 379 750 l 104 750 l 135 894 l 871 894 l 840 750 l 567 750 l 408 0 l 221 0 m 58 -201 l 82 -86 l 508 -86 l 485 -201 l 58 -201 z "},"U":{"ha":944,"x_min":42,"x_max":982,"o":"m 390 -14 q 194 28 275 -14 q 77 148 113 69 q 65 336 42 226 l 183 894 l 371 894 l 256 350 q 268 191 232 236 q 425 146 304 146 q 597 197 538 146 q 679 350 657 247 l 794 894 l 982 894 l 864 336 q 710 73 826 160 q 390 -14 594 -14 z "},"Ú":{"ha":944,"x_min":42,"x_max":982,"o":"m 515 956 l 682 1215 l 844 1215 l 667 956 l 515 956 m 390 -14 q 194 28 275 -14 q 77 148 113 69 q 65 336 42 226 l 183 894 l 371 894 l 256 350 q 268 191 232 236 q 425 146 304 146 q 597 197 538 146 q 679 350 657 247 l 794 894 l 982 894 l 864 336 q 710 73 826 160 q 390 -14 594 -14 z "},"Ŭ":{"ha":944,"x_min":42,"x_max":982,"o":"m 588 956 q 444 1014 492 956 q 418 1174 396 1072 l 535 1174 q 537 1097 525 1131 q 604 1064 549 1064 q 683 1097 653 1064 q 724 1174 714 1131 l 856 1174 q 767 1014 833 1072 q 588 956 700 956 m 390 -14 q 194 28 275 -14 q 77 148 113 69 q 65 336 42 226 l 183 894 l 371 894 l 256 350 q 268 191 232 236 q 425 146 304 146 q 597 197 538 146 q 679 350 657 247 l 794 894 l 982 894 l 864 336 q 710 73 826 160 q 390 -14 594 -14 z "},"Ǔ":{"ha":944,"x_min":42,"x_max":982,"o":"m 538 956 l 403 1197 l 542 1197 l 611 1058 l 744 1197 l 896 1197 l 657 956 l 538 956 m 390 -14 q 194 28 275 -14 q 77 148 113 69 q 65 336 42 226 l 183 894 l 371 894 l 256 350 q 268 191 232 236 q 425 146 304 146 q 597 197 538 146 q 679 350 657 247 l 794 894 l 982 894 l 864 336 q 710 73 826 160 q 390 -14 594 -14 z "},"Û":{"ha":944,"x_min":42,"x_max":982,"o":"m 351 956 l 589 1197 l 708 1197 l 844 956 l 707 956 l 633 1094 l 504 956 l 351 956 m 390 -14 q 194 28 275 -14 q 77 148 113 69 q 65 336 42 226 l 183 894 l 371 894 l 256 350 q 268 191 232 236 q 425 146 304 146 q 597 197 538 146 q 679 350 657 247 l 794 894 l 982 894 l 864 336 q 710 73 826 160 q 390 -14 594 -14 z "},"Ü":{"ha":944,"x_min":42,"x_max":982,"o":"m 396 990 l 425 1126 l 571 1126 l 542 990 l 396 990 m 667 990 l 696 1126 l 843 1126 l 814 990 l 667 990 m 390 -14 q 194 28 275 -14 q 77 148 113 69 q 65 336 42 226 l 183 894 l 371 894 l 256 350 q 268 191 232 236 q 425 146 304 146 q 597 197 538 146 q 679 350 657 247 l 794 894 l 982 894 l 864 336 q 710 73 826 160 q 390 -14 594 -14 z "},"Ǘ":{"ha":944,"x_min":42,"x_max":982,"o":"m 560 1113 l 679 1292 l 821 1292 l 692 1113 l 560 1113 m 388 956 l 415 1085 l 554 1085 l 526 956 l 388 956 m 665 956 l 693 1085 l 833 1085 l 806 956 l 665 956 m 390 -14 q 194 28 275 -14 q 77 148 113 69 q 65 336 42 226 l 183 894 l 371 894 l 256 350 q 268 191 232 236 q 425 146 304 146 q 597 197 538 146 q 679 350 657 247 l 794 894 l 982 894 l 864 336 q 710 73 826 160 q 390 -14 594 -14 z "},"Ǚ":{"ha":944,"x_min":42,"x_max":982,"o":"m 565 1108 l 444 1276 l 576 1276 l 638 1175 l 743 1276 l 886 1276 l 694 1108 l 565 1108 m 388 956 l 415 1085 l 556 1085 l 528 956 l 388 956 m 667 956 l 694 1085 l 833 1085 l 806 956 l 667 956 m 390 -14 q 194 28 275 -14 q 77 148 113 69 q 65 336 42 226 l 183 894 l 371 894 l 256 350 q 268 191 232 236 q 425 146 304 146 q 597 197 538 146 q 679 350 657 247 l 794 894 l 982 894 l 864 336 q 710 73 826 160 q 390 -14 594 -14 z "},"Ǜ":{"ha":944,"x_min":42,"x_max":982,"o":"m 565 1113 l 511 1292 l 653 1292 l 697 1113 l 565 1113 m 386 956 l 414 1085 l 553 1085 l 525 956 l 386 956 m 664 956 l 692 1085 l 832 1085 l 804 956 l 664 956 m 390 -14 q 194 28 275 -14 q 77 148 113 69 q 65 336 42 226 l 183 894 l 371 894 l 256 350 q 268 191 232 236 q 425 146 304 146 q 597 197 538 146 q 679 350 657 247 l 794 894 l 982 894 l 864 336 q 710 73 826 160 q 390 -14 594 -14 z "},"Ǖ":{"ha":944,"x_min":42,"x_max":982,"o":"m 428 1167 l 451 1282 l 878 1282 l 854 1167 l 428 1167 m 392 975 l 421 1111 l 567 1111 l 538 975 l 392 975 m 663 975 l 692 1111 l 839 1111 l 810 975 l 663 975 m 390 -14 q 194 28 275 -14 q 77 148 113 69 q 65 336 42 226 l 183 894 l 371 894 l 256 350 q 268 191 232 236 q 425 146 304 146 q 597 197 538 146 q 679 350 657 247 l 794 894 l 982 894 l 864 336 q 710 73 826 160 q 390 -14 594 -14 z "},"Ụ":{"ha":944,"x_min":42,"x_max":982,"o":"m 390 -14 q 194 28 275 -14 q 77 148 113 69 q 65 336 42 226 l 183 894 l 371 894 l 256 350 q 268 191 232 236 q 425 146 304 146 q 597 197 538 146 q 679 350 657 247 l 794 894 l 982 894 l 864 336 q 710 73 826 160 q 390 -14 594 -14 m 267 -251 l 296 -114 l 444 -114 l 415 -251 l 267 -251 z "},"Ù":{"ha":944,"x_min":42,"x_max":982,"o":"m 538 956 l 471 1215 l 633 1215 l 689 956 l 538 956 m 390 -14 q 194 28 275 -14 q 77 148 113 69 q 65 336 42 226 l 183 894 l 371 894 l 256 350 q 268 191 232 236 q 425 146 304 146 q 597 197 538 146 q 679 350 657 247 l 794 894 l 982 894 l 864 336 q 710 73 826 160 q 390 -14 594 -14 z "},"Ủ":{"ha":944,"x_min":42,"x_max":982,"o":"m 524 954 l 547 1067 q 653 1087 625 1071 q 686 1133 681 1103 q 670 1174 693 1161 q 603 1188 647 1188 q 558 1183 583 1188 q 513 1172 532 1179 l 533 1265 q 675 1283 590 1283 q 803 1247 764 1283 q 829 1150 842 1211 q 783 1061 817 1092 q 681 1018 750 1031 l 667 954 l 524 954 m 390 -14 q 194 28 275 -14 q 77 148 113 69 q 65 336 42 226 l 183 894 l 371 894 l 256 350 q 268 191 232 236 q 425 146 304 146 q 597 197 538 146 q 679 350 657 247 l 794 894 l 982 894 l 864 336 q 710 73 826 160 q 390 -14 594 -14 z "},"Ư":{"ha":1165,"x_min":42,"x_max":1264,"o":"m 390 -14 q 194 28 275 -14 q 77 148 113 69 q 65 336 42 226 l 183 894 l 371 894 l 256 350 q 268 191 232 236 q 425 146 304 146 q 597 197 538 146 q 679 350 657 247 l 794 894 l 982 894 l 963 806 q 1077 840 1043 807 q 1129 956 1111 872 l 1264 956 q 1201 793 1242 853 q 1095 708 1160 733 q 936 681 1031 682 l 864 336 q 710 73 826 160 q 390 -14 594 -14 z "},"Ứ":{"ha":1165,"x_min":42,"x_max":1264,"o":"m 531 956 l 697 1215 l 860 1215 l 682 956 l 531 956 m 390 -14 q 194 28 275 -14 q 77 148 113 69 q 65 336 42 226 l 183 894 l 371 894 l 256 350 q 268 191 232 236 q 425 146 304 146 q 597 197 538 146 q 679 350 657 247 l 794 894 l 982 894 l 963 806 q 1077 840 1043 807 q 1129 956 1111 872 l 1264 956 q 1201 793 1242 853 q 1095 708 1160 733 q 936 681 1031 682 l 864 336 q 710 73 826 160 q 390 -14 594 -14 z "},"Ự":{"ha":1165,"x_min":42,"x_max":1264,"o":"m 390 -14 q 194 28 275 -14 q 77 148 113 69 q 65 336 42 226 l 183 894 l 371 894 l 256 350 q 268 191 232 236 q 425 146 304 146 q 597 197 538 146 q 679 350 657 247 l 794 894 l 982 894 l 963 806 q 1077 840 1043 807 q 1129 956 1111 872 l 1264 956 q 1201 793 1242 853 q 1095 708 1160 733 q 936 681 1031 682 l 864 336 q 710 73 826 160 q 390 -14 594 -14 m 265 -251 l 294 -114 l 443 -114 l 414 -251 l 265 -251 z "},"Ừ":{"ha":1165,"x_min":42,"x_max":1264,"o":"m 535 956 l 468 1215 l 631 1215 l 686 956 l 535 956 m 390 -14 q 194 28 275 -14 q 77 148 113 69 q 65 336 42 226 l 183 894 l 371 894 l 256 350 q 268 191 232 236 q 425 146 304 146 q 597 197 538 146 q 679 350 657 247 l 794 894 l 982 894 l 963 806 q 1077 840 1043 807 q 1129 956 1111 872 l 1264 956 q 1201 793 1242 853 q 1095 708 1160 733 q 936 681 1031 682 l 864 336 q 710 73 826 160 q 390 -14 594 -14 z "},"Ử":{"ha":1165,"x_min":42,"x_max":1264,"o":"m 532 954 l 556 1067 q 661 1087 633 1071 q 694 1133 689 1103 q 678 1174 701 1161 q 611 1188 656 1188 q 566 1183 592 1188 q 521 1172 540 1179 l 542 1265 q 683 1283 599 1283 q 811 1247 772 1283 q 838 1150 850 1211 q 792 1061 825 1092 q 689 1018 758 1031 l 675 954 l 532 954 m 390 -14 q 194 28 275 -14 q 77 148 113 69 q 65 336 42 226 l 183 894 l 371 894 l 256 350 q 268 191 232 236 q 425 146 304 146 q 597 197 538 146 q 679 350 657 247 l 794 894 l 982 894 l 963 806 q 1077 840 1043 807 q 1129 956 1111 872 l 1264 956 q 1201 793 1242 853 q 1095 708 1160 733 q 936 681 1031 682 l 864 336 q 710 73 826 160 q 390 -14 594 -14 z "},"Ữ":{"ha":1165,"x_min":42,"x_max":1264,"o":"m 719 968 q 643 982 679 968 q 574 1010 607 996 q 507 1024 542 1024 q 371 972 431 1024 l 400 1106 q 458 1137 424 1125 q 529 1149 493 1149 q 606 1135 572 1149 q 671 1107 639 1121 q 742 1093 703 1093 q 868 1146 819 1093 l 839 1013 q 790 981 822 994 q 719 968 758 968 m 390 -14 q 194 28 275 -14 q 77 148 113 69 q 65 336 42 226 l 183 894 l 371 894 l 256 350 q 268 191 232 236 q 425 146 304 146 q 597 197 538 146 q 679 350 657 247 l 794 894 l 982 894 l 963 806 q 1077 840 1043 807 q 1129 956 1111 872 l 1264 956 q 1201 793 1242 853 q 1095 708 1160 733 q 936 681 1031 682 l 864 336 q 710 73 826 160 q 390 -14 594 -14 z "},"Ű":{"ha":944,"x_min":42,"x_max":982,"o":"m 333 954 l 496 1199 l 661 1199 l 482 954 l 333 954 m 649 954 l 811 1199 l 978 1199 l 797 954 l 649 954 m 390 -14 q 194 28 275 -14 q 77 148 113 69 q 65 336 42 226 l 183 894 l 371 894 l 256 350 q 268 191 232 236 q 425 146 304 146 q 597 197 538 146 q 679 350 657 247 l 794 894 l 982 894 l 864 336 q 710 73 826 160 q 390 -14 594 -14 z "},"Ū":{"ha":944,"x_min":42,"x_max":982,"o":"m 394 1003 l 418 1118 l 844 1118 l 821 1003 l 394 1003 m 390 -14 q 194 28 275 -14 q 77 148 113 69 q 65 336 42 226 l 183 894 l 371 894 l 256 350 q 268 191 232 236 q 425 146 304 146 q 597 197 538 146 q 679 350 657 247 l 794 894 l 982 894 l 864 336 q 710 73 826 160 q 390 -14 594 -14 z "},"Ų":{"ha":944,"x_min":43,"x_max":982,"o":"m 375 -306 q 269 -274 311 -306 q 242 -179 228 -243 q 360 -12 264 -81 q 179 36 254 -7 q 74 155 104 79 q 65 336 43 231 l 183 894 l 371 894 l 256 350 q 268 191 232 236 q 425 146 304 146 q 597 197 538 146 q 679 350 657 247 l 794 894 l 982 894 l 864 336 q 746 103 832 189 q 511 -6 660 18 q 434 -71 465 -36 q 396 -144 403 -106 q 406 -185 390 -174 q 449 -196 421 -196 q 485 -192 465 -196 q 518 -181 504 -187 l 496 -286 q 442 -300 475 -294 q 375 -306 410 -306 z "},"Ů":{"ha":944,"x_min":42,"x_max":982,"o":"m 596 956 q 481 1003 517 956 q 460 1121 446 1051 q 528 1239 474 1190 q 665 1288 583 1288 q 783 1239 747 1288 q 804 1121 819 1190 q 736 1003 790 1051 q 596 956 682 956 m 614 1042 q 682 1065 658 1042 q 713 1121 706 1088 q 703 1177 719 1154 q 647 1200 686 1200 q 582 1177 607 1200 q 550 1121 557 1154 q 560 1065 543 1088 q 614 1042 578 1042 m 390 -14 q 194 28 275 -14 q 77 148 113 69 q 65 336 42 226 l 183 894 l 371 894 l 256 350 q 268 191 232 236 q 425 146 304 146 q 597 197 538 146 q 679 350 657 247 l 794 894 l 982 894 l 864 336 q 710 73 826 160 q 390 -14 594 -14 z "},"Ũ":{"ha":944,"x_min":42,"x_max":982,"o":"m 719 972 q 643 986 679 972 q 574 1014 607 1000 q 507 1028 542 1028 q 371 976 431 1028 l 400 1110 q 458 1141 424 1129 q 529 1153 493 1153 q 606 1139 572 1153 q 671 1111 639 1125 q 742 1097 703 1097 q 868 1150 819 1097 l 839 1017 q 790 985 822 999 q 719 972 758 972 m 390 -14 q 194 28 275 -14 q 77 148 113 69 q 65 336 42 226 l 183 894 l 371 894 l 256 350 q 268 191 232 236 q 425 146 304 146 q 597 197 538 146 q 679 350 657 247 l 794 894 l 982 894 l 864 336 q 710 73 826 160 q 390 -14 594 -14 z "},"V":{"ha":990,"x_min":163,"x_max":1050,"o":"m 315 0 l 163 894 l 353 894 l 456 210 l 849 894 l 1050 894 l 521 0 l 315 0 z "},"W":{"ha":1215,"x_min":163,"x_max":1275,"o":"m 182 0 l 163 894 l 347 894 l 354 290 l 604 778 l 628 894 l 781 894 l 825 289 l 1092 894 l 1275 894 l 879 0 l 707 0 l 664 572 l 367 0 l 182 0 z "},"Ẃ":{"ha":1215,"x_min":163,"x_max":1275,"o":"m 647 956 l 814 1215 l 976 1215 l 799 956 l 647 956 m 182 0 l 163 894 l 347 894 l 354 290 l 604 778 l 628 894 l 781 894 l 825 289 l 1092 894 l 1275 894 l 879 0 l 707 0 l 664 572 l 367 0 l 182 0 z "},"Ŵ":{"ha":1215,"x_min":163,"x_max":1275,"o":"m 494 956 l 732 1197 l 851 1197 l 988 956 l 850 956 l 776 1094 l 647 956 l 494 956 m 182 0 l 163 894 l 347 894 l 354 290 l 604 778 l 628 894 l 781 894 l 825 289 l 1092 894 l 1275 894 l 879 0 l 707 0 l 664 572 l 367 0 l 182 0 z "},"Ẅ":{"ha":1215,"x_min":163,"x_max":1275,"o":"m 539 990 l 568 1126 l 714 1126 l 685 990 l 539 990 m 810 990 l 839 1126 l 986 1126 l 957 990 l 810 990 m 182 0 l 163 894 l 347 894 l 354 290 l 604 778 l 628 894 l 781 894 l 825 289 l 1092 894 l 1275 894 l 879 0 l 707 0 l 664 572 l 367 0 l 182 0 z "},"Ẁ":{"ha":1215,"x_min":163,"x_max":1275,"o":"m 649 956 l 582 1215 l 744 1215 l 800 956 l 649 956 m 182 0 l 163 894 l 347 894 l 354 290 l 604 778 l 628 894 l 781 894 l 825 289 l 1092 894 l 1275 894 l 879 0 l 707 0 l 664 572 l 367 0 l 182 0 z "},"X":{"ha":975,"x_min":-28,"x_max":1025,"o":"m -28 0 l 390 449 l 169 894 l 390 894 l 535 596 l 804 894 l 1025 894 l 615 449 l 844 0 l 621 0 l 471 299 l 196 0 l -28 0 z "},"Y":{"ha":932,"x_min":163,"x_max":992,"o":"m 294 0 l 364 331 l 163 894 l 353 894 l 488 490 l 792 894 l 992 894 l 551 331 l 482 0 l 294 0 z "},"Ý":{"ha":932,"x_min":163,"x_max":992,"o":"m 504 956 l 671 1215 l 833 1215 l 656 956 l 504 956 m 294 0 l 364 331 l 163 894 l 353 894 l 488 490 l 792 894 l 992 894 l 551 331 l 482 0 l 294 0 z "},"Ŷ":{"ha":932,"x_min":163,"x_max":992,"o":"m 346 956 l 583 1197 l 703 1197 l 839 956 l 701 956 l 628 1094 l 499 956 l 346 956 m 294 0 l 364 331 l 163 894 l 353 894 l 488 490 l 792 894 l 992 894 l 551 331 l 482 0 l 294 0 z "},"Ÿ":{"ha":932,"x_min":163,"x_max":992,"o":"m 390 990 l 419 1126 l 565 1126 l 536 990 l 390 990 m 661 990 l 690 1126 l 838 1126 l 808 990 l 661 990 m 294 0 l 364 331 l 163 894 l 353 894 l 488 490 l 792 894 l 992 894 l 551 331 l 482 0 l 294 0 z "},"Ẏ":{"ha":932,"x_min":163,"x_max":992,"o":"m 525 990 l 554 1126 l 700 1126 l 671 990 l 525 990 m 294 0 l 364 331 l 163 894 l 353 894 l 488 490 l 792 894 l 992 894 l 551 331 l 482 0 l 294 0 z "},"Ỵ":{"ha":932,"x_min":163,"x_max":992,"o":"m 294 0 l 364 331 l 163 894 l 353 894 l 488 490 l 792 894 l 992 894 l 551 331 l 482 0 l 294 0 m 264 -237 l 293 -100 l 442 -100 l 413 -237 l 264 -237 z "},"Ỳ":{"ha":932,"x_min":163,"x_max":992,"o":"m 529 956 l 463 1215 l 625 1215 l 681 956 l 529 956 m 294 0 l 364 331 l 163 894 l 353 894 l 488 490 l 792 894 l 992 894 l 551 331 l 482 0 l 294 0 z "},"Ỷ":{"ha":932,"x_min":163,"x_max":992,"o":"m 513 954 l 536 1067 q 642 1087 614 1071 q 675 1133 669 1103 q 659 1174 682 1161 q 592 1188 636 1188 q 547 1183 572 1188 q 501 1172 521 1179 l 522 1265 q 664 1283 579 1283 q 792 1247 753 1283 q 818 1150 831 1211 q 772 1061 806 1092 q 669 1018 739 1031 l 656 954 l 513 954 m 294 0 l 364 331 l 163 894 l 353 894 l 488 490 l 792 894 l 992 894 l 551 331 l 482 0 l 294 0 z "},"Ỹ":{"ha":932,"x_min":163,"x_max":992,"o":"m 714 972 q 638 986 674 972 q 569 1014 601 1000 q 501 1028 536 1028 q 365 976 425 1028 l 394 1110 q 453 1141 418 1129 q 524 1153 488 1153 q 600 1139 567 1153 q 665 1111 633 1125 q 736 1097 697 1097 q 863 1150 814 1097 l 833 1017 q 785 985 817 999 q 714 972 753 972 m 294 0 l 364 331 l 163 894 l 353 894 l 488 490 l 792 894 l 992 894 l 551 331 l 482 0 l 294 0 z "},"Z":{"ha":806,"x_min":-26,"x_max":857,"o":"m -26 0 l -7 97 l 581 739 l 153 739 l 185 894 l 857 894 l 833 781 l 253 144 l 706 144 l 675 0 l -26 0 z "},"Ź":{"ha":806,"x_min":-26,"x_max":857,"o":"m 460 956 l 626 1215 l 789 1215 l 611 956 l 460 956 m -26 0 l -7 97 l 581 739 l 153 739 l 185 894 l 857 894 l 833 781 l 253 144 l 706 144 l 675 0 l -26 0 z "},"Ž":{"ha":806,"x_min":-26,"x_max":858,"o":"m 500 956 l 365 1197 l 504 1197 l 574 1058 l 707 1197 l 858 1197 l 619 956 l 500 956 m -26 0 l -7 97 l 581 739 l 153 739 l 185 894 l 857 894 l 833 781 l 253 144 l 706 144 l 675 0 l -26 0 z "},"Ż":{"ha":806,"x_min":-26,"x_max":857,"o":"m 482 990 l 511 1126 l 657 1126 l 628 990 l 482 990 m -26 0 l -7 97 l 581 739 l 153 739 l 185 894 l 857 894 l 833 781 l 253 144 l 706 144 l 675 0 l -26 0 z "},"Ẓ":{"ha":806,"x_min":-26,"x_max":857,"o":"m -26 0 l -7 97 l 581 739 l 153 739 l 185 894 l 857 894 l 833 781 l 253 144 l 706 144 l 675 0 l -26 0 m 225 -251 l 254 -114 l 403 -114 l 374 -251 l 225 -251 z "},"a":{"ha":821,"x_min":13,"x_max":801,"o":"m 272 -14 q 126 17 188 -14 q 38 116 64 47 q 36 297 13 185 q 119 499 61 415 q 260 627 178 582 q 435 672 342 672 q 531 660 490 672 q 606 615 571 647 l 614 658 l 801 658 l 663 0 l 501 0 l 503 61 q 397 5 451 24 q 272 -14 342 -14 m 353 124 q 514 183 440 124 l 575 476 q 454 535 532 535 q 226 297 278 535 q 234 160 204 196 q 353 124 264 124 z "},"á":{"ha":821,"x_min":13,"x_max":801,"o":"m 394 725 l 561 985 l 724 985 l 546 725 l 394 725 m 272 -14 q 126 17 188 -14 q 38 116 64 47 q 36 297 13 185 q 119 499 61 415 q 260 627 178 582 q 435 672 342 672 q 531 660 490 672 q 606 615 571 647 l 614 658 l 801 658 l 663 0 l 501 0 l 503 61 q 397 5 451 24 q 272 -14 342 -14 m 353 124 q 514 183 440 124 l 575 476 q 454 535 532 535 q 226 297 278 535 q 234 160 204 196 q 353 124 264 124 z "},"ă":{"ha":821,"x_min":13,"x_max":801,"o":"m 492 725 q 348 783 396 725 q 322 943 300 842 l 439 943 q 441 867 429 900 q 508 833 453 833 q 588 867 557 833 q 628 943 618 900 l 760 943 q 671 783 738 842 q 492 725 604 725 m 272 -14 q 126 17 188 -14 q 38 116 64 47 q 36 297 13 185 q 119 499 61 415 q 260 627 178 582 q 435 672 342 672 q 531 660 490 672 q 606 615 571 647 l 614 658 l 801 658 l 663 0 l 501 0 l 503 61 q 397 5 451 24 q 272 -14 342 -14 m 353 124 q 514 183 440 124 l 575 476 q 454 535 532 535 q 226 297 278 535 q 234 160 204 196 q 353 124 264 124 z "},"ắ":{"ha":821,"x_min":13,"x_max":801,"o":"m 453 906 l 586 1101 l 728 1101 l 585 906 l 453 906 m 492 725 q 383 747 431 725 q 313 817 335 769 q 308 942 292 865 l 415 942 q 422 854 403 885 q 508 824 440 824 q 650 942 624 824 l 765 942 q 669 776 740 826 q 492 725 599 725 m 272 -14 q 126 17 188 -14 q 38 116 64 47 q 36 297 13 185 q 119 499 61 415 q 260 627 178 582 q 435 672 342 672 q 531 660 490 672 q 606 615 571 647 l 614 658 l 801 658 l 663 0 l 501 0 l 503 61 q 397 5 451 24 q 272 -14 342 -14 m 353 124 q 514 183 440 124 l 575 476 q 454 535 532 535 q 226 297 278 535 q 234 160 204 196 q 353 124 264 124 z "},"ặ":{"ha":821,"x_min":13,"x_max":801,"o":"m 492 725 q 348 783 396 725 q 322 943 300 842 l 439 943 q 441 867 429 900 q 508 833 453 833 q 588 867 557 833 q 628 943 618 900 l 760 943 q 671 783 738 842 q 492 725 604 725 m 272 -14 q 126 17 188 -14 q 38 116 64 47 q 36 297 13 185 q 119 499 61 415 q 260 627 178 582 q 435 672 342 672 q 531 660 490 672 q 606 615 571 647 l 614 658 l 801 658 l 663 0 l 501 0 l 503 61 q 397 5 451 24 q 272 -14 342 -14 m 353 124 q 514 183 440 124 l 575 476 q 454 535 532 535 q 226 297 278 535 q 234 160 204 196 q 353 124 264 124 m 214 -251 l 243 -114 l 392 -114 l 363 -251 l 214 -251 z "},"ằ":{"ha":821,"x_min":13,"x_max":801,"o":"m 467 906 l 407 1101 l 549 1101 l 599 906 l 467 906 m 486 725 q 377 747 425 725 q 308 817 329 769 q 303 942 286 865 l 410 942 q 416 854 397 885 q 503 824 435 824 q 644 942 618 824 l 760 942 q 664 776 735 826 q 486 725 593 725 m 272 -14 q 126 17 188 -14 q 38 116 64 47 q 36 297 13 185 q 119 499 61 415 q 260 627 178 582 q 435 672 342 672 q 531 660 490 672 q 606 615 571 647 l 614 658 l 801 658 l 663 0 l 501 0 l 503 61 q 397 5 451 24 q 272 -14 342 -14 m 353 124 q 514 183 440 124 l 575 476 q 454 535 532 535 q 226 297 278 535 q 234 160 204 196 q 353 124 264 124 z "},"ẳ":{"ha":821,"x_min":13,"x_max":801,"o":"m 465 918 l 483 1001 q 574 1019 549 1004 q 606 1058 600 1033 q 597 1094 611 1085 q 546 1103 582 1103 q 505 1098 525 1103 q 467 1086 485 1093 l 483 1165 q 542 1177 508 1172 q 610 1182 575 1182 q 711 1151 679 1182 q 732 1071 743 1121 q 692 999 722 1025 q 603 963 663 974 l 593 918 l 465 918 m 494 725 q 385 747 433 725 q 316 817 338 769 q 311 942 294 865 l 418 942 q 424 854 406 885 q 511 824 443 824 q 653 942 626 824 l 768 942 q 672 776 743 826 q 494 725 601 725 m 272 -14 q 126 17 188 -14 q 38 116 64 47 q 36 297 13 185 q 119 499 61 415 q 260 627 178 582 q 435 672 342 672 q 531 660 490 672 q 606 615 571 647 l 614 658 l 801 658 l 663 0 l 501 0 l 503 61 q 397 5 451 24 q 272 -14 342 -14 m 353 124 q 514 183 440 124 l 575 476 q 454 535 532 535 q 226 297 278 535 q 234 160 204 196 q 353 124 264 124 z "},"ẵ":{"ha":821,"x_min":13,"x_max":818,"o":"m 674 971 q 598 985 633 971 q 530 1013 563 999 q 463 1026 497 1026 q 326 975 383 1026 l 351 1094 q 410 1126 375 1114 q 482 1138 446 1138 q 558 1124 525 1138 q 622 1096 590 1110 q 693 1082 654 1082 q 818 1135 772 1082 l 794 1015 q 744 984 776 997 q 674 971 713 971 m 503 725 q 394 747 442 725 q 324 817 346 769 q 319 942 303 865 l 426 942 q 433 854 414 885 q 519 824 451 824 q 661 942 635 824 l 776 942 q 681 776 751 826 q 503 725 610 725 m 272 -14 q 126 17 188 -14 q 38 116 64 47 q 36 297 13 185 q 119 499 61 415 q 260 627 178 582 q 435 672 342 672 q 531 660 490 672 q 606 615 571 647 l 614 658 l 801 658 l 663 0 l 501 0 l 503 61 q 397 5 451 24 q 272 -14 342 -14 m 353 124 q 514 183 440 124 l 575 476 q 454 535 532 535 q 226 297 278 535 q 234 160 204 196 q 353 124 264 124 z "},"ǎ":{"ha":821,"x_min":13,"x_max":801,"o":"m 414 725 l 279 967 l 418 967 l 488 828 l 621 967 l 772 967 l 533 725 l 414 725 m 272 -14 q 126 17 188 -14 q 38 116 64 47 q 36 297 13 185 q 119 499 61 415 q 260 627 178 582 q 435 672 342 672 q 531 660 490 672 q 606 615 571 647 l 614 658 l 801 658 l 663 0 l 501 0 l 503 61 q 397 5 451 24 q 272 -14 342 -14 m 353 124 q 514 183 440 124 l 575 476 q 454 535 532 535 q 226 297 278 535 q 234 160 204 196 q 353 124 264 124 z "},"â":{"ha":821,"x_min":13,"x_max":801,"o":"m 231 725 l 468 967 l 588 967 l 724 725 l 586 725 l 513 864 l 383 725 l 231 725 m 272 -14 q 126 17 188 -14 q 38 116 64 47 q 36 297 13 185 q 119 499 61 415 q 260 627 178 582 q 435 672 342 672 q 531 660 490 672 q 606 615 571 647 l 614 658 l 801 658 l 663 0 l 501 0 l 503 61 q 397 5 451 24 q 272 -14 342 -14 m 353 124 q 514 183 440 124 l 575 476 q 454 535 532 535 q 226 297 278 535 q 234 160 204 196 q 353 124 264 124 z "},"ấ":{"ha":821,"x_min":13,"x_max":936,"o":"m 663 886 l 794 1082 l 936 1082 l 793 886 l 663 886 m 240 724 l 454 911 l 597 911 l 733 724 l 589 724 l 518 836 l 401 724 l 240 724 m 272 -14 q 126 17 188 -14 q 38 116 64 47 q 36 297 13 185 q 119 499 61 415 q 260 627 178 582 q 435 672 342 672 q 531 660 490 672 q 606 615 571 647 l 614 658 l 801 658 l 663 0 l 501 0 l 503 61 q 397 5 451 24 q 272 -14 342 -14 m 353 124 q 514 183 440 124 l 575 476 q 454 535 532 535 q 226 297 278 535 q 234 160 204 196 q 353 124 264 124 z "},"ậ":{"ha":821,"x_min":13,"x_max":801,"o":"m 235 725 l 472 967 l 592 967 l 728 725 l 590 725 l 517 864 l 388 725 l 235 725 m 272 -14 q 126 17 188 -14 q 38 116 64 47 q 36 297 13 185 q 119 499 61 415 q 260 627 178 582 q 435 672 342 672 q 531 660 490 672 q 606 615 571 647 l 614 658 l 801 658 l 663 0 l 501 0 l 503 61 q 397 5 451 24 q 272 -14 342 -14 m 353 124 q 514 183 440 124 l 575 476 q 454 535 532 535 q 226 297 278 535 q 234 160 204 196 q 353 124 264 124 m 201 -251 l 231 -114 l 379 -114 l 350 -251 l 201 -251 z "},"ầ":{"ha":821,"x_min":13,"x_max":801,"o":"m 239 886 l 179 1082 l 321 1082 l 371 886 l 239 886 m 231 724 l 444 911 l 588 911 l 724 724 l 579 724 l 508 836 l 392 724 l 231 724 m 272 -14 q 126 17 188 -14 q 38 116 64 47 q 36 297 13 185 q 119 499 61 415 q 260 627 178 582 q 435 672 342 672 q 531 660 490 672 q 606 615 571 647 l 614 658 l 801 658 l 663 0 l 501 0 l 503 61 q 397 5 451 24 q 272 -14 342 -14 m 353 124 q 514 183 440 124 l 575 476 q 454 535 532 535 q 226 297 278 535 q 234 160 204 196 q 353 124 264 124 z "},"ẩ":{"ha":821,"x_min":13,"x_max":935,"o":"m 657 856 l 678 953 q 764 967 742 956 q 790 1001 786 979 q 736 1039 797 1039 q 696 1034 715 1039 q 658 1022 676 1029 l 678 1108 q 728 1120 701 1115 q 794 1125 756 1125 q 901 1094 868 1125 q 924 1013 935 1063 q 883 939 914 967 q 794 903 851 911 l 785 856 l 657 856 m 229 724 l 443 911 l 586 911 l 722 724 l 578 724 l 507 836 l 390 724 l 229 724 m 272 -14 q 126 17 188 -14 q 38 116 64 47 q 36 297 13 185 q 119 499 61 415 q 260 627 178 582 q 435 672 342 672 q 531 660 490 672 q 606 615 571 647 l 614 658 l 801 658 l 663 0 l 501 0 l 503 61 q 397 5 451 24 q 272 -14 342 -14 m 353 124 q 514 183 440 124 l 575 476 q 454 535 532 535 q 226 297 278 535 q 234 160 204 196 q 353 124 264 124 z "},"ẫ":{"ha":821,"x_min":13,"x_max":801,"o":"m 654 932 q 578 946 614 932 q 509 974 542 960 q 442 988 476 988 q 306 936 365 988 l 332 1056 q 390 1087 354 1075 q 461 1099 425 1099 q 538 1085 504 1099 q 603 1057 571 1071 q 674 1043 635 1043 q 745 1057 714 1043 q 799 1096 776 1071 l 772 976 q 724 945 756 958 q 654 932 693 932 m 232 724 l 446 911 l 589 911 l 725 724 l 581 724 l 510 836 l 393 724 l 232 724 m 272 -14 q 126 17 188 -14 q 38 116 64 47 q 36 297 13 185 q 119 499 61 415 q 260 627 178 582 q 435 672 342 672 q 531 660 490 672 q 606 615 571 647 l 614 658 l 801 658 l 663 0 l 501 0 l 503 61 q 397 5 451 24 q 272 -14 342 -14 m 353 124 q 514 183 440 124 l 575 476 q 454 535 532 535 q 226 297 278 535 q 234 160 204 196 q 353 124 264 124 z "},"ä":{"ha":821,"x_min":13,"x_max":801,"o":"m 286 760 l 315 896 l 461 896 l 432 760 l 286 760 m 557 760 l 586 896 l 733 896 l 704 760 l 557 760 m 272 -14 q 126 17 188 -14 q 38 116 64 47 q 36 297 13 185 q 119 499 61 415 q 260 627 178 582 q 435 672 342 672 q 531 660 490 672 q 606 615 571 647 l 614 658 l 801 658 l 663 0 l 501 0 l 503 61 q 397 5 451 24 q 272 -14 342 -14 m 353 124 q 514 183 440 124 l 575 476 q 454 535 532 535 q 226 297 278 535 q 234 160 204 196 q 353 124 264 124 z "},"ạ":{"ha":821,"x_min":13,"x_max":801,"o":"m 272 -14 q 126 17 188 -14 q 38 116 64 47 q 36 297 13 185 q 119 499 61 415 q 260 627 178 582 q 435 672 342 672 q 531 660 490 672 q 606 615 571 647 l 614 658 l 801 658 l 663 0 l 501 0 l 503 61 q 397 5 451 24 q 272 -14 342 -14 m 353 124 q 514 183 440 124 l 575 476 q 454 535 532 535 q 226 297 278 535 q 234 160 204 196 q 353 124 264 124 m 210 -251 l 239 -114 l 388 -114 l 358 -251 l 210 -251 z "},"à":{"ha":821,"x_min":13,"x_max":801,"o":"m 413 725 l 346 985 l 508 985 l 564 725 l 413 725 m 272 -14 q 126 17 188 -14 q 38 116 64 47 q 36 297 13 185 q 119 499 61 415 q 260 627 178 582 q 435 672 342 672 q 531 660 490 672 q 606 615 571 647 l 614 658 l 801 658 l 663 0 l 501 0 l 503 61 q 397 5 451 24 q 272 -14 342 -14 m 353 124 q 514 183 440 124 l 575 476 q 454 535 532 535 q 226 297 278 535 q 234 160 204 196 q 353 124 264 124 z "},"ả":{"ha":821,"x_min":13,"x_max":801,"o":"m 396 724 l 419 836 q 525 856 497 840 q 558 903 553 872 q 542 944 565 931 q 475 957 519 957 q 430 953 456 957 q 385 942 404 949 l 406 1035 q 547 1053 463 1053 q 675 1017 636 1053 q 701 919 714 981 q 656 831 689 861 q 553 788 622 800 l 539 724 l 396 724 m 272 -14 q 126 17 188 -14 q 38 116 64 47 q 36 297 13 185 q 119 499 61 415 q 260 627 178 582 q 435 672 342 672 q 531 660 490 672 q 606 615 571 647 l 614 658 l 801 658 l 663 0 l 501 0 l 503 61 q 397 5 451 24 q 272 -14 342 -14 m 353 124 q 514 183 440 124 l 575 476 q 454 535 532 535 q 226 297 278 535 q 234 160 204 196 q 353 124 264 124 z "},"ɑ":{"ha":821,"x_min":13,"x_max":801,"o":"m 272 -14 q 126 17 188 -14 q 38 116 64 47 q 36 297 13 185 q 119 499 61 415 q 260 627 178 582 q 435 672 342 672 q 531 660 490 672 q 606 615 571 647 l 614 658 l 801 658 l 663 0 l 501 0 l 503 61 q 397 5 451 24 q 272 -14 342 -14 m 353 124 q 514 183 440 124 l 575 476 q 454 535 532 535 q 226 297 278 535 q 234 160 204 196 q 353 124 264 124 z "},"ā":{"ha":821,"x_min":13,"x_max":801,"o":"m 283 751 l 307 867 l 733 867 l 710 751 l 283 751 m 272 -14 q 126 17 188 -14 q 38 116 64 47 q 36 297 13 185 q 119 499 61 415 q 260 627 178 582 q 435 672 342 672 q 531 660 490 672 q 606 615 571 647 l 614 658 l 801 658 l 663 0 l 501 0 l 503 61 q 397 5 451 24 q 272 -14 342 -14 m 353 124 q 514 183 440 124 l 575 476 q 454 535 532 535 q 226 297 278 535 q 234 160 204 196 q 353 124 264 124 z "},"ą":{"ha":821,"x_min":13,"x_max":801,"o":"m 518 -306 q 413 -274 454 -306 q 385 -179 371 -243 q 433 -74 397 -119 q 501 0 468 -28 l 503 61 q 397 5 451 24 q 272 -14 342 -14 q 126 17 188 -14 q 38 116 64 47 q 36 297 13 185 q 119 499 61 415 q 260 627 178 582 q 435 672 342 672 q 531 660 490 672 q 606 615 571 647 l 614 658 l 801 658 l 663 0 q 581 -67 614 -31 q 539 -144 547 -104 q 549 -185 533 -174 q 592 -196 564 -196 q 628 -192 608 -196 q 661 -181 647 -187 l 639 -286 q 585 -300 618 -294 q 518 -306 553 -306 m 353 124 q 514 183 440 124 l 575 476 q 454 535 532 535 q 226 297 278 535 q 234 160 204 196 q 353 124 264 124 z "},"å":{"ha":821,"x_min":13,"x_max":801,"o":"m 493 725 q 378 773 414 725 q 357 890 343 821 q 426 1008 371 960 q 563 1057 481 1057 q 681 1008 644 1057 q 701 890 717 960 q 633 773 688 821 q 493 725 579 725 m 511 811 q 579 834 556 811 q 610 890 603 857 q 600 947 617 924 q 544 969 583 969 q 479 947 504 969 q 447 890 454 924 q 458 834 440 857 q 511 811 475 811 m 272 -14 q 126 17 188 -14 q 38 116 64 47 q 36 297 13 185 q 119 499 61 415 q 260 627 178 582 q 435 672 342 672 q 531 660 490 672 q 606 615 571 647 l 614 658 l 801 658 l 663 0 l 501 0 l 503 61 q 397 5 451 24 q 272 -14 342 -14 m 353 124 q 514 183 440 124 l 575 476 q 454 535 532 535 q 226 297 278 535 q 234 160 204 196 q 353 124 264 124 z "},"ǻ":{"ha":821,"x_min":13,"x_max":850,"o":"m 521 1092 l 688 1299 l 850 1299 l 672 1092 l 521 1092 m 492 718 q 377 766 413 718 q 356 883 342 814 q 424 1001 369 953 q 561 1050 479 1050 q 679 1001 643 1050 q 700 883 715 953 q 632 766 686 814 q 492 718 578 718 m 510 804 q 578 827 554 804 q 608 883 601 850 q 599 940 615 917 q 543 963 582 963 q 478 940 503 963 q 446 883 453 917 q 456 827 439 850 q 510 804 474 804 m 272 -14 q 126 17 188 -14 q 38 116 64 47 q 36 297 13 185 q 119 499 61 415 q 260 627 178 582 q 435 672 342 672 q 531 660 490 672 q 606 615 571 647 l 614 658 l 801 658 l 663 0 l 501 0 l 503 61 q 397 5 451 24 q 272 -14 342 -14 m 353 124 q 514 183 440 124 l 575 476 q 454 535 532 535 q 226 297 278 535 q 234 160 204 196 q 353 124 264 124 z "},"ã":{"ha":821,"x_min":13,"x_max":801,"o":"m 613 742 q 536 756 572 742 q 467 783 500 769 q 400 797 435 797 q 264 746 324 797 l 293 879 q 351 910 317 899 q 422 922 386 922 q 499 908 465 922 q 564 881 532 894 q 635 867 596 867 q 761 919 713 867 l 732 786 q 683 755 715 768 q 613 742 651 742 m 272 -14 q 126 17 188 -14 q 38 116 64 47 q 36 297 13 185 q 119 499 61 415 q 260 627 178 582 q 435 672 342 672 q 531 660 490 672 q 606 615 571 647 l 614 658 l 801 658 l 663 0 l 501 0 l 503 61 q 397 5 451 24 q 272 -14 342 -14 m 353 124 q 514 183 440 124 l 575 476 q 454 535 532 535 q 226 297 278 535 q 234 160 204 196 q 353 124 264 124 z "},"æ":{"ha":1225,"x_min":0,"x_max":1204,"o":"m 221 -14 q 104 9 157 -14 q 26 77 51 32 q 14 190 0 122 q 115 346 33 288 q 331 404 196 404 l 525 404 l 529 422 q 513 508 542 483 q 382 533 485 533 q 158 499 269 533 l 186 631 q 304 660 236 649 q 450 672 372 672 q 668 600 608 672 q 783 654 717 636 q 922 672 850 672 q 1140 592 1075 672 q 1176 383 1204 513 l 1151 264 l 675 264 q 724 153 674 185 q 881 122 775 122 q 990 132 933 122 q 1090 157 1047 142 l 1063 28 q 949 -3 1013 7 q 813 -14 885 -14 q 667 13 738 -14 q 567 93 597 40 q 469 35 518 58 q 360 -1 419 11 q 221 -14 301 -14 m 700 379 l 1013 379 l 1019 415 q 1010 505 1032 472 q 900 538 989 538 q 763 500 807 538 q 700 379 718 463 m 282 110 q 392 128 344 110 q 478 178 440 147 l 500 288 l 310 288 q 182 197 200 288 q 192 133 172 156 q 282 110 213 110 z "},"ǽ":{"ha":1225,"x_min":0,"x_max":1204,"o":"m 608 725 l 775 985 l 938 985 l 760 725 l 608 725 m 221 -14 q 104 9 157 -14 q 26 77 51 32 q 14 190 0 122 q 115 346 33 288 q 331 404 196 404 l 525 404 l 529 422 q 513 508 542 483 q 382 533 485 533 q 158 499 269 533 l 186 631 q 304 660 236 649 q 450 672 372 672 q 668 600 608 672 q 783 654 717 636 q 922 672 850 672 q 1140 592 1075 672 q 1176 383 1204 513 l 1151 264 l 675 264 q 724 153 674 185 q 881 122 775 122 q 990 132 933 122 q 1090 157 1047 142 l 1063 28 q 949 -3 1013 7 q 813 -14 885 -14 q 667 13 738 -14 q 567 93 597 40 q 469 35 518 58 q 360 -1 419 11 q 221 -14 301 -14 m 700 379 l 1013 379 l 1019 415 q 1010 505 1032 472 q 900 538 989 538 q 763 500 807 538 q 700 379 718 463 m 282 110 q 392 128 344 110 q 478 178 440 147 l 500 288 l 310 288 q 182 197 200 288 q 192 133 172 156 q 282 110 213 110 z "},"b":{"ha":819,"x_min":0,"x_max":783,"o":"m 383 -14 q 265 6 314 -14 q 185 61 217 26 l 163 0 l 0 0 l 199 936 l 386 936 l 319 622 q 524 672 411 672 q 671 636 610 672 q 758 526 732 600 q 760 335 783 451 q 629 72 724 157 q 383 -14 535 -14 m 360 124 q 499 176 450 124 q 569 335 547 229 q 567 490 593 444 q 446 535 540 535 q 290 486 354 535 l 226 183 q 282 139 247 154 q 360 124 317 124 z "},"c":{"ha":678,"x_min":18,"x_max":692,"o":"m 332 -14 q 152 25 226 -14 q 48 140 78 64 q 42 329 18 217 q 190 588 78 503 q 483 672 303 672 q 601 663 553 672 q 692 631 649 653 l 663 496 q 588 522 632 513 q 492 532 544 532 q 321 488 386 532 q 232 329 256 444 q 244 175 210 224 q 404 126 278 126 q 501 136 453 126 q 594 165 550 146 l 565 26 q 332 -14 463 -14 z "},"ć":{"ha":678,"x_min":18,"x_max":717,"o":"m 388 725 l 554 985 l 717 985 l 539 725 l 388 725 m 332 -14 q 152 25 226 -14 q 48 140 78 64 q 42 329 18 217 q 190 588 78 503 q 483 672 303 672 q 601 663 553 672 q 692 631 649 653 l 663 496 q 588 522 632 513 q 492 532 544 532 q 321 488 386 532 q 232 329 256 444 q 244 175 210 224 q 404 126 278 126 q 501 136 453 126 q 594 165 550 146 l 565 26 q 332 -14 463 -14 z "},"č":{"ha":678,"x_min":18,"x_max":765,"o":"m 407 725 l 272 967 l 411 967 l 481 828 l 614 967 l 765 967 l 526 725 l 407 725 m 332 -14 q 152 25 226 -14 q 48 140 78 64 q 42 329 18 217 q 190 588 78 503 q 483 672 303 672 q 601 663 553 672 q 692 631 649 653 l 663 496 q 588 522 632 513 q 492 532 544 532 q 321 488 386 532 q 232 329 256 444 q 244 175 210 224 q 404 126 278 126 q 501 136 453 126 q 594 165 550 146 l 565 26 q 332 -14 463 -14 z "},"ç":{"ha":678,"x_min":11,"x_max":692,"o":"m 219 -333 q 164 -330 196 -333 q 117 -322 132 -326 l 138 -228 q 219 -239 175 -239 q 308 -230 281 -239 q 340 -187 335 -221 q 321 -144 347 -151 q 246 -136 294 -136 l 185 -136 l 249 -7 q 69 99 128 14 q 42 329 11 183 q 190 588 78 503 q 483 672 303 672 q 601 663 553 672 q 692 631 649 653 l 663 496 q 588 522 632 513 q 492 532 544 532 q 321 488 386 532 q 232 329 256 444 q 244 175 210 224 q 404 126 278 126 q 501 136 453 126 q 594 165 550 146 l 565 26 q 471 -1 519 8 q 367 -12 422 -10 l 340 -62 q 443 -97 414 -62 q 461 -189 472 -131 q 388 -295 447 -257 q 219 -333 328 -333 z "},"ĉ":{"ha":678,"x_min":18,"x_max":708,"o":"m 215 725 l 453 967 l 572 967 l 708 725 l 571 725 l 497 864 l 368 725 l 215 725 m 332 -14 q 152 25 226 -14 q 48 140 78 64 q 42 329 18 217 q 190 588 78 503 q 483 672 303 672 q 601 663 553 672 q 692 631 649 653 l 663 496 q 588 522 632 513 q 492 532 544 532 q 321 488 386 532 q 232 329 256 444 q 244 175 210 224 q 404 126 278 126 q 501 136 453 126 q 594 165 550 146 l 565 26 q 332 -14 463 -14 z "},"ċ":{"ha":678,"x_min":18,"x_max":692,"o":"m 397 760 l 426 896 l 572 896 l 543 760 l 397 760 m 332 -14 q 152 25 226 -14 q 48 140 78 64 q 42 329 18 217 q 190 588 78 503 q 483 672 303 672 q 601 663 553 672 q 692 631 649 653 l 663 496 q 588 522 632 513 q 492 532 544 532 q 321 488 386 532 q 232 329 256 444 q 244 175 210 224 q 404 126 278 126 q 501 136 453 126 q 594 165 550 146 l 565 26 q 332 -14 463 -14 z "},"d":{"ha":821,"x_min":17,"x_max":861,"o":"m 272 -14 q 129 22 190 -14 q 42 132 68 57 q 42 325 17 207 q 181 587 79 501 q 429 672 282 672 q 607 622 540 672 l 674 936 l 861 936 l 663 0 l 501 0 l 503 61 q 397 5 451 24 q 272 -14 342 -14 m 353 124 q 514 183 440 124 l 576 483 q 449 535 532 535 q 311 484 367 535 q 232 322 256 433 q 238 170 210 217 q 353 124 265 124 z "},"ð":{"ha":794,"x_min":1,"x_max":882,"o":"m 317 -14 q 68 64 135 -14 q 31 276 1 142 q 403 560 92 560 q 508 544 453 560 q 600 496 563 528 l 611 544 q 624 628 621 590 q 622 694 628 665 l 433 619 l 451 703 l 588 757 q 460 788 549 788 q 351 778 401 788 q 251 750 300 768 l 278 874 q 515 908 385 908 q 653 885 597 908 q 743 818 710 861 l 882 874 l 864 790 l 778 756 q 782 521 811 658 l 743 338 q 608 72 706 158 q 317 -14 510 -14 m 343 111 q 557 293 518 111 l 576 382 q 501 425 543 408 q 413 442 458 442 q 263 398 310 442 q 199 276 215 354 q 212 156 182 200 q 343 111 242 111 z "},"ď":{"ha":1021,"x_min":32,"x_max":1140,"o":"m 271 -14 q 97 46 163 -14 q 32 224 32 106 q 81 448 32 346 q 219 611 129 550 q 431 672 308 672 q 606 622 539 672 l 672 936 l 860 936 l 660 0 l 499 0 l 501 61 q 395 5 450 24 q 271 -14 340 -14 m 890 657 l 993 936 l 1140 936 l 1011 657 l 890 657 m 351 124 q 513 183 439 124 l 575 483 q 450 535 531 535 q 333 496 386 535 q 250 390 281 457 q 219 239 219 322 q 254 149 219 175 q 351 124 289 124 z "},"đ":{"ha":822,"x_min":17,"x_max":915,"o":"m 272 -14 q 129 22 190 -14 q 42 132 68 57 q 42 325 17 207 q 181 587 79 501 q 429 672 282 672 q 607 622 540 672 l 631 732 l 438 732 l 464 857 l 657 857 l 674 936 l 861 936 l 844 857 l 915 857 l 889 732 l 818 732 l 663 0 l 501 0 l 503 61 q 397 5 451 24 q 272 -14 342 -14 m 353 124 q 514 183 440 124 l 576 483 q 449 535 532 535 q 311 484 367 535 q 232 322 256 433 q 238 170 210 217 q 353 124 265 124 z "},"ḍ":{"ha":821,"x_min":17,"x_max":861,"o":"m 272 -14 q 129 22 190 -14 q 42 132 68 57 q 42 325 17 207 q 181 587 79 501 q 429 672 282 672 q 607 622 540 672 l 674 936 l 861 936 l 663 0 l 501 0 l 503 61 q 397 5 451 24 q 272 -14 342 -14 m 353 124 q 514 183 440 124 l 576 483 q 449 535 532 535 q 311 484 367 535 q 232 322 256 433 q 238 170 210 217 q 353 124 265 124 m 203 -251 l 232 -114 l 381 -114 l 351 -251 l 203 -251 z "},"ḏ":{"ha":821,"x_min":17,"x_max":861,"o":"m 272 -14 q 129 22 190 -14 q 42 132 68 57 q 42 325 17 207 q 181 587 79 501 q 429 672 282 672 q 607 622 540 672 l 674 936 l 861 936 l 663 0 l 501 0 l 503 61 q 397 5 451 24 q 272 -14 342 -14 m 353 124 q 514 183 440 124 l 576 483 q 449 535 532 535 q 311 484 367 535 q 232 322 256 433 q 238 170 210 217 q 353 124 265 124 m 79 -254 l 103 -139 l 529 -139 l 506 -254 l 79 -254 z "},"e":{"ha":754,"x_min":19,"x_max":732,"o":"m 340 -14 q 158 24 233 -14 q 51 138 82 61 q 43 331 19 215 q 113 513 65 436 q 242 631 160 589 q 450 672 325 672 q 667 592 603 672 q 704 383 732 513 l 679 264 l 203 264 q 245 156 201 185 q 410 126 289 126 q 519 136 463 126 q 618 161 576 146 l 590 28 q 476 -3 540 7 q 340 -14 413 -14 m 228 379 l 540 379 l 547 415 q 533 505 560 472 q 428 538 507 538 q 290 500 335 538 q 228 379 246 463 z "},"é":{"ha":754,"x_min":19,"x_max":732,"o":"m 388 725 l 554 985 l 717 985 l 539 725 l 388 725 m 340 -14 q 158 24 233 -14 q 51 138 82 61 q 43 331 19 215 q 113 513 65 436 q 242 631 160 589 q 450 672 325 672 q 667 592 603 672 q 704 383 732 513 l 679 264 l 203 264 q 245 156 201 185 q 410 126 289 126 q 519 136 463 126 q 618 161 576 146 l 590 28 q 476 -3 540 7 q 340 -14 413 -14 m 228 379 l 540 379 l 547 415 q 533 505 560 472 q 428 538 507 538 q 290 500 335 538 q 228 379 246 463 z "},"ĕ":{"ha":754,"x_min":19,"x_max":736,"o":"m 468 725 q 324 783 372 725 q 299 943 276 842 l 415 943 q 417 867 406 900 q 485 833 429 833 q 564 867 533 833 q 604 943 594 900 l 736 943 q 647 783 714 842 q 468 725 581 725 m 340 -14 q 158 24 233 -14 q 51 138 82 61 q 43 331 19 215 q 113 513 65 436 q 242 631 160 589 q 450 672 325 672 q 667 592 603 672 q 704 383 732 513 l 679 264 l 203 264 q 245 156 201 185 q 410 126 289 126 q 519 136 463 126 q 618 161 576 146 l 590 28 q 476 -3 540 7 q 340 -14 413 -14 m 228 379 l 540 379 l 547 415 q 533 505 560 472 q 428 538 507 538 q 290 500 335 538 q 228 379 246 463 z "},"ě":{"ha":754,"x_min":19,"x_max":774,"o":"m 415 725 l 281 967 l 419 967 l 489 828 l 622 967 l 774 967 l 535 725 l 415 725 m 340 -14 q 158 24 233 -14 q 51 138 82 61 q 43 331 19 215 q 113 513 65 436 q 242 631 160 589 q 450 672 325 672 q 667 592 603 672 q 704 383 732 513 l 679 264 l 203 264 q 245 156 201 185 q 410 126 289 126 q 519 136 463 126 q 618 161 576 146 l 590 28 q 476 -3 540 7 q 340 -14 413 -14 m 228 379 l 540 379 l 547 415 q 533 505 560 472 q 428 538 507 538 q 290 500 335 538 q 228 379 246 463 z "},"ê":{"ha":754,"x_min":19,"x_max":732,"o":"m 218 725 l 456 967 l 575 967 l 711 725 l 574 725 l 500 864 l 371 725 l 218 725 m 340 -14 q 158 24 233 -14 q 51 138 82 61 q 43 331 19 215 q 113 513 65 436 q 242 631 160 589 q 450 672 325 672 q 667 592 603 672 q 704 383 732 513 l 679 264 l 203 264 q 245 156 201 185 q 410 126 289 126 q 519 136 463 126 q 618 161 576 146 l 590 28 q 476 -3 540 7 q 340 -14 413 -14 m 228 379 l 540 379 l 547 415 q 533 505 560 472 q 428 538 507 538 q 290 500 335 538 q 228 379 246 463 z "},"ế":{"ha":753,"x_min":19,"x_max":922,"o":"m 649 886 l 781 1082 l 922 1082 l 779 886 l 649 886 m 226 724 l 440 911 l 583 911 l 719 724 l 575 724 l 504 836 l 388 724 l 226 724 m 340 -14 q 158 24 233 -14 q 51 138 82 61 q 43 331 19 215 q 113 513 65 436 q 242 631 160 589 q 450 672 325 672 q 667 592 603 672 q 704 383 732 513 l 679 264 l 203 264 q 245 156 201 185 q 410 126 289 126 q 519 136 463 126 q 618 161 576 146 l 590 28 q 476 -3 540 7 q 340 -14 413 -14 m 228 379 l 540 379 l 547 415 q 533 505 560 472 q 428 538 507 538 q 290 500 335 538 q 228 379 246 463 z "},"ệ":{"ha":754,"x_min":19,"x_max":732,"o":"m 218 725 l 456 967 l 575 967 l 711 725 l 574 725 l 500 864 l 371 725 l 218 725 m 340 -14 q 158 24 233 -14 q 51 138 82 61 q 43 331 19 215 q 113 513 65 436 q 242 631 160 589 q 450 672 325 672 q 667 592 603 672 q 704 383 732 513 l 679 264 l 203 264 q 245 156 201 185 q 410 126 289 126 q 519 136 463 126 q 618 161 576 146 l 590 28 q 476 -3 540 7 q 340 -14 413 -14 m 228 379 l 540 379 l 547 415 q 533 505 560 472 q 428 538 507 538 q 290 500 335 538 q 228 379 246 463 m 185 -251 l 214 -114 l 363 -114 l 333 -251 l 185 -251 z "},"ề":{"ha":753,"x_min":18,"x_max":731,"o":"m 236 900 l 176 1096 l 318 1096 l 368 900 l 236 900 m 228 738 l 442 925 l 585 925 l 721 738 l 576 738 l 506 850 l 389 738 l 228 738 m 339 -14 q 156 24 232 -14 q 49 138 81 61 q 42 331 18 215 q 111 513 64 436 q 241 631 158 589 q 449 672 324 672 q 666 592 601 672 q 703 383 731 513 l 678 264 l 201 264 q 244 156 200 185 q 408 126 288 126 q 518 136 461 126 q 617 161 575 146 l 589 28 q 475 -3 539 7 q 339 -14 411 -14 m 226 379 l 539 379 l 546 415 q 532 505 558 472 q 426 538 506 538 q 289 500 333 538 q 226 379 244 463 z "},"ể":{"ha":753,"x_min":19,"x_max":925,"o":"m 647 856 l 668 953 q 754 967 732 956 q 781 1001 776 979 q 726 1039 788 1039 q 686 1034 706 1039 q 649 1022 667 1029 l 668 1108 q 719 1120 692 1115 q 785 1125 746 1125 q 892 1094 858 1125 q 914 1013 925 1063 q 873 939 904 967 q 785 903 842 911 l 775 856 l 647 856 m 219 724 l 433 911 l 576 911 l 713 724 l 568 724 l 497 836 l 381 724 l 219 724 m 340 -14 q 158 24 233 -14 q 51 138 82 61 q 43 331 19 215 q 113 513 65 436 q 242 631 160 589 q 450 672 325 672 q 667 592 603 672 q 704 383 732 513 l 679 264 l 203 264 q 245 156 201 185 q 410 126 289 126 q 519 136 463 126 q 618 161 576 146 l 590 28 q 476 -3 540 7 q 340 -14 413 -14 m 228 379 l 540 379 l 547 415 q 533 505 560 472 q 428 538 507 538 q 290 500 335 538 q 228 379 246 463 z "},"ễ":{"ha":754,"x_min":19,"x_max":790,"o":"m 646 932 q 569 946 606 932 q 501 974 533 960 q 433 988 468 988 q 297 936 357 988 l 324 1056 q 381 1087 346 1075 q 453 1099 417 1099 q 529 1085 496 1099 q 594 1057 563 1071 q 665 1043 626 1043 q 737 1057 706 1043 q 790 1096 768 1071 l 764 976 q 716 945 747 958 q 646 932 685 932 m 224 724 l 438 911 l 581 911 l 717 724 l 572 724 l 501 836 l 385 724 l 224 724 m 340 -14 q 158 24 233 -14 q 51 138 82 61 q 43 331 19 215 q 113 513 65 436 q 242 631 160 589 q 450 672 325 672 q 667 592 603 672 q 704 383 732 513 l 679 264 l 203 264 q 245 156 201 185 q 410 126 289 126 q 519 136 463 126 q 618 161 576 146 l 590 28 q 476 -3 540 7 q 340 -14 413 -14 m 228 379 l 540 379 l 547 415 q 533 505 560 472 q 428 538 507 538 q 290 500 335 538 q 228 379 246 463 z "},"ë":{"ha":754,"x_min":19,"x_max":732,"o":"m 261 760 l 290 896 l 436 896 l 407 760 l 261 760 m 532 760 l 561 896 l 708 896 l 679 760 l 532 760 m 340 -14 q 158 24 233 -14 q 51 138 82 61 q 43 331 19 215 q 113 513 65 436 q 242 631 160 589 q 450 672 325 672 q 667 592 603 672 q 704 383 732 513 l 679 264 l 203 264 q 245 156 201 185 q 410 126 289 126 q 519 136 463 126 q 618 161 576 146 l 590 28 q 476 -3 540 7 q 340 -14 413 -14 m 228 379 l 540 379 l 547 415 q 533 505 560 472 q 428 538 507 538 q 290 500 335 538 q 228 379 246 463 z "},"ė":{"ha":754,"x_min":19,"x_max":732,"o":"m 400 760 l 429 896 l 575 896 l 546 760 l 400 760 m 340 -14 q 158 24 233 -14 q 51 138 82 61 q 43 331 19 215 q 113 513 65 436 q 242 631 160 589 q 450 672 325 672 q 667 592 603 672 q 704 383 732 513 l 679 264 l 203 264 q 245 156 201 185 q 410 126 289 126 q 519 136 463 126 q 618 161 576 146 l 590 28 q 476 -3 540 7 q 340 -14 413 -14 m 228 379 l 540 379 l 547 415 q 533 505 560 472 q 428 538 507 538 q 290 500 335 538 q 228 379 246 463 z "},"ẹ":{"ha":754,"x_min":19,"x_max":732,"o":"m 340 -14 q 158 24 233 -14 q 51 138 82 61 q 43 331 19 215 q 113 513 65 436 q 242 631 160 589 q 450 672 325 672 q 667 592 603 672 q 704 383 732 513 l 679 264 l 203 264 q 245 156 201 185 q 410 126 289 126 q 519 136 463 126 q 618 161 576 146 l 590 28 q 476 -3 540 7 q 340 -14 413 -14 m 228 379 l 540 379 l 547 415 q 533 505 560 472 q 428 538 507 538 q 290 500 335 538 q 228 379 246 463 m 190 -251 l 219 -114 l 368 -114 l 339 -251 l 190 -251 z "},"è":{"ha":754,"x_min":19,"x_max":732,"o":"m 390 725 l 324 985 l 486 985 l 542 725 l 390 725 m 340 -14 q 158 24 233 -14 q 51 138 82 61 q 43 331 19 215 q 113 513 65 436 q 242 631 160 589 q 450 672 325 672 q 667 592 603 672 q 704 383 732 513 l 679 264 l 203 264 q 245 156 201 185 q 410 126 289 126 q 519 136 463 126 q 618 161 576 146 l 590 28 q 476 -3 540 7 q 340 -14 413 -14 m 228 379 l 540 379 l 547 415 q 533 505 560 472 q 428 538 507 538 q 290 500 335 538 q 228 379 246 463 z "},"ẻ":{"ha":754,"x_min":19,"x_max":732,"o":"m 399 724 l 422 836 q 528 856 500 840 q 561 903 556 872 q 545 944 568 931 q 478 957 522 957 q 433 953 458 957 q 388 942 407 949 l 408 1035 q 550 1053 465 1053 q 678 1017 639 1053 q 704 919 717 981 q 658 831 692 861 q 556 788 625 800 l 542 724 l 399 724 m 340 -14 q 158 24 233 -14 q 51 138 82 61 q 43 331 19 215 q 113 513 65 436 q 242 631 160 589 q 450 672 325 672 q 667 592 603 672 q 704 383 732 513 l 679 264 l 203 264 q 245 156 201 185 q 410 126 289 126 q 519 136 463 126 q 618 161 576 146 l 590 28 q 476 -3 540 7 q 340 -14 413 -14 m 228 379 l 540 379 l 547 415 q 533 505 560 472 q 428 538 507 538 q 290 500 335 538 q 228 379 246 463 z "},"ē":{"ha":754,"x_min":19,"x_max":732,"o":"m 272 772 l 296 888 l 722 888 l 699 772 l 272 772 m 340 -14 q 158 24 233 -14 q 51 138 82 61 q 43 331 19 215 q 113 513 65 436 q 242 631 160 589 q 450 672 325 672 q 667 592 603 672 q 704 383 732 513 l 679 264 l 203 264 q 245 156 201 185 q 410 126 289 126 q 519 136 463 126 q 618 161 576 146 l 590 28 q 476 -3 540 7 q 340 -14 413 -14 m 228 379 l 540 379 l 547 415 q 533 505 560 472 q 428 538 507 538 q 290 500 335 538 q 228 379 246 463 z "},"ę":{"ha":754,"x_min":19,"x_max":732,"o":"m 347 -306 q 242 -274 283 -306 q 214 -179 200 -243 q 332 -14 235 -82 q 153 26 226 -12 q 49 140 79 64 q 43 331 19 217 q 113 513 65 436 q 242 631 160 589 q 450 672 325 672 q 667 592 603 672 q 704 383 732 513 l 679 264 l 203 264 q 245 156 201 185 q 410 126 289 126 q 519 136 463 126 q 618 161 576 146 l 590 28 q 490 -1 546 10 q 409 -69 442 -32 q 368 -144 376 -106 q 378 -185 363 -174 q 421 -196 393 -196 q 457 -192 438 -196 q 490 -181 476 -187 l 468 -286 q 415 -300 447 -294 q 347 -306 382 -306 m 228 379 l 540 379 l 547 415 q 533 505 560 472 q 428 538 507 538 q 290 500 335 538 q 228 379 246 463 z "},"ẽ":{"ha":754,"x_min":19,"x_max":742,"o":"m 593 742 q 517 756 553 742 q 448 783 481 769 q 381 797 415 797 q 244 746 304 797 l 274 879 q 332 910 297 899 q 403 922 367 922 q 479 908 446 922 q 544 881 513 894 q 615 867 576 867 q 742 919 693 867 l 713 786 q 664 755 696 768 q 593 742 632 742 m 340 -14 q 158 24 233 -14 q 51 138 82 61 q 43 331 19 215 q 113 513 65 436 q 242 631 160 589 q 450 672 325 672 q 667 592 603 672 q 704 383 732 513 l 679 264 l 203 264 q 245 156 201 185 q 410 126 289 126 q 519 136 463 126 q 618 161 576 146 l 590 28 q 476 -3 540 7 q 340 -14 413 -14 m 228 379 l 540 379 l 547 415 q 533 505 560 472 q 428 538 507 538 q 290 500 335 538 q 228 379 246 463 z "},"ə":{"ha":753,"x_min":11,"x_max":728,"o":"m 283 -14 q 128 19 193 -14 q 38 117 64 53 q 31 275 11 182 l 56 394 l 532 394 q 517 477 533 447 q 457 519 501 507 q 325 532 413 532 q 216 522 274 532 q 117 497 158 513 l 144 631 q 258 662 194 651 q 393 672 321 672 q 650 587 572 672 q 692 328 728 501 q 622 151 671 229 q 490 30 572 74 q 283 -14 407 -14 m 307 121 q 444 158 400 121 q 507 279 489 196 l 194 279 l 188 243 q 199 152 176 183 q 307 121 222 121 z "},"f":{"ha":515,"x_min":36,"x_max":613,"o":"m 36 0 l 144 514 l 53 514 l 83 658 l 175 658 l 189 725 q 276 893 210 828 q 469 958 342 958 q 550 951 515 958 q 613 932 585 944 l 585 803 q 548 814 567 810 q 506 818 529 818 q 417 797 446 818 q 376 722 388 775 l 363 658 l 529 658 l 490 514 l 332 514 l 224 0 l 36 0 z "},"g":{"ha":821,"x_min":17,"x_max":801,"o":"m 229 -244 q 173 -242 207 -244 q 106 -237 139 -240 q 54 -229 74 -233 l 85 -86 q 156 -99 113 -94 q 229 -104 199 -104 q 397 -78 331 -104 q 478 15 464 -51 l 485 50 q 286 0 400 0 q 136 31 200 0 q 44 131 72 63 q 39 313 17 200 q 175 581 75 490 q 428 672 275 672 q 540 653 497 672 q 617 597 582 633 l 640 658 l 801 658 l 672 46 q 603 -103 654 -37 q 461 -207 553 -169 q 229 -244 369 -244 m 356 138 q 442 151 403 138 q 514 188 481 164 l 575 475 q 519 520 550 506 q 443 535 488 535 q 303 477 353 535 q 231 314 254 419 q 236 176 208 214 q 356 138 264 138 z "},"ğ":{"ha":821,"x_min":17,"x_max":801,"o":"m 450 725 q 306 783 354 725 q 281 943 258 842 l 397 943 q 399 867 388 900 q 467 833 411 833 q 546 867 515 833 q 586 943 576 900 l 718 943 q 629 783 696 842 q 450 725 563 725 m 229 -244 q 173 -242 207 -244 q 106 -237 139 -240 q 54 -229 74 -233 l 85 -86 q 156 -99 113 -94 q 229 -104 199 -104 q 397 -78 331 -104 q 478 15 464 -51 l 485 50 q 286 0 400 0 q 136 31 200 0 q 44 131 72 63 q 39 313 17 200 q 175 581 75 490 q 428 672 275 672 q 540 653 497 672 q 617 597 582 633 l 640 658 l 801 658 l 672 46 q 603 -103 654 -37 q 461 -207 553 -169 q 229 -244 369 -244 m 356 138 q 442 151 403 138 q 514 188 481 164 l 575 475 q 519 520 550 506 q 443 535 488 535 q 303 477 353 535 q 231 314 254 419 q 236 176 208 214 q 356 138 264 138 z "},"ǧ":{"ha":821,"x_min":17,"x_max":801,"o":"m 421 725 l 286 967 l 425 967 l 494 828 l 628 967 l 779 967 l 540 725 l 421 725 m 229 -244 q 173 -242 207 -244 q 106 -237 139 -240 q 54 -229 74 -233 l 85 -86 q 156 -99 113 -94 q 229 -104 199 -104 q 397 -78 331 -104 q 478 15 464 -51 l 485 50 q 286 0 400 0 q 136 31 200 0 q 44 131 72 63 q 39 313 17 200 q 175 581 75 490 q 428 672 275 672 q 540 653 497 672 q 617 597 582 633 l 640 658 l 801 658 l 672 46 q 603 -103 654 -37 q 461 -207 553 -169 q 229 -244 369 -244 m 356 138 q 442 151 403 138 q 514 188 481 164 l 575 475 q 519 520 550 506 q 443 535 488 535 q 303 477 353 535 q 231 314 254 419 q 236 176 208 214 q 356 138 264 138 z "},"ĝ":{"ha":821,"x_min":17,"x_max":801,"o":"m 211 725 l 449 967 l 568 967 l 704 725 l 567 725 l 493 864 l 364 725 l 211 725 m 229 -244 q 173 -242 207 -244 q 106 -237 139 -240 q 54 -229 74 -233 l 85 -86 q 156 -99 113 -94 q 229 -104 199 -104 q 397 -78 331 -104 q 478 15 464 -51 l 485 50 q 286 0 400 0 q 136 31 200 0 q 44 131 72 63 q 39 313 17 200 q 175 581 75 490 q 428 672 275 672 q 540 653 497 672 q 617 597 582 633 l 640 658 l 801 658 l 672 46 q 603 -103 654 -37 q 461 -207 553 -169 q 229 -244 369 -244 m 356 138 q 442 151 403 138 q 514 188 481 164 l 575 475 q 519 520 550 506 q 443 535 488 535 q 303 477 353 535 q 231 314 254 419 q 236 176 208 214 q 356 138 264 138 z "},"ģ":{"ha":821,"x_min":17,"x_max":801,"o":"m 372 725 l 501 1004 l 621 1004 l 519 725 l 372 725 m 229 -244 q 173 -242 207 -244 q 106 -237 139 -240 q 54 -229 74 -233 l 85 -86 q 156 -99 113 -94 q 229 -104 199 -104 q 397 -78 331 -104 q 478 15 464 -51 l 485 50 q 286 0 400 0 q 136 31 200 0 q 44 131 72 63 q 39 313 17 200 q 175 581 75 490 q 428 672 275 672 q 540 653 497 672 q 617 597 582 633 l 640 658 l 801 658 l 672 46 q 603 -103 654 -37 q 461 -207 553 -169 q 229 -244 369 -244 m 356 138 q 442 151 403 138 q 514 188 481 164 l 575 475 q 519 520 550 506 q 443 535 488 535 q 303 477 353 535 q 231 314 254 419 q 236 176 208 214 q 356 138 264 138 z "},"ġ":{"ha":821,"x_min":17,"x_max":801,"o":"m 372 746 l 401 882 l 547 882 l 518 746 l 372 746 m 229 -244 q 173 -242 207 -244 q 106 -237 139 -240 q 54 -229 74 -233 l 85 -86 q 156 -99 113 -94 q 229 -104 199 -104 q 397 -78 331 -104 q 478 15 464 -51 l 485 50 q 286 0 400 0 q 136 31 200 0 q 44 131 72 63 q 39 313 17 200 q 175 581 75 490 q 428 672 275 672 q 540 653 497 672 q 617 597 582 633 l 640 658 l 801 658 l 672 46 q 603 -103 654 -37 q 461 -207 553 -169 q 229 -244 369 -244 m 356 138 q 442 151 403 138 q 514 188 481 164 l 575 475 q 519 520 550 506 q 443 535 488 535 q 303 477 353 535 q 231 314 254 419 q 236 176 208 214 q 356 138 264 138 z "},"ḡ":{"ha":821,"x_min":17,"x_max":801,"o":"m 267 765 l 290 881 l 717 881 l 693 765 l 267 765 m 229 -244 q 173 -242 207 -244 q 106 -237 139 -240 q 54 -229 74 -233 l 85 -86 q 156 -99 113 -94 q 229 -104 199 -104 q 397 -78 331 -104 q 478 15 464 -51 l 485 50 q 286 0 400 0 q 136 31 200 0 q 44 131 72 63 q 39 313 17 200 q 175 581 75 490 q 428 672 275 672 q 540 653 497 672 q 617 597 582 633 l 640 658 l 801 658 l 672 46 q 603 -103 654 -37 q 461 -207 553 -169 q 229 -244 369 -244 m 356 138 q 442 151 403 138 q 514 188 481 164 l 575 475 q 519 520 550 506 q 443 535 488 535 q 303 477 353 535 q 231 314 254 419 q 236 176 208 214 q 356 138 264 138 z "},"h":{"ha":815,"x_min":0,"x_max":778,"o":"m 0 0 l 199 936 l 386 936 l 315 603 q 424 653 363 633 q 554 672 486 672 q 727 609 676 672 q 751 422 778 546 l 663 0 l 475 0 l 563 413 q 556 507 576 479 q 460 535 536 535 q 369 515 417 535 q 286 467 322 496 l 188 0 l 0 0 z "},"ħ":{"ha":817,"x_min":1,"x_max":779,"o":"m 1 0 l 157 735 l 88 735 l 114 863 l 183 863 l 200 936 l 388 936 l 371 863 l 557 863 l 531 735 l 344 735 l 317 603 q 426 653 364 633 q 556 672 488 672 q 728 609 678 672 q 753 422 779 546 l 664 0 l 476 0 l 564 413 q 558 507 578 479 q 461 535 538 535 q 371 515 418 535 q 288 467 324 496 l 189 0 l 1 0 z "},"ḫ":{"ha":815,"x_min":0,"x_max":778,"o":"m 0 0 l 199 936 l 386 936 l 315 603 q 424 653 363 633 q 554 672 486 672 q 727 609 676 672 q 751 422 778 546 l 663 0 l 475 0 l 563 413 q 556 507 576 479 q 460 535 536 535 q 369 515 417 535 q 286 467 322 496 l 188 0 l 0 0 m 278 -301 q 176 -275 219 -301 q 113 -200 132 -249 q 107 -83 93 -151 l 226 -83 q 229 -160 217 -126 q 296 -193 242 -193 q 374 -160 344 -193 q 414 -83 404 -126 l 544 -83 q 452 -243 522 -185 q 278 -301 382 -301 z "},"ĥ":{"ha":815,"x_min":0,"x_max":778,"o":"m 214 979 l 451 1221 l 571 1221 l 707 979 l 569 979 l 496 1118 l 367 979 l 214 979 m 0 0 l 199 936 l 386 936 l 315 603 q 424 653 363 633 q 554 672 486 672 q 727 609 676 672 q 751 422 778 546 l 663 0 l 475 0 l 563 413 q 556 507 576 479 q 460 535 536 535 q 369 515 417 535 q 286 467 322 496 l 188 0 l 0 0 z "},"ḥ":{"ha":815,"x_min":0,"x_max":778,"o":"m 0 0 l 199 936 l 386 936 l 315 603 q 424 653 363 633 q 554 672 486 672 q 727 609 676 672 q 751 422 778 546 l 663 0 l 475 0 l 563 413 q 556 507 576 479 q 460 535 536 535 q 369 515 417 535 q 286 467 322 496 l 188 0 l 0 0 m 213 -251 l 242 -114 l 390 -114 l 361 -251 l 213 -251 z "},"i":{"ha":410,"x_min":63,"x_max":447,"o":"m 213 779 l 243 926 l 447 926 l 417 779 l 213 779 m 63 0 l 172 519 l 74 519 l 119 658 l 389 658 l 250 0 l 63 0 z "},"ı":{"ha":447,"x_min":100,"x_max":426,"o":"m 100 0 l 210 519 l 111 519 l 157 658 l 426 658 l 288 0 l 100 0 z "},"í":{"ha":447,"x_min":100,"x_max":582,"o":"m 253 725 l 419 985 l 582 985 l 404 725 l 253 725 m 100 0 l 210 519 l 111 519 l 157 658 l 426 658 l 288 0 l 100 0 z "},"ĭ":{"ha":446,"x_min":99,"x_max":574,"o":"m 306 725 q 160 783 208 725 q 135 943 113 842 l 253 943 q 255 867 243 900 q 322 833 267 833 q 403 867 375 833 q 442 943 432 900 l 574 943 q 482 783 551 842 q 306 725 413 725 m 99 0 l 208 519 l 110 519 l 156 658 l 425 658 l 286 0 l 99 0 z "},"ǐ":{"ha":444,"x_min":99,"x_max":619,"o":"m 261 725 l 126 967 l 265 967 l 335 828 l 468 967 l 619 967 l 381 725 l 261 725 m 99 0 l 208 519 l 110 519 l 156 658 l 425 658 l 286 0 l 99 0 z "},"î":{"ha":444,"x_min":65,"x_max":558,"o":"m 65 725 l 303 967 l 422 967 l 558 725 l 421 725 l 347 864 l 218 725 l 65 725 m 99 0 l 208 519 l 110 519 l 156 658 l 425 658 l 286 0 l 99 0 z "},"ï":{"ha":444,"x_min":99,"x_max":549,"o":"m 101 760 l 131 896 l 276 896 l 247 760 l 101 760 m 372 760 l 401 896 l 549 896 l 519 760 l 372 760 m 99 0 l 208 519 l 110 519 l 156 658 l 425 658 l 286 0 l 99 0 z "},"ị":{"ha":447,"x_min":68,"x_max":485,"o":"m 250 779 l 281 926 l 485 926 l 454 779 l 250 779 m 100 0 l 210 519 l 111 519 l 157 658 l 426 658 l 288 0 l 100 0 m 68 -251 l 97 -114 l 246 -114 l 217 -251 l 68 -251 z "},"ì":{"ha":446,"x_min":99,"x_max":425,"o":"m 265 725 l 199 985 l 361 985 l 417 725 l 265 725 m 99 0 l 208 519 l 110 519 l 156 658 l 425 658 l 286 0 l 99 0 z "},"ỉ":{"ha":447,"x_min":100,"x_max":561,"o":"m 243 724 l 267 836 q 372 856 344 840 q 406 903 400 872 q 390 944 413 931 q 322 957 367 957 q 277 953 303 957 q 232 942 251 949 l 253 1035 q 394 1053 310 1053 q 522 1017 483 1053 q 549 919 561 981 q 503 831 536 861 q 400 788 469 800 l 386 724 l 243 724 m 100 0 l 210 519 l 111 519 l 157 658 l 426 658 l 288 0 l 100 0 z "},"ĳ":{"ha":810,"x_min":100,"x_max":847,"o":"m 250 779 l 281 926 l 485 926 l 454 779 l 250 779 m 613 779 l 643 926 l 847 926 l 817 779 l 613 779 m 354 -325 q 211 -300 268 -325 l 238 -171 q 318 -185 278 -185 q 408 -162 381 -185 q 444 -89 435 -139 l 574 519 l 475 519 l 521 658 l 790 658 l 628 -107 q 543 -265 607 -204 q 354 -325 479 -325 m 100 0 l 210 519 l 111 519 l 157 658 l 426 658 l 288 0 l 100 0 z "},"ī":{"ha":447,"x_min":100,"x_max":554,"o":"m 103 792 l 126 907 l 554 907 l 531 792 l 103 792 m 100 0 l 210 519 l 111 519 l 157 658 l 426 658 l 288 0 l 100 0 z "},"į":{"ha":447,"x_min":-19,"x_max":485,"o":"m 250 779 l 281 926 l 485 926 l 454 779 l 250 779 m 128 -306 q 22 -274 64 -306 q -6 -179 -19 -243 q 133 0 18 -69 l 100 0 l 210 519 l 111 519 l 157 658 l 426 658 l 288 0 l 272 0 q 190 -67 224 -31 q 149 -144 157 -104 q 158 -185 143 -174 q 201 -196 174 -196 q 238 -192 218 -196 q 271 -181 257 -187 l 249 -286 q 195 -300 228 -294 q 128 -306 163 -306 z "},"ĩ":{"ha":446,"x_min":74,"x_max":571,"o":"m 422 740 q 346 754 382 740 q 277 782 310 768 q 210 796 244 796 q 74 744 133 796 l 103 878 q 161 909 126 897 q 232 921 196 921 q 308 907 275 921 q 374 879 342 893 q 444 865 406 865 q 571 918 522 865 l 542 785 q 493 753 525 767 q 422 740 461 740 m 99 0 l 208 519 l 110 519 l 156 658 l 425 658 l 286 0 l 99 0 z "},"j":{"ha":450,"x_min":-150,"x_max":486,"o":"m 251 779 l 282 926 l 486 926 l 456 779 l 251 779 m -7 -325 q -150 -300 -93 -325 l -124 -171 q -43 -185 -83 -185 q 47 -162 19 -185 q 83 -89 74 -139 l 213 519 l 114 519 l 160 658 l 429 658 l 267 -107 q 182 -265 246 -204 q -7 -325 118 -325 z "},"ȷ":{"ha":444,"x_min":-154,"x_max":425,"o":"m -11 -325 q -154 -300 -97 -325 l -128 -171 q -47 -185 -87 -185 q 46 -162 22 -185 q 79 -89 69 -139 l 208 519 l 110 519 l 156 658 l 425 658 l 263 -107 q 177 -265 242 -204 q -11 -325 113 -325 z "},"ĵ":{"ha":444,"x_min":-154,"x_max":557,"o":"m 64 725 l 301 967 l 421 967 l 557 725 l 419 725 l 346 864 l 217 725 l 64 725 m -11 -325 q -154 -300 -97 -325 l -128 -171 q -47 -185 -87 -185 q 46 -162 22 -185 q 79 -89 69 -139 l 208 519 l 110 519 l 156 658 l 425 658 l 263 -107 q 177 -265 242 -204 q -11 -325 113 -325 z "},"k":{"ha":783,"x_min":0,"x_max":786,"o":"m 0 0 l 199 936 l 386 936 l 276 421 l 572 658 l 786 658 l 464 389 l 663 0 l 464 0 l 325 290 l 233 217 l 188 0 l 0 0 z "},"ķ":{"ha":793,"x_min":0,"x_max":786,"o":"m 0 0 l 199 936 l 386 936 l 276 421 l 572 658 l 786 658 l 464 389 l 663 0 l 464 0 l 325 290 l 233 217 l 188 0 l 0 0 m 119 -331 l 221 -51 l 368 -51 l 239 -331 l 119 -331 z "},"ĸ":{"ha":794,"x_min":1,"x_max":788,"o":"m 1 0 l 140 658 l 328 658 l 274 399 l 574 658 l 788 658 l 461 372 l 664 0 l 465 0 l 324 272 l 229 192 l 189 0 l 1 0 z "},"l":{"ha":414,"x_min":-4,"x_max":386,"o":"m 179 -14 q 36 172 -4 -14 l 199 936 l 386 936 l 226 188 q 228 140 219 153 q 268 126 238 126 q 335 136 304 126 l 308 7 q 179 -14 250 -14 z "},"ĺ":{"ha":414,"x_min":-4,"x_max":568,"o":"m 239 1024 l 406 1283 l 568 1283 l 390 1024 l 239 1024 m 179 -14 q 36 172 -4 -14 l 199 936 l 386 936 l 226 188 q 228 140 219 153 q 268 126 238 126 q 335 136 304 126 l 308 7 q 179 -14 250 -14 z "},"ľ":{"ha":535,"x_min":18,"x_max":654,"o":"m 181 -14 q 47 35 75 -14 q 36 172 18 83 l 199 936 l 386 936 l 226 188 q 231 140 219 153 q 268 126 242 126 q 335 136 304 126 l 308 7 q 249 -9 276 -4 q 181 -14 221 -14 m 404 657 l 507 936 l 654 936 l 525 657 l 404 657 z "},"ļ":{"ha":414,"x_min":-6,"x_max":386,"o":"m 179 -14 q 36 172 -4 -14 l 199 936 l 386 936 l 226 188 q 228 140 219 153 q 268 126 238 126 q 335 136 304 126 l 308 7 q 179 -14 250 -14 m -6 -331 l 96 -51 l 243 -51 l 114 -331 l -6 -331 z "},"ŀ":{"ha":471,"x_min":-4,"x_max":515,"o":"m 179 -14 q 36 172 -4 -14 l 199 936 l 386 936 l 226 188 q 228 140 219 153 q 268 126 238 126 q 335 136 304 126 l 308 7 q 179 -14 250 -14 m 340 390 l 369 526 l 515 526 l 486 390 l 340 390 z "},"ḷ":{"ha":414,"x_min":-4,"x_max":386,"o":"m 179 -14 q 36 172 -4 -14 l 199 936 l 386 936 l 226 188 q 228 140 219 153 q 268 126 238 126 q 335 136 304 126 l 308 7 q 179 -14 250 -14 m 17 -251 l 46 -114 l 194 -114 l 165 -251 l 17 -251 z "},"ḹ":{"ha":414,"x_min":-3,"x_max":546,"o":"m 96 1006 l 119 1121 l 546 1121 l 522 1006 l 96 1006 m 181 -14 q 38 172 -3 -14 l 200 936 l 388 936 l 228 188 q 230 140 221 153 q 269 126 239 126 q 336 136 306 126 l 310 7 q 181 -14 251 -14 m 18 -251 l 47 -114 l 196 -114 l 167 -251 l 18 -251 z "},"ḻ":{"ha":414,"x_min":-125,"x_max":386,"o":"m 179 -14 q 36 172 -4 -14 l 199 936 l 386 936 l 226 188 q 228 140 219 153 q 268 126 238 126 q 335 136 304 126 l 308 7 q 179 -14 250 -14 m -125 -219 l -101 -104 l 325 -104 l 301 -219 l -125 -219 z "},"ł":{"ha":415,"x_min":-50,"x_max":453,"o":"m 181 -14 q 38 172 -3 -14 l 81 372 l -50 321 l -22 456 l 108 508 l 200 936 l 388 936 l 314 589 l 453 644 l 425 510 l 285 454 l 228 188 q 230 140 221 153 q 269 126 239 126 q 336 136 306 126 l 310 7 q 181 -14 251 -14 z "},"m":{"ha":1193,"x_min":1,"x_max":1157,"o":"m 1 0 l 140 658 l 314 658 l 307 594 q 423 651 363 631 q 549 672 483 672 q 652 651 618 672 q 699 592 686 631 q 815 650 751 628 q 960 672 879 672 q 1111 613 1065 672 q 1132 433 1157 554 l 1040 0 l 856 0 l 943 413 q 938 506 957 478 q 851 535 919 535 q 700 475 768 535 q 694 418 701 451 l 607 0 l 432 0 l 519 413 q 517 504 532 474 q 443 535 503 535 q 360 513 401 535 q 283 464 319 492 l 186 0 l 1 0 z "},"ṃ":{"ha":1193,"x_min":1,"x_max":1157,"o":"m 1 0 l 140 658 l 314 658 l 307 594 q 423 651 363 631 q 549 672 483 672 q 652 651 618 672 q 699 592 686 631 q 815 650 751 628 q 960 672 879 672 q 1111 613 1065 672 q 1132 433 1157 554 l 1040 0 l 856 0 l 943 413 q 938 506 957 478 q 851 535 919 535 q 700 475 768 535 q 694 418 701 451 l 607 0 l 432 0 l 519 413 q 517 504 532 474 q 443 535 503 535 q 360 513 401 535 q 283 464 319 492 l 186 0 l 1 0 m 411 -251 l 440 -114 l 589 -114 l 560 -251 l 411 -251 z "},"n":{"ha":817,"x_min":1,"x_max":806,"o":"m 1 0 l 140 658 l 314 658 l 308 596 q 422 649 356 626 q 556 672 488 672 q 753 422 806 672 l 664 0 l 476 0 l 564 413 q 558 507 578 479 q 469 535 539 535 q 371 515 418 535 q 288 467 324 496 l 189 0 l 1 0 z "},"ń":{"ha":817,"x_min":1,"x_max":806,"o":"m 386 725 l 553 985 l 715 985 l 538 725 l 386 725 m 1 0 l 140 658 l 314 658 l 308 596 q 422 649 356 626 q 556 672 488 672 q 753 422 806 672 l 664 0 l 476 0 l 564 413 q 558 507 578 479 q 469 535 539 535 q 371 515 418 535 q 288 467 324 496 l 189 0 l 1 0 z "},"ŉ":{"ha":850,"x_min":-40,"x_max":839,"o":"m -40 618 l 61 897 l 208 897 l 79 618 l -40 618 m 35 0 l 174 658 l 347 658 l 342 596 q 455 649 389 626 q 589 672 521 672 q 786 422 839 672 l 697 0 l 510 0 l 597 413 q 592 507 611 479 q 503 535 572 535 q 404 515 451 535 q 321 467 357 496 l 222 0 l 35 0 z "},"ň":{"ha":817,"x_min":1,"x_max":806,"o":"m 413 725 l 278 967 l 417 967 l 486 828 l 619 967 l 771 967 l 532 725 l 413 725 m 1 0 l 140 658 l 314 658 l 308 596 q 422 649 356 626 q 556 672 488 672 q 753 422 806 672 l 664 0 l 476 0 l 564 413 q 558 507 578 479 q 469 535 539 535 q 371 515 418 535 q 288 467 324 496 l 189 0 l 1 0 z "},"ņ":{"ha":817,"x_min":1,"x_max":806,"o":"m 1 0 l 140 658 l 314 658 l 308 596 q 422 649 356 626 q 556 672 488 672 q 753 422 806 672 l 664 0 l 476 0 l 564 413 q 558 507 578 479 q 469 535 539 535 q 371 515 418 535 q 288 467 324 496 l 189 0 l 1 0 m 163 -331 l 264 -51 l 411 -51 l 282 -331 l 163 -331 z "},"ṅ":{"ha":817,"x_min":1,"x_max":806,"o":"m 421 760 l 450 896 l 596 896 l 567 760 l 421 760 m 1 0 l 140 658 l 314 658 l 308 596 q 422 649 356 626 q 556 672 488 672 q 753 422 806 672 l 664 0 l 476 0 l 564 413 q 558 507 578 479 q 469 535 539 535 q 371 515 418 535 q 288 467 324 496 l 189 0 l 1 0 z "},"ṇ":{"ha":817,"x_min":1,"x_max":806,"o":"m 1 0 l 140 658 l 314 658 l 308 596 q 422 649 356 626 q 556 672 488 672 q 753 422 806 672 l 664 0 l 476 0 l 564 413 q 558 507 578 479 q 469 535 539 535 q 371 515 418 535 q 288 467 324 496 l 189 0 l 1 0 m 215 -251 l 244 -114 l 393 -114 l 364 -251 l 215 -251 z "},"ŋ":{"ha":815,"x_min":1,"x_max":781,"o":"m 367 -325 q 222 -300 279 -325 l 249 -171 q 329 -185 289 -185 q 417 -162 386 -185 q 457 -89 447 -139 l 564 413 q 556 507 578 479 q 461 535 535 535 q 371 515 418 535 q 288 467 324 496 l 189 0 l 1 0 l 140 658 l 314 658 l 308 596 q 422 649 356 626 q 556 672 488 672 q 733 611 686 672 q 753 422 781 550 l 640 -107 q 551 -265 619 -204 q 367 -325 482 -325 z "},"ṉ":{"ha":817,"x_min":1,"x_max":806,"o":"m 1 0 l 140 658 l 314 658 l 308 596 q 422 649 356 626 q 556 672 488 672 q 753 422 806 672 l 664 0 l 476 0 l 564 413 q 558 507 578 479 q 469 535 539 535 q 371 515 418 535 q 288 467 324 496 l 189 0 l 1 0 m 83 -215 l 107 -100 l 533 -100 l 510 -215 l 83 -215 z "},"ñ":{"ha":817,"x_min":1,"x_max":806,"o":"m 615 742 q 539 756 575 742 q 470 783 503 769 q 403 797 438 797 q 267 746 326 797 l 296 879 q 354 910 319 899 q 425 922 389 922 q 501 908 468 922 q 567 881 535 894 q 638 867 599 867 q 764 919 715 867 l 735 786 q 686 755 718 768 q 615 742 654 742 m 1 0 l 140 658 l 314 658 l 308 596 q 422 649 356 626 q 556 672 488 672 q 753 422 806 672 l 664 0 l 476 0 l 564 413 q 558 507 578 479 q 469 535 539 535 q 371 515 418 535 q 288 467 324 496 l 189 0 l 1 0 z "},"o":{"ha":818,"x_min":7,"x_max":792,"o":"m 325 -14 q 78 76 149 -14 q 42 329 7 165 q 178 583 76 493 q 471 672 279 672 q 721 583 650 672 q 757 329 792 493 q 622 76 722 165 q 325 -14 522 -14 m 360 146 q 497 187 450 146 q 567 329 544 228 q 561 472 588 431 q 438 513 535 513 q 301 472 349 513 q 232 329 253 431 q 236 187 210 228 q 360 146 263 146 z "},"ó":{"ha":818,"x_min":7,"x_max":792,"o":"m 397 725 l 564 985 l 726 985 l 549 725 l 397 725 m 325 -14 q 78 76 149 -14 q 42 329 7 165 q 178 583 76 493 q 471 672 279 672 q 721 583 650 672 q 757 329 792 493 q 622 76 722 165 q 325 -14 522 -14 m 360 146 q 497 187 450 146 q 567 329 544 228 q 561 472 588 431 q 438 513 535 513 q 301 472 349 513 q 232 329 253 431 q 236 187 210 228 q 360 146 263 146 z "},"ŏ":{"ha":818,"x_min":7,"x_max":792,"o":"m 482 725 q 338 783 386 725 q 313 943 290 842 l 429 943 q 431 867 419 900 q 499 833 443 833 q 578 867 547 833 q 618 943 608 900 l 750 943 q 661 783 728 842 q 482 725 594 725 m 325 -14 q 78 76 149 -14 q 42 329 7 165 q 178 583 76 493 q 471 672 279 672 q 721 583 650 672 q 757 329 792 493 q 622 76 722 165 q 325 -14 522 -14 m 360 146 q 497 187 450 146 q 567 329 544 228 q 561 472 588 431 q 438 513 535 513 q 301 472 349 513 q 232 329 253 431 q 236 187 210 228 q 360 146 263 146 z "},"ǒ":{"ha":818,"x_min":7,"x_max":792,"o":"m 422 725 l 288 967 l 426 967 l 496 828 l 629 967 l 781 967 l 542 725 l 422 725 m 325 -14 q 78 76 149 -14 q 42 329 7 165 q 178 583 76 493 q 471 672 279 672 q 721 583 650 672 q 757 329 792 493 q 622 76 722 165 q 325 -14 522 -14 m 360 146 q 497 187 450 146 q 567 329 544 228 q 561 472 588 431 q 438 513 535 513 q 301 472 349 513 q 232 329 253 431 q 236 187 210 228 q 360 146 263 146 z "},"ô":{"ha":818,"x_min":7,"x_max":792,"o":"m 236 725 l 474 967 l 593 967 l 729 725 l 592 725 l 518 864 l 389 725 l 236 725 m 325 -14 q 78 76 149 -14 q 42 329 7 165 q 178 583 76 493 q 471 672 279 672 q 721 583 650 672 q 757 329 792 493 q 622 76 722 165 q 325 -14 522 -14 m 360 146 q 497 187 450 146 q 567 329 544 228 q 561 472 588 431 q 438 513 535 513 q 301 472 349 513 q 232 329 253 431 q 236 187 210 228 q 360 146 263 146 z "},"ố":{"ha":817,"x_min":7,"x_max":939,"o":"m 665 886 l 797 1082 l 939 1082 l 796 886 l 665 886 m 243 724 l 457 911 l 600 911 l 736 724 l 592 724 l 521 836 l 404 724 l 243 724 m 325 -14 q 78 76 149 -14 q 42 329 7 165 q 178 583 76 493 q 471 672 279 672 q 721 583 650 672 q 757 329 792 493 q 622 76 722 165 q 325 -14 522 -14 m 360 146 q 497 187 450 146 q 567 329 544 228 q 561 472 588 431 q 438 513 535 513 q 301 472 349 513 q 232 329 253 431 q 236 187 210 228 q 360 146 263 146 z "},"ộ":{"ha":818,"x_min":7,"x_max":792,"o":"m 236 725 l 474 967 l 593 967 l 729 725 l 592 725 l 518 864 l 389 725 l 236 725 m 325 -14 q 78 76 149 -14 q 42 329 7 165 q 178 583 76 493 q 471 672 279 672 q 721 583 650 672 q 757 329 792 493 q 622 76 722 165 q 325 -14 522 -14 m 360 146 q 497 187 450 146 q 567 329 544 228 q 561 472 588 431 q 438 513 535 513 q 301 472 349 513 q 232 329 253 431 q 236 187 210 228 q 360 146 263 146 m 203 -251 l 232 -114 l 381 -114 l 351 -251 l 203 -251 z "},"ồ":{"ha":818,"x_min":7,"x_max":792,"o":"m 246 886 l 186 1082 l 328 1082 l 378 886 l 246 886 m 238 724 l 451 911 l 594 911 l 731 724 l 586 724 l 515 836 l 399 724 l 238 724 m 325 -14 q 78 76 149 -14 q 42 329 7 165 q 178 583 76 493 q 471 672 279 672 q 721 583 650 672 q 757 329 792 493 q 622 76 722 165 q 325 -14 522 -14 m 360 146 q 497 187 450 146 q 567 329 544 228 q 561 472 588 431 q 438 513 535 513 q 301 472 349 513 q 232 329 253 431 q 236 187 210 228 q 360 146 263 146 z "},"ổ":{"ha":817,"x_min":7,"x_max":953,"o":"m 675 856 l 696 953 q 782 967 760 956 q 808 1001 804 979 q 754 1039 815 1039 q 714 1034 733 1039 q 676 1022 694 1029 l 696 1108 q 747 1120 719 1115 q 813 1125 774 1125 q 919 1094 886 1125 q 942 1013 953 1063 q 901 939 932 967 q 813 903 869 911 l 803 856 l 675 856 m 247 724 l 461 911 l 604 911 l 740 724 l 596 724 l 525 836 l 408 724 l 247 724 m 325 -14 q 78 76 149 -14 q 42 329 7 165 q 178 583 76 493 q 471 672 279 672 q 721 583 650 672 q 757 329 792 493 q 622 76 722 165 q 325 -14 522 -14 m 360 146 q 497 187 450 146 q 567 329 544 228 q 561 472 588 431 q 438 513 535 513 q 301 472 349 513 q 232 329 253 431 q 236 187 210 228 q 360 146 263 146 z "},"ỗ":{"ha":818,"x_min":7,"x_max":792,"o":"m 647 932 q 571 946 607 932 q 502 974 535 960 q 435 988 469 988 q 299 936 358 988 l 325 1056 q 383 1087 347 1075 q 454 1099 418 1099 q 531 1085 497 1099 q 596 1057 564 1071 q 667 1043 628 1043 q 738 1057 707 1043 q 792 1096 769 1071 l 765 976 q 717 945 749 958 q 647 932 686 932 m 247 724 l 461 911 l 604 911 l 740 724 l 596 724 l 525 836 l 408 724 l 247 724 m 325 -14 q 78 76 149 -14 q 42 329 7 165 q 178 583 76 493 q 471 672 279 672 q 721 583 650 672 q 757 329 792 493 q 622 76 722 165 q 325 -14 522 -14 m 360 146 q 497 187 450 146 q 567 329 544 228 q 561 472 588 431 q 438 513 535 513 q 301 472 349 513 q 232 329 253 431 q 236 187 210 228 q 360 146 263 146 z "},"ö":{"ha":818,"x_min":7,"x_max":792,"o":"m 281 760 l 310 896 l 456 896 l 426 760 l 281 760 m 551 760 l 581 896 l 728 896 l 699 760 l 551 760 m 325 -14 q 78 76 149 -14 q 42 329 7 165 q 178 583 76 493 q 471 672 279 672 q 721 583 650 672 q 757 329 792 493 q 622 76 722 165 q 325 -14 522 -14 m 360 146 q 497 187 450 146 q 567 329 544 228 q 561 472 588 431 q 438 513 535 513 q 301 472 349 513 q 232 329 253 431 q 236 187 210 228 q 360 146 263 146 z "},"ọ":{"ha":818,"x_min":7,"x_max":792,"o":"m 325 -14 q 78 76 149 -14 q 42 329 7 165 q 178 583 76 493 q 471 672 279 672 q 721 583 650 672 q 757 329 792 493 q 622 76 722 165 q 325 -14 522 -14 m 360 146 q 497 187 450 146 q 567 329 544 228 q 561 472 588 431 q 438 513 535 513 q 301 472 349 513 q 232 329 253 431 q 236 187 210 228 q 360 146 263 146 m 203 -251 l 232 -114 l 381 -114 l 351 -251 l 203 -251 z "},"ò":{"ha":818,"x_min":7,"x_max":792,"o":"m 413 725 l 346 985 l 508 985 l 564 725 l 413 725 m 325 -14 q 78 76 149 -14 q 42 329 7 165 q 178 583 76 493 q 471 672 279 672 q 721 583 650 672 q 757 329 792 493 q 622 76 722 165 q 325 -14 522 -14 m 360 146 q 497 187 450 146 q 567 329 544 228 q 561 472 588 431 q 438 513 535 513 q 301 472 349 513 q 232 329 253 431 q 236 187 210 228 q 360 146 263 146 z "},"ỏ":{"ha":818,"x_min":7,"x_max":792,"o":"m 415 724 l 439 836 q 544 856 517 840 q 578 903 572 872 q 562 944 585 931 q 494 957 539 957 q 449 953 475 957 q 404 942 424 949 l 425 1035 q 567 1053 482 1053 q 694 1017 656 1053 q 721 919 733 981 q 675 831 708 861 q 572 788 642 800 l 558 724 l 415 724 m 325 -14 q 78 76 149 -14 q 42 329 7 165 q 178 583 76 493 q 471 672 279 672 q 721 583 650 672 q 757 329 792 493 q 622 76 722 165 q 325 -14 522 -14 m 360 146 q 497 187 450 146 q 567 329 544 228 q 561 472 588 431 q 438 513 535 513 q 301 472 349 513 q 232 329 253 431 q 236 187 210 228 q 360 146 263 146 z "},"ơ":{"ha":963,"x_min":7,"x_max":1024,"o":"m 325 -14 q 78 76 149 -14 q 42 329 7 165 q 178 583 76 493 q 471 672 279 672 q 717 588 643 672 q 833 624 796 589 q 889 744 871 660 l 1024 744 q 933 547 996 610 q 767 468 871 483 l 765 469 q 757 329 774 408 q 622 76 722 165 q 325 -14 522 -14 m 360 146 q 497 187 450 146 q 567 329 544 228 q 561 472 588 431 q 438 513 535 513 q 301 472 349 513 q 232 329 253 431 q 236 187 210 228 q 360 146 263 146 z "},"ớ":{"ha":963,"x_min":7,"x_max":1024,"o":"m 415 725 l 582 985 l 744 985 l 567 725 l 415 725 m 325 -14 q 78 76 149 -14 q 42 329 7 165 q 178 583 76 493 q 471 672 279 672 q 717 588 643 672 q 833 624 796 589 q 889 744 871 660 l 1024 744 q 933 547 996 610 q 767 468 871 483 l 765 469 q 757 329 774 408 q 622 76 722 165 q 325 -14 522 -14 m 360 146 q 497 187 450 146 q 567 329 544 228 q 561 472 588 431 q 438 513 535 513 q 301 472 349 513 q 232 329 253 431 q 236 187 210 228 q 360 146 263 146 z "},"ợ":{"ha":963,"x_min":7,"x_max":1024,"o":"m 325 -14 q 78 76 149 -14 q 42 329 7 165 q 178 583 76 493 q 471 672 279 672 q 717 588 643 672 q 833 624 796 589 q 889 744 871 660 l 1024 744 q 933 547 996 610 q 767 468 871 483 l 765 469 q 757 329 774 408 q 622 76 722 165 q 325 -14 522 -14 m 360 146 q 497 187 450 146 q 567 329 544 228 q 561 472 588 431 q 438 513 535 513 q 301 472 349 513 q 232 329 253 431 q 236 187 210 228 q 360 146 263 146 m 214 -251 l 243 -114 l 392 -114 l 363 -251 l 214 -251 z "},"ờ":{"ha":963,"x_min":7,"x_max":1024,"o":"m 433 725 l 367 985 l 529 985 l 585 725 l 433 725 m 325 -14 q 78 76 149 -14 q 42 329 7 165 q 178 583 76 493 q 471 672 279 672 q 717 588 643 672 q 833 624 796 589 q 889 744 871 660 l 1024 744 q 933 547 996 610 q 767 468 871 483 l 765 469 q 757 329 774 408 q 622 76 722 165 q 325 -14 522 -14 m 360 146 q 497 187 450 146 q 567 329 544 228 q 561 472 588 431 q 438 513 535 513 q 301 472 349 513 q 232 329 253 431 q 236 187 210 228 q 360 146 263 146 z "},"ở":{"ha":963,"x_min":7,"x_max":1024,"o":"m 410 724 l 433 836 q 539 856 511 840 q 572 903 567 872 q 556 944 579 931 q 489 957 533 957 q 444 953 469 957 q 399 942 418 949 l 419 1035 q 561 1053 476 1053 q 689 1017 650 1053 q 715 919 728 981 q 669 831 703 861 q 567 788 636 800 l 553 724 l 410 724 m 325 -14 q 78 76 149 -14 q 42 329 7 165 q 178 583 76 493 q 471 672 279 672 q 717 588 643 672 q 833 624 796 589 q 889 744 871 660 l 1024 744 q 933 547 996 610 q 767 468 871 483 l 765 469 q 757 329 774 408 q 622 76 722 165 q 325 -14 522 -14 m 360 146 q 497 187 450 146 q 567 329 544 228 q 561 472 588 431 q 438 513 535 513 q 301 472 349 513 q 232 329 253 431 q 236 187 210 228 q 360 146 263 146 z "},"ỡ":{"ha":963,"x_min":7,"x_max":1024,"o":"m 614 738 q 538 751 574 738 q 469 779 501 765 q 401 793 436 793 q 265 742 325 793 l 294 875 q 353 906 318 894 q 424 918 388 918 q 500 904 467 918 q 565 876 533 890 q 636 863 597 863 q 763 915 714 863 l 733 782 q 685 751 717 764 q 614 738 653 738 m 325 -14 q 78 76 149 -14 q 42 329 7 165 q 178 583 76 493 q 471 672 279 672 q 717 588 643 672 q 833 624 796 589 q 889 744 871 660 l 1024 744 q 933 547 996 610 q 767 468 871 483 l 765 469 q 757 329 774 408 q 622 76 722 165 q 325 -14 522 -14 m 360 146 q 497 187 450 146 q 567 329 544 228 q 561 472 588 431 q 438 513 535 513 q 301 472 349 513 q 232 329 253 431 q 236 187 210 228 q 360 146 263 146 z "},"ő":{"ha":818,"x_min":7,"x_max":885,"o":"m 240 724 l 403 968 l 568 968 l 389 724 l 240 724 m 556 724 l 718 968 l 885 968 l 704 724 l 556 724 m 325 -14 q 78 76 149 -14 q 42 329 7 165 q 178 583 76 493 q 471 672 279 672 q 721 583 650 672 q 757 329 792 493 q 622 76 722 165 q 325 -14 522 -14 m 360 146 q 497 187 450 146 q 567 329 544 228 q 561 472 588 431 q 438 513 535 513 q 301 472 349 513 q 232 329 253 431 q 236 187 210 228 q 360 146 263 146 z "},"ō":{"ha":818,"x_min":7,"x_max":792,"o":"m 272 772 l 296 888 l 722 888 l 699 772 l 272 772 m 325 -14 q 78 76 149 -14 q 42 329 7 165 q 178 583 76 493 q 471 672 279 672 q 721 583 650 672 q 757 329 792 493 q 622 76 722 165 q 325 -14 522 -14 m 360 146 q 497 187 450 146 q 567 329 544 228 q 561 472 588 431 q 438 513 535 513 q 301 472 349 513 q 232 329 253 431 q 236 187 210 228 q 360 146 263 146 z "},"ø":{"ha":818,"x_min":17,"x_max":782,"o":"m 101 -74 l 154 17 q 45 133 74 53 q 42 329 17 213 q 178 583 76 493 q 471 672 279 672 q 542 668 508 672 l 581 733 l 688 733 l 635 644 q 751 528 721 608 q 757 329 782 449 q 622 76 722 165 q 325 -14 522 -14 q 284 -12 303 -14 q 246 -8 265 -11 l 208 -74 l 101 -74 m 247 174 l 449 513 l 438 513 q 301 472 349 513 q 232 329 253 431 q 247 174 204 210 m 339 146 l 360 146 q 497 187 450 146 q 567 329 544 228 q 575 431 579 392 q 543 489 571 469 l 339 146 z "},"ǿ":{"ha":818,"x_min":17,"x_max":782,"o":"m 374 725 l 540 985 l 703 985 l 525 725 l 374 725 m 101 -74 l 154 17 q 45 133 74 53 q 42 329 17 213 q 178 583 76 493 q 471 672 279 672 q 542 668 508 672 l 581 733 l 688 733 l 635 644 q 751 528 721 608 q 757 329 782 449 q 622 76 722 165 q 325 -14 522 -14 q 284 -12 303 -14 q 246 -8 265 -11 l 208 -74 l 101 -74 m 247 174 l 449 513 l 438 513 q 301 472 349 513 q 232 329 253 431 q 247 174 204 210 m 339 146 l 360 146 q 497 187 450 146 q 567 329 544 228 q 575 431 579 392 q 543 489 571 469 l 339 146 z "},"õ":{"ha":818,"x_min":7,"x_max":792,"o":"m 610 756 q 533 769 569 756 q 465 797 497 783 q 397 811 432 811 q 261 760 321 811 l 290 893 q 349 924 314 913 q 419 936 383 936 q 496 922 463 936 q 561 894 529 908 q 632 881 593 881 q 758 933 710 881 l 729 800 q 681 769 713 782 q 610 756 649 756 m 325 -14 q 78 76 149 -14 q 42 329 7 165 q 178 583 76 493 q 471 672 279 672 q 721 583 650 672 q 757 329 792 493 q 622 76 722 165 q 325 -14 522 -14 m 360 146 q 497 187 450 146 q 567 329 544 228 q 561 472 588 431 q 438 513 535 513 q 301 472 349 513 q 232 329 253 431 q 236 187 210 228 q 360 146 263 146 z "},"œ":{"ha":1292,"x_min":7,"x_max":1269,"o":"m 325 -14 q 78 76 149 -14 q 42 329 7 165 q 178 583 76 493 q 471 672 279 672 q 715 589 642 672 q 831 651 764 629 q 988 672 897 672 q 1205 592 1140 672 q 1242 383 1269 513 l 1217 264 l 740 264 q 783 156 739 185 q 947 126 826 126 q 1057 136 1000 126 q 1156 161 1114 146 l 1128 28 q 1014 -3 1078 7 q 878 -14 950 -14 q 729 9 794 -14 q 625 78 664 32 q 499 10 572 33 q 325 -14 425 -14 m 765 379 l 1078 379 l 1085 415 q 1071 505 1097 472 q 965 538 1044 538 q 828 500 872 538 q 765 379 783 463 m 360 146 q 497 187 450 146 q 567 329 544 228 q 561 472 588 431 q 438 513 535 513 q 301 472 349 513 q 232 329 253 431 q 236 187 210 228 q 360 146 263 146 z "},"p":{"ha":819,"x_min":-62,"x_max":797,"o":"m -62 -300 l 140 658 l 303 658 l 300 597 q 406 653 350 633 q 531 672 461 672 q 733 590 668 672 q 760 331 797 508 q 626 69 722 153 q 374 -14 531 -14 q 196 36 263 -14 l 125 -300 l -62 -300 m 356 124 q 493 174 439 124 q 571 333 547 224 q 569 487 593 439 q 449 535 544 535 q 289 475 363 535 l 225 174 q 278 138 249 151 q 356 124 308 124 z "},"þ":{"ha":819,"x_min":-62,"x_max":785,"o":"m -62 -300 l 207 972 l 394 972 l 321 622 q 418 660 365 647 q 526 672 471 672 q 676 636 615 672 q 761 525 738 600 q 760 331 785 450 q 625 69 722 153 q 374 -14 528 -14 q 196 36 263 -14 l 125 -300 l -62 -300 m 356 124 q 493 174 439 124 q 571 333 547 224 q 568 487 593 439 q 449 535 543 535 q 289 475 363 535 l 225 174 q 278 138 249 151 q 356 124 308 124 z "},"q":{"ha":794,"x_min":17,"x_max":800,"o":"m 593 -336 q 459 -289 497 -336 q 443 -142 421 -242 l 481 36 q 281 -14 393 -14 q 131 23 194 -14 q 42 136 68 60 q 42 331 17 213 q 174 590 79 508 q 418 672 268 672 q 534 653 488 672 q 615 597 581 633 l 639 658 l 800 658 l 635 -124 q 638 -180 625 -164 q 689 -196 650 -196 q 719 -193 704 -196 q 747 -186 733 -190 l 719 -315 q 661 -331 689 -325 q 593 -336 633 -336 m 357 124 q 441 138 406 124 q 510 174 476 151 l 574 475 q 517 520 549 506 q 442 535 486 535 q 302 487 349 535 q 233 333 256 439 q 238 174 210 224 q 357 124 267 124 z "},"r":{"ha":519,"x_min":1,"x_max":565,"o":"m 1 0 l 140 658 l 314 658 l 308 590 q 430 641 360 618 q 565 672 500 664 l 536 531 q 451 514 497 525 q 360 489 404 503 q 286 460 317 475 l 189 0 l 1 0 z "},"ŕ":{"ha":532,"x_min":7,"x_max":571,"o":"m 229 725 l 396 985 l 558 985 l 381 725 l 229 725 m 7 0 l 146 658 l 319 658 l 314 590 q 435 641 365 618 q 571 672 506 664 l 542 531 q 456 514 503 525 q 366 489 410 503 q 292 460 322 475 l 194 0 l 7 0 z "},"ř":{"ha":525,"x_min":0,"x_max":590,"o":"m 232 725 l 97 967 l 236 967 l 306 828 l 439 967 l 590 967 l 351 725 l 232 725 m 0 0 l 139 658 l 313 658 l 307 590 q 428 641 358 618 q 564 672 499 664 l 535 531 q 449 514 496 525 q 359 489 403 503 q 285 460 315 475 l 188 0 l 0 0 z "},"ŗ":{"ha":524,"x_min":-96,"x_max":563,"o":"m -1 0 l 138 658 l 311 658 l 306 590 q 427 641 357 618 q 563 672 497 664 l 533 531 q 448 514 494 525 q 358 489 401 503 q 283 460 314 475 l 186 0 l -1 0 m -96 -331 l 6 -51 l 153 -51 l 24 -331 l -96 -331 z "},"ṛ":{"ha":526,"x_min":-43,"x_max":565,"o":"m 1 0 l 140 658 l 314 658 l 308 590 q 430 641 360 618 q 565 672 500 664 l 536 531 q 451 514 497 525 q 360 489 404 503 q 286 460 317 475 l 189 0 l 1 0 m -43 -251 l -14 -114 l 135 -114 l 106 -251 l -43 -251 z "},"ṝ":{"ha":538,"x_min":-22,"x_max":576,"o":"m 115 765 l 139 881 l 565 881 l 542 765 l 115 765 m 13 0 l 151 658 l 325 658 l 319 590 q 441 641 371 618 q 576 672 511 664 l 547 531 q 462 514 508 525 q 372 489 415 503 q 297 460 328 475 l 200 0 l 13 0 m -22 -251 l 7 -114 l 156 -114 l 126 -251 l -22 -251 z "},"ṟ":{"ha":525,"x_min":-158,"x_max":564,"o":"m 0 0 l 139 658 l 313 658 l 307 590 q 428 641 358 618 q 564 672 499 664 l 535 531 q 449 514 496 525 q 359 489 403 503 q 285 460 315 475 l 188 0 l 0 0 m -158 -215 l -135 -100 l 292 -100 l 268 -215 l -158 -215 z "},"s":{"ha":654,"x_min":-10,"x_max":607,"o":"m 229 -14 q 92 -3 156 -14 q -10 22 28 7 l 24 178 q 127 148 68 158 q 238 138 186 138 q 338 146 307 138 q 374 183 368 154 q 340 232 381 217 q 219 275 299 247 q 95 351 135 306 q 74 476 56 396 q 169 622 94 571 q 406 672 244 672 q 519 663 467 672 q 607 642 572 654 l 574 488 q 494 515 540 506 q 406 524 447 524 q 309 515 346 524 q 265 479 272 507 q 294 436 260 449 q 406 399 329 424 q 548 314 515 363 q 564 186 581 265 q 465 37 543 88 q 229 -14 386 -14 z "},"ś":{"ha":654,"x_min":-10,"x_max":644,"o":"m 315 725 l 482 985 l 644 985 l 467 725 l 315 725 m 229 -14 q 92 -3 156 -14 q -10 22 28 7 l 24 178 q 127 148 68 158 q 238 138 186 138 q 338 146 307 138 q 374 183 368 154 q 340 232 381 217 q 219 275 299 247 q 95 351 135 306 q 74 476 56 396 q 169 622 94 571 q 406 672 244 672 q 519 663 467 672 q 607 642 572 654 l 574 488 q 494 515 540 506 q 406 524 447 524 q 309 515 346 524 q 265 479 272 507 q 294 436 260 449 q 406 399 329 424 q 548 314 515 363 q 564 186 581 265 q 465 37 543 88 q 229 -14 386 -14 z "},"š":{"ha":654,"x_min":-10,"x_max":697,"o":"m 339 725 l 204 967 l 343 967 l 413 828 l 546 967 l 697 967 l 458 725 l 339 725 m 229 -14 q 92 -3 156 -14 q -10 22 28 7 l 24 178 q 127 148 68 158 q 238 138 186 138 q 338 146 307 138 q 374 183 368 154 q 340 232 381 217 q 219 275 299 247 q 95 351 135 306 q 74 476 56 396 q 169 622 94 571 q 406 672 244 672 q 519 663 467 672 q 607 642 572 654 l 574 488 q 494 515 540 506 q 406 524 447 524 q 309 515 346 524 q 265 479 272 507 q 294 436 260 449 q 406 399 329 424 q 548 314 515 363 q 564 186 581 265 q 465 37 543 88 q 229 -14 386 -14 z "},"ş":{"ha":654,"x_min":-10,"x_max":607,"o":"m 151 -333 q 96 -330 128 -333 q 49 -322 64 -326 l 69 -228 q 151 -239 107 -239 q 240 -230 213 -239 q 272 -187 267 -221 q 253 -144 279 -151 q 178 -136 226 -136 l 117 -136 l 178 -12 q 70 -1 119 -10 q -10 22 21 8 l 24 178 q 127 148 68 158 q 238 138 186 138 q 338 146 307 138 q 374 183 368 154 q 340 232 381 217 q 219 275 299 247 q 95 351 135 306 q 74 476 56 396 q 169 622 94 571 q 406 672 244 672 q 519 663 467 672 q 607 642 572 654 l 574 488 q 494 515 540 506 q 406 524 447 524 q 309 515 346 524 q 265 479 272 507 q 294 436 260 449 q 406 399 329 424 q 548 314 515 363 q 564 186 581 265 q 483 50 546 99 q 301 -10 421 1 l 272 -62 q 375 -97 346 -62 q 393 -189 404 -131 q 319 -295 379 -257 q 151 -333 260 -333 z "},"ŝ":{"ha":654,"x_min":-10,"x_max":658,"o":"m 165 739 l 403 981 l 522 981 l 658 739 l 521 739 l 447 878 l 318 739 l 165 739 m 229 -14 q 92 -3 156 -14 q -10 22 28 7 l 24 178 q 127 148 68 158 q 238 138 186 138 q 338 146 307 138 q 374 183 368 154 q 340 232 381 217 q 219 275 299 247 q 95 351 135 306 q 74 476 56 396 q 169 622 94 571 q 406 672 244 672 q 519 663 467 672 q 607 642 572 654 l 574 488 q 494 515 540 506 q 406 524 447 524 q 309 515 346 524 q 265 479 272 507 q 294 436 260 449 q 406 399 329 424 q 548 314 515 363 q 564 186 581 265 q 465 37 543 88 q 229 -14 386 -14 z "},"ș":{"ha":654,"x_min":-10,"x_max":607,"o":"m 229 -14 q 92 -3 156 -14 q -10 22 28 7 l 24 178 q 127 148 68 158 q 238 138 186 138 q 338 146 307 138 q 374 183 368 154 q 340 232 381 217 q 219 275 299 247 q 95 351 135 306 q 74 476 56 396 q 169 622 94 571 q 406 672 244 672 q 519 663 467 672 q 607 642 572 654 l 574 488 q 494 515 540 506 q 406 524 447 524 q 309 515 346 524 q 265 479 272 507 q 294 436 260 449 q 406 399 329 424 q 548 314 515 363 q 564 186 581 265 q 465 37 543 88 q 229 -14 386 -14 m 72 -314 l 165 -65 l 326 -65 l 215 -314 l 72 -314 z "},"ṡ":{"ha":654,"x_min":-10,"x_max":607,"o":"m 331 760 l 360 896 l 506 896 l 476 760 l 331 760 m 229 -14 q 92 -3 156 -14 q -10 22 28 7 l 24 178 q 127 148 68 158 q 238 138 186 138 q 338 146 307 138 q 374 183 368 154 q 340 232 381 217 q 219 275 299 247 q 95 351 135 306 q 74 476 56 396 q 169 622 94 571 q 406 672 244 672 q 519 663 467 672 q 607 642 572 654 l 574 488 q 494 515 540 506 q 406 524 447 524 q 309 515 346 524 q 265 479 272 507 q 294 436 260 449 q 406 399 329 424 q 548 314 515 363 q 564 186 581 265 q 465 37 543 88 q 229 -14 386 -14 z "},"ṣ":{"ha":654,"x_min":-10,"x_max":607,"o":"m 229 -14 q 92 -3 156 -14 q -10 22 28 7 l 24 178 q 127 148 68 158 q 238 138 186 138 q 338 146 307 138 q 374 183 368 154 q 340 232 381 217 q 219 275 299 247 q 95 351 135 306 q 74 476 56 396 q 169 622 94 571 q 406 672 244 672 q 519 663 467 672 q 607 642 572 654 l 574 488 q 494 515 540 506 q 406 524 447 524 q 309 515 346 524 q 265 479 272 507 q 294 436 260 449 q 406 399 329 424 q 548 314 515 363 q 564 186 581 265 q 465 37 543 88 q 229 -14 386 -14 m 139 -251 l 168 -114 l 317 -114 l 288 -251 l 139 -251 z "},"ß":{"ha":879,"x_min":-7,"x_max":878,"o":"m 456 -14 q 263 18 343 -14 l 296 176 q 453 146 361 146 q 558 178 514 146 q 617 269 603 210 q 601 372 632 340 q 492 403 569 403 l 390 403 l 421 547 l 518 547 q 632 582 592 547 q 686 682 672 617 q 666 776 699 739 q 531 813 633 813 q 385 767 446 813 q 301 619 324 721 l 171 0 l -7 0 l 125 622 q 199 801 146 722 q 342 926 251 881 q 564 972 432 972 q 754 931 683 972 q 851 824 825 890 q 861 682 878 758 q 813 552 846 608 q 711 463 779 496 q 796 390 771 440 q 804 260 821 339 q 687 58 778 131 q 456 -14 596 -14 z "},"t":{"ha":504,"x_min":54,"x_max":532,"o":"m 258 -14 q 104 46 149 -14 q 82 208 60 106 l 147 514 l 54 514 l 85 658 l 178 658 l 208 800 l 407 856 l 365 658 l 532 658 l 490 514 l 335 514 l 272 221 q 278 147 261 167 q 356 126 296 126 q 439 140 393 126 l 411 11 q 258 -14 344 -14 z "},"ŧ":{"ha":511,"x_min":3,"x_max":532,"o":"m 258 -14 q 104 46 149 -14 q 82 208 60 106 l 94 271 l 3 271 l 29 397 l 122 397 l 147 514 l 54 514 l 85 658 l 178 658 l 208 800 l 407 856 l 365 658 l 532 658 l 490 514 l 335 514 l 310 397 l 478 397 l 451 271 l 282 271 l 272 221 q 278 147 261 167 q 356 126 296 126 q 439 140 393 126 l 411 11 q 258 -14 344 -14 z "},"ť":{"ha":551,"x_min":54,"x_max":786,"o":"m 538 776 l 639 1056 l 786 1056 l 657 776 l 538 776 m 258 -14 q 104 46 149 -14 q 82 208 60 106 l 147 514 l 54 514 l 85 658 l 178 658 l 208 800 l 407 856 l 365 658 l 532 658 l 490 514 l 335 514 l 272 221 q 278 147 261 167 q 356 126 296 126 q 439 140 393 126 l 411 11 q 258 -14 344 -14 z "},"ţ":{"ha":544,"x_min":54,"x_max":532,"o":"m 160 -333 q 104 -330 136 -333 q 57 -322 72 -326 l 78 -228 q 160 -239 115 -239 q 248 -230 221 -239 q 281 -187 275 -221 q 261 -144 288 -151 q 186 -136 235 -136 l 125 -136 l 189 -6 q 91 67 118 11 q 82 208 64 124 l 147 514 l 54 514 l 85 658 l 178 658 l 208 800 l 407 856 l 365 658 l 532 658 l 490 514 l 335 514 l 272 221 q 278 147 261 167 q 356 126 296 126 q 439 140 393 126 l 411 11 q 362 -3 388 3 q 308 -11 336 -8 l 281 -62 q 383 -97 354 -62 q 401 -189 413 -131 q 328 -295 388 -257 q 160 -333 268 -333 z "},"ț":{"ha":511,"x_min":53,"x_max":532,"o":"m 258 -14 q 104 46 149 -14 q 82 208 60 106 l 147 514 l 54 514 l 85 658 l 178 658 l 208 800 l 407 856 l 365 658 l 532 658 l 490 514 l 335 514 l 272 221 q 278 147 261 167 q 356 126 296 126 q 439 140 393 126 l 411 11 q 258 -14 344 -14 m 53 -344 l 154 -65 l 301 -65 l 172 -344 l 53 -344 z "},"ẗ":{"ha":525,"x_min":67,"x_max":597,"o":"m 150 892 l 179 1028 l 325 1028 l 296 892 l 150 892 m 421 892 l 450 1028 l 597 1028 l 568 892 l 421 892 m 271 -14 q 117 46 161 -14 q 94 208 72 106 l 160 514 l 67 514 l 97 658 l 190 658 l 221 800 l 419 856 l 378 658 l 544 658 l 503 514 l 347 514 l 285 221 q 291 147 274 167 q 368 126 308 126 q 451 140 406 126 l 424 11 q 271 -14 357 -14 z "},"ṭ":{"ha":511,"x_min":54,"x_max":532,"o":"m 258 -14 q 104 46 149 -14 q 82 208 60 106 l 147 514 l 54 514 l 85 658 l 178 658 l 208 800 l 407 856 l 365 658 l 532 658 l 490 514 l 335 514 l 272 221 q 278 147 261 167 q 356 126 296 126 q 439 140 393 126 l 411 11 q 258 -14 344 -14 m 115 -237 l 144 -100 l 293 -100 l 264 -237 l 115 -237 z "},"ṯ":{"ha":524,"x_min":-49,"x_max":532,"o":"m 258 -14 q 104 46 149 -14 q 82 208 60 106 l 147 514 l 54 514 l 85 658 l 178 658 l 208 800 l 407 856 l 365 658 l 532 658 l 490 514 l 335 514 l 272 221 q 278 147 261 167 q 356 126 296 126 q 439 140 393 126 l 411 11 q 258 -14 344 -14 m -49 -201 l -25 -86 l 401 -86 l 378 -201 l -49 -201 z "},"u":{"ha":817,"x_min":19,"x_max":796,"o":"m 240 -14 q 73 52 126 -14 q 46 246 19 118 l 133 658 l 321 658 l 235 250 q 243 153 221 183 q 335 124 265 124 q 429 143 383 124 q 510 192 475 163 l 608 658 l 796 658 l 657 0 l 483 0 l 489 63 q 379 8 440 29 q 240 -14 318 -14 z "},"ú":{"ha":817,"x_min":19,"x_max":796,"o":"m 382 725 l 549 985 l 711 985 l 533 725 l 382 725 m 240 -14 q 73 52 126 -14 q 46 246 19 118 l 133 658 l 321 658 l 235 250 q 243 153 221 183 q 335 124 265 124 q 429 143 383 124 q 510 192 475 163 l 608 658 l 796 658 l 657 0 l 483 0 l 489 63 q 379 8 440 29 q 240 -14 318 -14 z "},"ŭ":{"ha":817,"x_min":19,"x_max":796,"o":"m 489 725 q 345 783 393 725 q 319 943 297 842 l 436 943 q 438 867 426 900 q 506 833 450 833 q 585 867 554 833 q 625 943 615 900 l 757 943 q 668 783 735 842 q 489 725 601 725 m 240 -14 q 73 52 126 -14 q 46 246 19 118 l 133 658 l 321 658 l 235 250 q 243 153 221 183 q 335 124 265 124 q 429 143 383 124 q 510 192 475 163 l 608 658 l 796 658 l 657 0 l 483 0 l 489 63 q 379 8 440 29 q 240 -14 318 -14 z "},"ǔ":{"ha":817,"x_min":19,"x_max":796,"o":"m 419 725 l 285 967 l 424 967 l 493 828 l 626 967 l 778 967 l 539 725 l 419 725 m 240 -14 q 73 52 126 -14 q 46 246 19 118 l 133 658 l 321 658 l 235 250 q 243 153 221 183 q 335 124 265 124 q 429 143 383 124 q 510 192 475 163 l 608 658 l 796 658 l 657 0 l 483 0 l 489 63 q 379 8 440 29 q 240 -14 318 -14 z "},"û":{"ha":817,"x_min":19,"x_max":796,"o":"m 232 725 l 469 967 l 589 967 l 725 725 l 588 725 l 514 864 l 385 725 l 232 725 m 240 -14 q 73 52 126 -14 q 46 246 19 118 l 133 658 l 321 658 l 235 250 q 243 153 221 183 q 335 124 265 124 q 429 143 383 124 q 510 192 475 163 l 608 658 l 796 658 l 657 0 l 483 0 l 489 63 q 379 8 440 29 q 240 -14 318 -14 z "},"ü":{"ha":817,"x_min":19,"x_max":796,"o":"m 276 760 l 306 896 l 451 896 l 422 760 l 276 760 m 547 760 l 576 896 l 724 896 l 694 760 l 547 760 m 240 -14 q 73 52 126 -14 q 46 246 19 118 l 133 658 l 321 658 l 235 250 q 243 153 221 183 q 335 124 265 124 q 429 143 383 124 q 510 192 475 163 l 608 658 l 796 658 l 657 0 l 483 0 l 489 63 q 379 8 440 29 q 240 -14 318 -14 z "},"ǘ":{"ha":817,"x_min":19,"x_max":796,"o":"m 432 882 l 551 1061 l 693 1061 l 564 882 l 432 882 m 260 725 l 288 854 l 426 854 l 399 725 l 260 725 m 538 725 l 565 854 l 706 854 l 678 725 l 538 725 m 240 -14 q 73 52 126 -14 q 46 246 19 118 l 133 658 l 321 658 l 235 250 q 243 153 221 183 q 335 124 265 124 q 429 143 383 124 q 510 192 475 163 l 608 658 l 796 658 l 657 0 l 483 0 l 489 63 q 379 8 440 29 q 240 -14 318 -14 z "},"ǚ":{"ha":817,"x_min":19,"x_max":796,"o":"m 453 876 l 332 1044 l 464 1044 l 525 943 l 631 1044 l 774 1044 l 582 876 l 453 876 m 275 724 l 303 853 l 443 853 l 415 724 l 275 724 m 554 724 l 582 853 l 721 853 l 693 724 l 554 724 m 240 -14 q 73 52 126 -14 q 46 246 19 118 l 133 658 l 321 658 l 235 250 q 243 153 221 183 q 335 124 265 124 q 429 143 383 124 q 510 192 475 163 l 608 658 l 796 658 l 657 0 l 483 0 l 489 63 q 379 8 440 29 q 240 -14 318 -14 z "},"ǜ":{"ha":817,"x_min":19,"x_max":796,"o":"m 460 882 l 406 1061 l 547 1061 l 592 882 l 460 882 m 281 725 l 308 854 l 447 854 l 419 725 l 281 725 m 558 725 l 586 854 l 726 854 l 699 725 l 558 725 m 240 -14 q 73 52 126 -14 q 46 246 19 118 l 133 658 l 321 658 l 235 250 q 243 153 221 183 q 335 124 265 124 q 429 143 383 124 q 510 192 475 163 l 608 658 l 796 658 l 657 0 l 483 0 l 489 63 q 379 8 440 29 q 240 -14 318 -14 z "},"ǖ":{"ha":817,"x_min":19,"x_max":796,"o":"m 325 951 l 349 1067 l 775 1067 l 751 951 l 325 951 m 281 746 l 310 882 l 456 882 l 426 746 l 281 746 m 551 746 l 581 882 l 728 882 l 699 746 l 551 746 m 240 -14 q 73 52 126 -14 q 46 246 19 118 l 133 658 l 321 658 l 235 250 q 243 153 221 183 q 335 124 265 124 q 429 143 383 124 q 510 192 475 163 l 608 658 l 796 658 l 657 0 l 483 0 l 489 63 q 379 8 440 29 q 240 -14 318 -14 z "},"ụ":{"ha":817,"x_min":19,"x_max":796,"o":"m 240 -14 q 73 52 126 -14 q 46 246 19 118 l 133 658 l 321 658 l 235 250 q 243 153 221 183 q 335 124 265 124 q 429 143 383 124 q 510 192 475 163 l 608 658 l 796 658 l 657 0 l 483 0 l 489 63 q 379 8 440 29 q 240 -14 318 -14 m 193 -251 l 222 -114 l 371 -114 l 342 -251 l 193 -251 z "},"ù":{"ha":817,"x_min":19,"x_max":796,"o":"m 424 725 l 357 985 l 519 985 l 575 725 l 424 725 m 240 -14 q 73 52 126 -14 q 46 246 19 118 l 133 658 l 321 658 l 235 250 q 243 153 221 183 q 335 124 265 124 q 429 143 383 124 q 510 192 475 163 l 608 658 l 796 658 l 657 0 l 483 0 l 489 63 q 379 8 440 29 q 240 -14 318 -14 z "},"ủ":{"ha":817,"x_min":19,"x_max":796,"o":"m 408 724 l 432 836 q 538 856 510 840 q 571 903 565 872 q 555 944 578 931 q 488 957 532 957 q 442 953 468 957 q 397 942 417 949 l 418 1035 q 560 1053 475 1053 q 688 1017 649 1053 q 714 919 726 981 q 668 831 701 861 q 565 788 635 800 l 551 724 l 408 724 m 240 -14 q 73 52 126 -14 q 46 246 19 118 l 133 658 l 321 658 l 235 250 q 243 153 221 183 q 335 124 265 124 q 429 143 383 124 q 510 192 475 163 l 608 658 l 796 658 l 657 0 l 483 0 l 489 63 q 379 8 440 29 q 240 -14 318 -14 z "},"ư":{"ha":1001,"x_min":19,"x_max":1063,"o":"m 240 -14 q 73 52 126 -14 q 46 246 19 118 l 133 658 l 321 658 l 235 250 q 243 153 221 183 q 335 124 265 124 q 429 143 383 124 q 510 192 475 163 l 608 658 l 796 658 l 781 589 q 878 631 846 594 q 928 744 911 667 l 1063 744 q 959 533 1032 594 q 754 464 886 471 l 657 0 l 483 0 l 489 63 q 379 8 440 29 q 240 -14 318 -14 z "},"ứ":{"ha":1001,"x_min":19,"x_max":1063,"o":"m 408 725 l 575 985 l 738 985 l 560 725 l 408 725 m 240 -14 q 73 52 126 -14 q 46 246 19 118 l 133 658 l 321 658 l 235 250 q 243 153 221 183 q 335 124 265 124 q 429 143 383 124 q 510 192 475 163 l 608 658 l 796 658 l 781 589 q 878 631 846 594 q 928 744 911 667 l 1063 744 q 959 533 1032 594 q 754 464 886 471 l 657 0 l 483 0 l 489 63 q 379 8 440 29 q 240 -14 318 -14 z "},"ự":{"ha":1001,"x_min":19,"x_max":1063,"o":"m 240 -14 q 73 52 126 -14 q 46 246 19 118 l 133 658 l 321 658 l 235 250 q 243 153 221 183 q 335 124 265 124 q 429 143 383 124 q 510 192 475 163 l 608 658 l 796 658 l 781 589 q 878 631 846 594 q 928 744 911 667 l 1063 744 q 959 533 1032 594 q 754 464 886 471 l 657 0 l 483 0 l 489 63 q 379 8 440 29 q 240 -14 318 -14 m 199 -251 l 228 -114 l 376 -114 l 347 -251 l 199 -251 z "},"ừ":{"ha":1001,"x_min":19,"x_max":1063,"o":"m 419 725 l 353 985 l 515 985 l 571 725 l 419 725 m 240 -14 q 73 52 126 -14 q 46 246 19 118 l 133 658 l 321 658 l 235 250 q 243 153 221 183 q 335 124 265 124 q 429 143 383 124 q 510 192 475 163 l 608 658 l 796 658 l 781 589 q 878 631 846 594 q 928 744 911 667 l 1063 744 q 959 533 1032 594 q 754 464 886 471 l 657 0 l 483 0 l 489 63 q 379 8 440 29 q 240 -14 318 -14 z "},"ử":{"ha":1001,"x_min":19,"x_max":1063,"o":"m 415 724 l 439 836 q 544 856 517 840 q 578 903 572 872 q 562 944 585 931 q 494 957 539 957 q 449 953 475 957 q 404 942 424 949 l 425 1035 q 567 1053 482 1053 q 694 1017 656 1053 q 721 919 733 981 q 675 831 708 861 q 572 788 642 800 l 558 724 l 415 724 m 240 -14 q 73 52 126 -14 q 46 246 19 118 l 133 658 l 321 658 l 235 250 q 243 153 221 183 q 335 124 265 124 q 429 143 383 124 q 510 192 475 163 l 608 658 l 796 658 l 781 589 q 878 631 846 594 q 928 744 911 667 l 1063 744 q 959 533 1032 594 q 754 464 886 471 l 657 0 l 483 0 l 489 63 q 379 8 440 29 q 240 -14 318 -14 z "},"ữ":{"ha":1001,"x_min":19,"x_max":1063,"o":"m 611 738 q 535 751 571 738 q 466 779 499 765 q 399 793 433 793 q 263 742 322 793 l 292 875 q 350 906 315 894 q 421 918 385 918 q 497 904 464 918 q 563 876 531 890 q 633 863 594 863 q 760 915 711 863 l 731 782 q 682 751 714 764 q 611 738 650 738 m 240 -14 q 73 52 126 -14 q 46 246 19 118 l 133 658 l 321 658 l 235 250 q 243 153 221 183 q 335 124 265 124 q 429 143 383 124 q 510 192 475 163 l 608 658 l 796 658 l 781 589 q 878 631 846 594 q 928 744 911 667 l 1063 744 q 959 533 1032 594 q 754 464 886 471 l 657 0 l 483 0 l 489 63 q 379 8 440 29 q 240 -14 318 -14 z "},"ű":{"ha":817,"x_min":19,"x_max":857,"o":"m 213 724 l 375 968 l 540 968 l 361 724 l 213 724 m 528 724 l 690 968 l 857 968 l 676 724 l 528 724 m 240 -14 q 73 52 126 -14 q 46 246 19 118 l 133 658 l 321 658 l 235 250 q 243 153 221 183 q 335 124 265 124 q 429 143 383 124 q 510 192 475 163 l 608 658 l 796 658 l 657 0 l 483 0 l 489 63 q 379 8 440 29 q 240 -14 318 -14 z "},"ū":{"ha":817,"x_min":19,"x_max":796,"o":"m 283 772 l 307 888 l 733 888 l 710 772 l 283 772 m 240 -14 q 73 52 126 -14 q 46 246 19 118 l 133 658 l 321 658 l 235 250 q 243 153 221 183 q 335 124 265 124 q 429 143 383 124 q 510 192 475 163 l 608 658 l 796 658 l 657 0 l 483 0 l 489 63 q 379 8 440 29 q 240 -14 318 -14 z "},"ų":{"ha":858,"x_min":19,"x_max":796,"o":"m 513 -306 q 408 -274 449 -306 q 379 -179 367 -243 q 423 -77 390 -122 q 496 0 456 -32 l 489 63 q 379 8 440 29 q 240 -14 318 -14 q 73 52 126 -14 q 46 246 19 118 l 133 658 l 321 658 l 235 250 q 243 153 221 183 q 335 124 265 124 q 429 143 383 124 q 510 192 475 163 l 608 658 l 796 658 l 657 0 q 572 -67 603 -29 q 533 -144 542 -104 q 543 -185 528 -174 q 586 -196 558 -196 q 622 -192 603 -196 q 656 -181 642 -187 l 633 -286 q 580 -300 613 -294 q 513 -306 547 -306 z "},"ů":{"ha":817,"x_min":19,"x_max":796,"o":"m 481 725 q 366 773 401 725 q 344 890 331 821 q 413 1008 358 960 q 550 1057 468 1057 q 668 1008 632 1057 q 689 890 704 960 q 621 773 675 821 q 481 725 567 725 m 499 811 q 567 834 543 811 q 597 890 590 857 q 588 947 604 924 q 532 969 571 969 q 467 947 492 969 q 435 890 442 924 q 445 834 428 857 q 499 811 463 811 m 240 -14 q 73 52 126 -14 q 46 246 19 118 l 133 658 l 321 658 l 235 250 q 243 153 221 183 q 335 124 265 124 q 429 143 383 124 q 510 192 475 163 l 608 658 l 796 658 l 657 0 l 483 0 l 489 63 q 379 8 440 29 q 240 -14 318 -14 z "},"ũ":{"ha":817,"x_min":19,"x_max":796,"o":"m 608 742 q 532 756 568 742 q 463 783 496 769 q 396 797 431 797 q 260 746 319 797 l 289 879 q 347 910 313 899 q 418 922 382 922 q 494 908 461 922 q 560 881 528 894 q 631 867 592 867 q 757 919 708 867 l 728 786 q 679 755 711 768 q 608 742 647 742 m 240 -14 q 73 52 126 -14 q 46 246 19 118 l 133 658 l 321 658 l 235 250 q 243 153 221 183 q 335 124 265 124 q 429 143 383 124 q 510 192 475 163 l 608 658 l 796 658 l 657 0 l 483 0 l 489 63 q 379 8 440 29 q 240 -14 318 -14 z "},"v":{"ha":824,"x_min":113,"x_max":832,"o":"m 233 0 l 113 658 l 301 658 l 365 189 l 631 658 l 832 658 l 435 0 l 233 0 z "},"w":{"ha":1051,"x_min":113,"x_max":1061,"o":"m 147 0 l 113 658 l 300 658 l 310 231 l 492 574 l 510 658 l 653 658 l 688 231 l 875 658 l 1061 658 l 750 0 l 585 0 l 539 385 l 329 0 l 147 0 z "},"ẃ":{"ha":1051,"x_min":113,"x_max":1061,"o":"m 521 725 l 688 985 l 850 985 l 672 725 l 521 725 m 147 0 l 113 658 l 300 658 l 310 231 l 492 574 l 510 658 l 653 658 l 688 231 l 875 658 l 1061 658 l 750 0 l 585 0 l 539 385 l 329 0 l 147 0 z "},"ŵ":{"ha":1051,"x_min":113,"x_max":1061,"o":"m 358 725 l 596 967 l 715 967 l 851 725 l 714 725 l 640 864 l 511 725 l 358 725 m 147 0 l 113 658 l 300 658 l 310 231 l 492 574 l 510 658 l 653 658 l 688 231 l 875 658 l 1061 658 l 750 0 l 585 0 l 539 385 l 329 0 l 147 0 z "},"ẅ":{"ha":1051,"x_min":113,"x_max":1061,"o":"m 403 760 l 432 896 l 578 896 l 549 760 l 403 760 m 674 760 l 703 896 l 850 896 l 821 760 l 674 760 m 147 0 l 113 658 l 300 658 l 310 231 l 492 574 l 510 658 l 653 658 l 688 231 l 875 658 l 1061 658 l 750 0 l 585 0 l 539 385 l 329 0 l 147 0 z "},"ẁ":{"ha":1051,"x_min":113,"x_max":1061,"o":"m 519 725 l 453 985 l 615 985 l 671 725 l 519 725 m 147 0 l 113 658 l 300 658 l 310 231 l 492 574 l 510 658 l 653 658 l 688 231 l 875 658 l 1061 658 l 750 0 l 585 0 l 539 385 l 329 0 l 147 0 z "},"x":{"ha":781,"x_min":-43,"x_max":794,"o":"m -43 0 l 281 335 l 106 658 l 308 658 l 410 467 l 592 658 l 794 658 l 485 335 l 665 0 l 461 0 l 353 201 l 161 0 l -43 0 z "},"y":{"ha":833,"x_min":31,"x_max":797,"o":"m 211 -244 q 155 -242 189 -244 q 88 -237 121 -240 q 36 -229 56 -233 l 67 -86 q 138 -99 94 -94 q 211 -104 181 -104 q 392 -76 318 -104 q 481 21 465 -49 l 489 63 q 380 8 440 29 q 242 -14 319 -14 q 122 19 172 -14 q 51 110 72 51 q 47 246 31 168 l 135 658 l 322 658 l 236 250 q 241 153 222 183 q 336 124 260 124 q 431 143 385 124 q 511 192 476 163 l 610 658 l 797 658 l 668 46 q 600 -105 650 -39 q 456 -208 550 -171 q 211 -244 363 -244 z "},"ý":{"ha":833,"x_min":29,"x_max":796,"o":"m 429 725 l 596 985 l 758 985 l 581 725 l 429 725 m 210 -244 q 153 -242 188 -244 q 87 -237 119 -240 q 35 -229 54 -233 l 65 -86 q 136 -99 93 -94 q 210 -104 179 -104 q 390 -76 317 -104 q 479 21 464 -49 l 488 63 q 378 8 439 29 q 240 -14 318 -14 q 121 19 171 -14 q 50 110 71 51 q 46 246 29 168 l 133 658 l 321 658 l 235 250 q 240 153 221 183 q 335 124 258 124 q 429 143 383 124 q 510 192 475 163 l 608 658 l 796 658 l 667 46 q 599 -105 649 -39 q 455 -208 549 -171 q 210 -244 361 -244 z "},"ŷ":{"ha":833,"x_min":29,"x_max":796,"o":"m 271 725 l 508 967 l 628 967 l 764 725 l 626 725 l 553 864 l 424 725 l 271 725 m 210 -244 q 153 -242 188 -244 q 87 -237 119 -240 q 35 -229 54 -233 l 65 -86 q 136 -99 93 -94 q 210 -104 179 -104 q 390 -76 317 -104 q 479 21 464 -49 l 488 63 q 378 8 439 29 q 240 -14 318 -14 q 121 19 171 -14 q 50 110 71 51 q 46 246 29 168 l 133 658 l 321 658 l 235 250 q 240 153 221 183 q 335 124 258 124 q 429 143 383 124 q 510 192 475 163 l 608 658 l 796 658 l 667 46 q 599 -105 649 -39 q 455 -208 549 -171 q 210 -244 361 -244 z "},"ÿ":{"ha":833,"x_min":29,"x_max":796,"o":"m 321 779 l 350 915 l 496 915 l 467 779 l 321 779 m 592 779 l 621 915 l 768 915 l 739 779 l 592 779 m 210 -244 q 153 -242 188 -244 q 87 -237 119 -240 q 35 -229 54 -233 l 65 -86 q 136 -99 93 -94 q 210 -104 179 -104 q 390 -76 317 -104 q 479 21 464 -49 l 488 63 q 378 8 439 29 q 240 -14 318 -14 q 121 19 171 -14 q 50 110 71 51 q 46 246 29 168 l 133 658 l 321 658 l 235 250 q 240 153 221 183 q 335 124 258 124 q 429 143 383 124 q 510 192 475 163 l 608 658 l 796 658 l 667 46 q 599 -105 649 -39 q 455 -208 549 -171 q 210 -244 361 -244 z "},"ẏ":{"ha":833,"x_min":29,"x_max":796,"o":"m 449 760 l 478 896 l 624 896 l 594 760 l 449 760 m 210 -244 q 153 -242 188 -244 q 87 -237 119 -240 q 35 -229 54 -233 l 65 -86 q 136 -99 93 -94 q 210 -104 179 -104 q 390 -76 317 -104 q 479 21 464 -49 l 488 63 q 378 8 439 29 q 240 -14 318 -14 q 121 19 171 -14 q 50 110 71 51 q 46 246 29 168 l 133 658 l 321 658 l 235 250 q 240 153 221 183 q 335 124 258 124 q 429 143 383 124 q 510 192 475 163 l 608 658 l 796 658 l 667 46 q 599 -105 649 -39 q 455 -208 549 -171 q 210 -244 361 -244 z "},"ỵ":{"ha":833,"x_min":29,"x_max":796,"o":"m 210 -244 q 153 -242 188 -244 q 87 -237 119 -240 q 35 -229 54 -233 l 65 -86 q 136 -99 93 -94 q 210 -104 179 -104 q 390 -76 317 -104 q 479 21 464 -49 l 488 63 q 378 8 439 29 q 240 -14 318 -14 q 121 19 171 -14 q 50 110 71 51 q 46 246 29 168 l 133 658 l 321 658 l 235 250 q 240 153 221 183 q 335 124 258 124 q 429 143 383 124 q 510 192 475 163 l 608 658 l 796 658 l 667 46 q 599 -105 649 -39 q 455 -208 549 -171 q 210 -244 361 -244 m 608 -237 l 638 -100 l 786 -100 l 757 -237 l 608 -237 z "},"ỳ":{"ha":833,"x_min":29,"x_max":796,"o":"m 444 725 l 378 985 l 540 985 l 596 725 l 444 725 m 210 -244 q 153 -242 188 -244 q 87 -237 119 -240 q 35 -229 54 -233 l 65 -86 q 136 -99 93 -94 q 210 -104 179 -104 q 390 -76 317 -104 q 479 21 464 -49 l 488 63 q 378 8 439 29 q 240 -14 318 -14 q 121 19 171 -14 q 50 110 71 51 q 46 246 29 168 l 133 658 l 321 658 l 235 250 q 240 153 221 183 q 335 124 258 124 q 429 143 383 124 q 510 192 475 163 l 608 658 l 796 658 l 667 46 q 599 -105 649 -39 q 455 -208 549 -171 q 210 -244 361 -244 z "},"ỷ":{"ha":833,"x_min":29,"x_max":796,"o":"m 447 724 l 471 836 q 576 856 549 840 q 610 903 604 872 q 594 944 617 931 q 526 957 571 957 q 481 953 507 957 q 436 942 456 949 l 457 1035 q 599 1053 514 1053 q 726 1017 688 1053 q 753 919 765 981 q 707 831 740 861 q 604 788 674 800 l 590 724 l 447 724 m 210 -244 q 153 -242 188 -244 q 87 -237 119 -240 q 35 -229 54 -233 l 65 -86 q 136 -99 93 -94 q 210 -104 179 -104 q 390 -76 317 -104 q 479 21 464 -49 l 488 63 q 378 8 439 29 q 240 -14 318 -14 q 121 19 171 -14 q 50 110 71 51 q 46 246 29 168 l 133 658 l 321 658 l 235 250 q 240 153 221 183 q 335 124 258 124 q 429 143 383 124 q 510 192 475 163 l 608 658 l 796 658 l 667 46 q 599 -105 649 -39 q 455 -208 549 -171 q 210 -244 361 -244 z "},"ỹ":{"ha":833,"x_min":29,"x_max":796,"o":"m 638 742 q 561 756 597 742 q 492 783 525 769 q 425 797 460 797 q 289 746 349 797 l 318 879 q 376 910 342 899 q 447 922 411 922 q 524 908 490 922 q 589 881 557 894 q 660 867 621 867 q 786 919 738 867 l 757 786 q 708 755 740 768 q 638 742 676 742 m 210 -244 q 153 -242 188 -244 q 87 -237 119 -240 q 35 -229 54 -233 l 65 -86 q 136 -99 93 -94 q 210 -104 179 -104 q 390 -76 317 -104 q 479 21 464 -49 l 488 63 q 378 8 439 29 q 240 -14 318 -14 q 121 19 171 -14 q 50 110 71 51 q 46 246 29 168 l 133 658 l 321 658 l 235 250 q 240 153 221 183 q 335 124 258 124 q 429 143 383 124 q 510 192 475 163 l 608 658 l 796 658 l 667 46 q 599 -105 649 -39 q 455 -208 549 -171 q 210 -244 361 -244 z "},"z":{"ha":681,"x_min":-26,"x_max":679,"o":"m -26 0 l -7 97 l 411 503 l 93 503 l 126 658 l 679 658 l 656 544 l 246 144 l 581 144 l 550 0 l -26 0 z "},"ź":{"ha":681,"x_min":-26,"x_max":679,"o":"m 344 725 l 511 985 l 674 985 l 496 725 l 344 725 m -26 0 l -7 97 l 411 503 l 93 503 l 126 658 l 679 658 l 656 544 l 246 144 l 581 144 l 550 0 l -26 0 z "},"ž":{"ha":681,"x_min":-26,"x_max":715,"o":"m 357 725 l 222 967 l 361 967 l 431 828 l 564 967 l 715 967 l 476 725 l 357 725 m -26 0 l -7 97 l 411 503 l 93 503 l 126 658 l 679 658 l 656 544 l 246 144 l 581 144 l 550 0 l -26 0 z "},"ż":{"ha":681,"x_min":-26,"x_max":679,"o":"m 357 760 l 386 896 l 532 896 l 503 760 l 357 760 m -26 0 l -7 97 l 411 503 l 93 503 l 126 658 l 679 658 l 656 544 l 246 144 l 581 144 l 550 0 l -26 0 z "},"ẓ":{"ha":681,"x_min":-26,"x_max":679,"o":"m -26 0 l -7 97 l 411 503 l 93 503 l 126 658 l 679 658 l 656 544 l 246 144 l 581 144 l 550 0 l -26 0 m 136 -251 l 165 -114 l 314 -114 l 285 -251 l 136 -251 z "},"ﬁ":{"ha":761,"x_min":38,"x_max":742,"o":"m 38 0 l 146 514 l 54 514 l 85 658 l 176 658 l 190 724 q 289 892 213 826 q 521 958 365 958 q 692 931 632 958 l 663 792 q 612 806 647 801 q 549 811 576 811 q 428 794 468 811 q 376 718 389 776 l 364 658 l 742 658 l 603 0 l 415 0 l 524 514 l 333 514 l 225 0 l 38 0 z "},"ﬂ":{"ha":761,"x_min":38,"x_max":801,"o":"m 38 0 l 146 514 l 54 514 l 85 658 l 176 658 l 190 724 q 238 841 204 788 q 327 926 271 894 q 465 958 383 958 q 547 955 504 958 q 632 938 590 951 l 801 938 l 603 0 l 415 0 l 524 514 l 333 514 l 225 0 l 38 0 m 364 658 l 554 658 l 586 807 q 546 815 571 813 q 503 818 521 818 q 376 717 399 818 l 364 658 z "},"ª":{"ha":474,"x_min":96,"x_max":519,"o":"m 215 528 q 129 554 163 528 q 108 640 96 581 q 165 731 122 700 q 285 763 208 763 l 393 763 l 394 769 q 388 812 401 800 q 315 824 375 824 q 192 804 253 824 l 208 885 q 277 902 236 896 q 357 908 318 908 q 476 874 433 908 q 504 767 519 840 l 456 536 l 357 536 l 356 568 q 294 538 326 547 q 215 528 261 528 m 268 603 q 322 613 296 603 q 368 646 347 624 l 378 692 l 293 692 q 240 683 258 692 q 214 646 221 674 q 224 612 208 621 q 268 603 239 603 z "},"º":{"ha":501,"x_min":85,"x_max":565,"o":"m 283 528 q 125 718 85 528 q 201 860 146 813 q 365 908 256 908 q 524 718 565 908 q 448 576 504 625 q 283 528 392 528 m 301 611 q 374 638 349 611 q 410 718 399 664 q 410 798 421 772 q 347 824 399 824 q 238 718 260 824 q 236 638 226 664 q 301 611 246 611 z "},"ⁿ":{"ha":493,"x_min":94,"x_max":539,"o":"m 94 536 l 171 900 l 275 900 l 271 867 q 422 907 339 907 q 510 872 482 907 q 526 775 539 836 l 476 536 l 365 536 l 411 756 q 410 807 419 792 q 364 822 400 822 q 308 812 338 822 q 258 786 278 801 l 206 536 l 94 536 z "},"Δ":{"ha":896,"x_min":-26,"x_max":786,"o":"m -26 0 l -6 101 l 475 894 l 639 894 l 786 100 l 765 0 l -26 0 m 190 144 l 619 144 l 521 688 l 190 144 z "},"Ω":{"ha":1054,"x_min":-17,"x_max":1057,"o":"m -17 0 l 13 139 l 190 139 q 88 294 119 196 q 81 508 56 392 q 181 747 110 644 q 369 908 253 850 q 653 965 486 965 q 892 904 799 965 q 1021 740 985 843 q 1031 508 1057 636 q 936 290 1004 383 q 765 139 868 196 l 943 139 l 914 0 l 517 0 l 546 143 q 744 294 672 206 q 839 497 815 383 q 847 662 860 593 q 779 768 833 731 q 619 806 725 806 q 383 720 468 806 q 269 497 299 635 q 278 294 244 383 q 410 143 313 206 l 381 0 l -17 0 z "},"μ":{"ha":824,"x_min":-42,"x_max":803,"o":"m -42 -199 l 140 658 l 328 658 l 242 250 q 253 153 228 183 q 342 124 278 124 q 436 143 390 124 q 517 192 482 163 l 615 658 l 803 658 l 664 0 l 490 0 l 496 63 q 386 8 447 29 q 247 -14 325 -14 q 214 -10 231 -14 q 188 -3 197 -7 l 146 -199 l -42 -199 z "},"π":{"ha":939,"x_min":50,"x_max":875,"o":"m 679 -14 q 528 46 576 -14 q 503 208 481 106 l 568 514 l 346 514 l 238 0 l 50 0 l 158 514 l 68 514 l 99 658 l 875 658 l 844 514 l 756 514 l 693 221 q 697 147 682 167 q 776 126 713 126 q 860 140 814 126 l 832 11 q 679 -14 765 -14 z "},"ก":{"ha":864,"x_min":8,"x_max":832,"o":"m 8 0 l 58 239 q 104 352 72 303 q 204 421 136 401 l 71 458 l 108 638 q 279 725 176 686 q 504 764 382 764 q 753 693 674 764 q 796 453 832 622 l 700 0 l 513 0 l 608 457 q 597 581 628 544 q 464 618 567 618 q 345 600 401 618 q 251 554 289 582 l 247 535 l 393 493 l 369 379 q 285 334 311 365 q 246 238 260 303 l 196 0 l 8 0 z "},"ข":{"ha":826,"x_min":26,"x_max":821,"o":"m 318 -14 q 145 24 213 -14 q 52 128 78 63 q 43 276 26 194 l 53 324 q 88 408 63 371 q 144 475 114 446 q 197 529 174 504 q 225 576 221 554 q 221 604 229 597 q 188 611 213 611 l 97 611 l 142 750 l 336 750 q 429 643 451 750 q 393 558 419 596 q 335 485 367 519 q 276 412 303 450 q 240 325 250 374 l 228 265 q 240 164 214 196 q 350 132 265 132 q 532 271 503 132 l 633 750 l 821 750 l 721 279 q 593 62 690 138 q 318 -14 496 -14 z "},"ฃ":{"ha":826,"x_min":24,"x_max":821,"o":"m 318 -14 q 143 25 211 -14 q 49 128 75 64 q 40 267 24 192 l 44 285 q 89 378 56 333 q 162 463 122 424 q 232 535 201 503 q 267 589 263 567 q 250 615 271 615 q 231 611 240 615 q 211 600 221 607 l 200 543 l 82 543 l 125 750 l 249 750 l 240 711 q 294 739 265 728 q 361 750 322 750 q 449 636 472 750 q 407 540 438 582 q 340 459 376 497 q 274 382 304 421 q 235 296 244 343 l 228 265 q 240 164 214 196 q 350 132 265 132 q 532 271 503 132 l 633 750 l 821 750 l 721 279 q 593 62 690 138 q 318 -14 496 -14 z "},"ค":{"ha":874,"x_min":1,"x_max":835,"o":"m 1 0 l 100 465 q 170 633 122 567 q 303 731 218 699 q 517 764 388 764 q 760 681 685 764 q 807 465 835 597 l 708 0 l 521 0 l 622 479 q 608 586 638 554 q 486 618 579 618 q 349 585 393 618 q 290 479 306 553 l 261 344 q 327 376 292 364 q 401 389 363 389 l 492 389 l 465 240 l 365 240 q 294 230 326 240 q 231 200 261 219 l 189 0 l 1 0 z "},"ฅ":{"ha":874,"x_min":1,"x_max":846,"o":"m 1 0 l 115 536 q 195 701 136 639 q 354 764 254 764 q 497 693 450 764 q 583 748 532 732 q 685 764 633 764 q 812 703 778 764 q 822 536 846 643 l 708 0 l 522 0 l 633 526 q 634 584 642 564 q 592 604 626 604 q 544 591 565 604 q 510 554 524 578 l 433 554 q 420 590 431 576 q 386 604 410 604 q 326 583 346 604 q 299 526 306 563 l 260 344 q 326 376 290 364 q 400 389 361 389 l 492 389 l 465 240 l 364 240 q 292 230 325 240 q 229 200 260 219 l 188 0 l 1 0 z "},"ฆ":{"ha":860,"x_min":1,"x_max":853,"o":"m 431 -14 q 295 10 353 -14 q 197 74 238 33 l 174 0 l 1 0 l 57 267 q 102 368 68 319 q 176 458 136 417 q 248 533 217 500 q 283 589 279 567 q 267 615 288 615 q 247 611 257 615 q 228 600 238 607 l 217 543 l 99 543 l 142 750 l 265 750 l 257 711 q 310 739 282 728 q 378 750 339 750 q 454 722 431 750 q 465 636 478 693 q 422 535 453 581 q 353 449 390 490 q 287 366 317 407 q 247 278 257 325 l 233 210 q 303 154 257 176 q 400 132 349 132 q 513 165 478 132 q 564 274 549 197 l 665 750 l 853 750 l 750 263 q 642 59 722 132 q 431 -14 563 -14 z "},"ง":{"ha":761,"x_min":28,"x_max":763,"o":"m 279 -14 q 201 -8 242 -14 q 131 7 160 -3 l 28 521 l 210 521 l 290 119 q 456 190 394 119 q 547 399 517 260 q 561 529 565 482 q 525 597 557 576 q 425 617 493 617 l 368 617 l 396 750 l 479 750 q 699 663 636 750 q 725 399 763 576 q 565 83 678 179 q 279 -14 451 -14 z "},"จ":{"ha":778,"x_min":21,"x_max":769,"o":"m 297 -14 q 229 -8 267 -14 q 169 7 192 -1 l 124 289 l 21 289 l 57 422 l 269 422 l 317 129 q 462 188 400 129 q 551 382 524 247 q 563 524 571 472 q 504 597 554 575 q 349 618 454 618 q 228 609 293 618 q 103 582 164 600 l 132 721 q 269 751 192 739 q 428 764 346 764 q 696 663 622 764 q 729 382 769 561 q 572 88 686 189 q 297 -14 458 -14 z "},"ฉ":{"ha":828,"x_min":7,"x_max":824,"o":"m 221 -14 q 61 51 115 -14 q 33 246 7 117 l 69 417 l 257 417 l 226 274 q 231 163 210 194 q 329 132 251 132 q 433 153 386 132 q 519 211 481 175 l 568 443 q 572 548 583 510 q 514 602 560 586 q 378 618 468 618 q 290 613 340 618 q 189 598 240 607 q 96 576 138 589 l 125 715 q 283 751 194 738 q 457 764 371 764 q 756 442 824 764 l 663 0 l 490 0 l 497 75 q 375 11 443 36 q 221 -14 307 -14 z "},"ช":{"ha":831,"x_min":17,"x_max":826,"o":"m 321 -14 q 90 64 163 -14 q 46 276 17 142 l 56 324 q 92 412 67 374 q 147 478 118 450 q 200 531 176 507 q 228 576 224 554 q 224 604 232 597 q 190 611 215 611 l 100 611 l 144 750 l 339 750 q 432 643 454 750 q 396 558 422 596 q 338 485 369 519 q 279 412 306 450 q 243 325 253 374 l 231 265 q 242 164 217 196 q 353 132 268 132 q 535 271 506 132 l 553 358 q 551 434 564 413 q 492 456 538 456 l 453 456 l 489 586 l 514 586 q 589 610 567 586 q 622 685 611 633 l 639 764 l 826 764 l 811 689 q 769 585 799 625 q 679 521 740 546 q 739 447 728 493 q 739 351 750 401 l 724 279 q 599 65 696 144 q 321 -14 503 -14 z "},"ซ":{"ha":831,"x_min":17,"x_max":826,"o":"m 321 -14 q 90 61 163 -14 q 42 258 17 136 l 49 293 q 92 388 58 343 q 165 469 125 432 q 235 537 204 507 q 269 589 265 567 q 253 615 274 615 q 233 611 243 615 q 214 600 224 607 l 203 543 l 85 543 l 128 750 l 251 750 l 243 711 q 298 739 268 728 q 364 750 328 750 q 451 636 475 750 q 410 542 440 585 q 343 462 379 500 q 277 383 307 424 q 238 296 247 343 l 231 265 q 242 164 215 196 q 353 132 268 132 q 478 167 435 132 q 535 271 521 201 l 553 358 q 551 434 564 413 q 492 456 538 456 l 453 456 l 489 586 l 514 586 q 589 610 567 586 q 622 685 611 633 l 639 764 l 826 764 l 811 689 q 769 585 799 625 q 679 521 740 546 q 737 446 724 490 q 739 351 750 401 l 724 279 q 599 65 696 144 q 321 -14 503 -14 z "},"ฌ":{"ha":1336,"x_min":25,"x_max":1329,"o":"m 914 -14 q 782 10 836 -14 q 688 74 728 33 l 664 0 l 499 0 l 594 457 q 585 581 614 544 q 464 618 556 618 q 345 600 401 618 q 251 554 289 582 l 247 535 l 393 493 l 369 379 q 285 334 311 365 q 246 238 260 303 l 238 197 q 237 156 232 167 q 269 146 242 146 l 351 146 l 321 0 l 151 0 q 56 42 88 0 q 39 147 25 83 l 58 239 q 104 352 72 303 q 204 421 136 401 l 71 458 l 108 638 q 279 725 176 686 q 504 764 382 764 q 674 733 604 764 q 771 635 743 703 q 775 453 799 567 l 724 210 q 790 154 747 176 q 883 132 832 132 q 990 162 958 132 q 1040 274 1022 192 l 1142 750 l 1329 750 l 1226 263 q 914 -14 1168 -14 z "},"ญ":{"ha":1357,"x_min":25,"x_max":1350,"o":"m 831 -99 q 688 -84 758 -99 q 557 -39 618 -69 l 588 106 q 710 60 643 74 q 856 46 778 46 q 998 64 942 46 q 1061 114 1054 82 q 1059 139 1064 128 q 1044 156 1054 150 q 967 124 1011 136 q 865 111 922 111 q 700 143 769 111 q 600 245 631 175 q 589 426 569 315 l 594 457 q 602 551 607 515 q 565 602 597 586 q 464 618 533 618 q 345 600 401 618 q 251 554 289 582 l 247 535 l 393 493 l 369 379 q 285 334 311 365 q 246 238 260 303 l 238 197 q 237 156 232 167 q 269 146 242 146 l 351 146 l 321 0 l 151 0 q 56 42 88 0 q 39 147 25 83 l 58 239 q 104 352 72 303 q 204 421 136 401 l 71 458 l 108 638 q 279 725 176 686 q 504 764 382 764 q 669 731 599 764 q 769 628 739 697 q 775 453 800 560 l 768 424 q 772 296 747 335 q 896 257 796 257 q 1093 424 1057 257 l 1163 750 l 1350 750 l 1282 426 q 1244 315 1268 364 q 1175 231 1219 267 q 1211 174 1199 208 q 1215 99 1224 139 q 1101 -49 1193 0 q 831 -99 1008 -99 z "},"ฎ":{"ha":914,"x_min":-12,"x_max":868,"o":"m 92 -274 l 122 -131 q 236 -94 175 -107 q 368 -82 297 -82 q 465 -92 421 -82 q 536 -117 510 -101 l 657 457 q 650 581 676 544 q 529 618 624 618 q 410 600 467 618 q 317 554 354 582 l 313 535 l 458 493 l 435 379 q 356 333 378 363 q 321 238 335 303 l 310 186 q 238 44 289 88 q 88 0 186 0 l -12 0 l 18 146 l 64 146 q 103 157 92 146 q 121 196 115 168 l 131 239 q 173 350 144 303 q 269 421 201 397 l 136 458 l 174 638 q 344 725 242 686 q 569 764 447 764 q 741 731 671 764 q 840 628 811 697 q 844 453 868 560 l 690 -269 l 503 -269 q 315 -228 438 -228 q 199 -241 261 -228 q 92 -274 136 -254 z "},"ฏ":{"ha":914,"x_min":-12,"x_max":867,"o":"m 468 -271 q 376 -253 417 -271 q 319 -204 336 -235 q 263 -251 297 -233 q 179 -269 229 -269 l 35 -269 l 74 -128 l 175 -128 q 240 -114 215 -128 q 283 -67 264 -100 l 403 -67 q 418 -115 406 -97 q 465 -133 431 -133 q 547 -62 532 -133 l 657 457 q 651 581 676 544 q 529 618 626 618 q 410 600 467 618 q 317 554 354 582 l 313 535 l 458 493 l 435 379 q 356 333 378 363 q 321 238 335 303 l 310 186 q 232 42 288 83 q 88 0 176 0 l -12 0 l 18 146 l 64 146 q 103 157 92 146 q 121 196 115 168 l 131 239 q 173 350 144 303 q 269 421 201 397 l 136 458 l 174 638 q 344 725 242 686 q 569 764 447 764 q 739 730 669 764 q 838 627 808 696 q 844 453 867 558 l 735 -65 q 655 -215 714 -160 q 468 -271 596 -271 z "},"ฐ":{"ha":832,"x_min":-67,"x_max":882,"o":"m 297 -14 q 229 -8 267 -14 q 169 7 192 -1 l 124 289 l 21 289 l 57 422 l 269 422 l 317 129 q 462 188 400 129 q 551 382 524 247 q 563 524 571 472 q 504 597 554 575 q 349 618 454 618 q 228 609 293 618 q 103 582 164 600 l 132 721 q 269 751 192 739 q 428 764 346 764 q 495 760 464 764 q 553 750 526 757 l 882 750 l 842 607 l 717 607 q 729 382 760 519 q 572 88 686 189 q 297 -14 458 -14 m 342 -290 q 251 -272 286 -290 q 199 -224 215 -254 q 142 -271 176 -253 q 58 -289 108 -289 l -67 -289 l -28 -147 l 54 -147 q 119 -133 94 -147 q 163 -86 144 -119 l 282 -86 q 300 -135 285 -117 q 354 -153 315 -153 q 446 -82 431 -153 l 453 -50 l 608 -50 l 601 -85 q 519 -235 581 -179 q 342 -290 458 -290 z "},"ฑ":{"ha":851,"x_min":25,"x_max":819,"o":"m 25 0 l 82 274 q 119 365 92 321 q 180 451 147 410 q 238 527 213 492 q 269 589 264 563 q 253 615 274 615 q 233 611 243 615 q 214 600 224 607 l 203 543 l 85 543 l 128 750 l 251 750 l 243 711 q 294 739 268 728 q 358 750 319 750 q 433 710 413 750 q 518 749 469 733 q 617 764 567 764 q 776 698 733 764 q 793 507 819 632 l 686 0 l 499 0 l 604 501 q 604 592 618 565 q 538 618 590 618 q 483 608 515 618 q 432 583 451 599 q 400 504 422 540 q 351 433 378 468 q 303 359 325 399 q 269 268 281 319 l 213 0 l 25 0 z "},"ฒ":{"ha":1381,"x_min":24,"x_max":1374,"o":"m 283 -14 q 139 26 201 -14 q 50 149 76 67 q 50 360 24 232 q 171 661 90 558 q 381 764 251 764 q 469 744 440 764 q 513 693 497 725 q 594 744 544 725 q 700 764 644 764 q 829 704 799 764 q 839 547 860 644 l 768 210 q 834 154 792 176 q 928 132 876 132 q 1035 165 1001 132 q 1085 274 1069 197 l 1186 750 l 1374 750 l 1271 263 q 1165 59 1243 132 q 958 -14 1088 -14 q 826 10 881 -14 q 732 74 772 33 l 708 0 l 543 0 l 653 518 q 659 592 664 567 q 617 618 654 618 q 568 602 592 618 q 529 554 544 586 l 439 554 q 420 602 432 586 q 379 618 408 618 q 285 547 319 618 q 228 360 251 475 q 228 183 201 233 q 349 132 256 132 q 401 135 375 132 q 446 143 428 138 l 417 6 q 358 -9 390 -4 q 283 -14 326 -14 z "},"ณ":{"ha":1343,"x_min":25,"x_max":1336,"o":"m 747 -14 q 628 19 679 -14 q 557 113 578 51 q 554 263 536 174 l 594 457 q 585 581 614 544 q 464 618 557 618 q 345 600 401 618 q 251 554 289 582 l 247 535 l 393 493 l 369 379 q 285 334 311 365 q 246 238 260 303 l 238 197 q 240 158 232 169 q 278 146 247 146 l 351 146 l 321 0 l 151 0 q 56 42 88 0 q 39 147 25 83 l 58 239 q 104 352 72 303 q 204 421 136 401 l 71 458 l 108 638 q 279 725 176 686 q 504 764 382 764 q 674 732 604 764 q 772 632 743 700 q 775 453 800 564 l 736 274 q 742 160 718 188 q 842 132 765 132 q 946 154 894 132 q 1035 210 997 176 l 1149 750 l 1336 750 l 1178 0 l 1006 0 l 1013 74 q 890 8 956 31 q 747 -14 825 -14 z "},"ด":{"ha":908,"x_min":22,"x_max":850,"o":"m 283 -14 q 134 25 197 -14 q 47 147 71 64 q 50 360 22 229 q 203 658 90 551 q 526 764 315 764 q 690 735 625 764 q 792 661 756 707 q 839 560 828 615 q 839 453 850 506 l 743 0 l 556 0 l 649 440 q 654 535 661 496 q 610 597 647 575 q 493 618 572 618 q 325 554 394 618 q 228 360 256 490 q 228 183 201 233 q 349 132 254 132 q 401 135 375 132 q 446 143 428 138 l 417 6 q 358 -9 390 -4 q 283 -14 326 -14 z "},"ต":{"ha":917,"x_min":22,"x_max":889,"o":"m 283 -14 q 135 25 199 -14 q 47 147 72 64 q 50 360 22 229 q 176 661 92 558 q 394 764 261 764 q 482 744 454 764 q 525 693 510 725 q 609 744 560 725 q 721 764 658 764 q 851 707 814 764 q 867 547 889 650 l 751 0 l 564 0 l 674 518 q 676 594 685 569 q 631 618 668 618 q 582 602 606 618 q 543 554 558 586 l 453 554 q 434 602 446 586 q 393 618 422 618 q 292 547 331 618 q 228 360 253 475 q 227 181 200 229 q 349 132 254 132 q 401 135 375 132 q 446 143 428 138 l 417 6 q 358 -9 390 -4 q 283 -14 326 -14 z "},"ถ":{"ha":864,"x_min":25,"x_max":819,"o":"m 151 0 q 56 42 88 0 q 39 147 25 83 l 58 239 q 104 352 72 303 q 204 421 136 401 l 71 458 l 108 638 q 279 725 176 686 q 504 764 382 764 q 685 733 611 764 q 789 633 758 701 q 796 453 819 565 l 700 0 l 513 0 l 608 457 q 599 581 628 544 q 464 618 571 618 q 345 600 401 618 q 251 554 289 582 l 247 535 l 393 493 l 369 379 q 285 334 311 365 q 246 238 260 303 l 238 197 q 238 158 232 169 q 275 146 244 146 l 351 146 l 321 0 l 151 0 z "},"ท":{"ha":860,"x_min":1,"x_max":825,"o":"m 1 0 l 160 750 l 332 750 l 325 676 q 450 740 383 717 q 603 764 517 764 q 772 689 718 764 q 799 493 825 614 l 694 0 l 507 0 l 608 482 q 605 586 624 554 q 515 618 586 618 q 399 596 458 618 q 303 540 340 574 l 189 0 l 1 0 z "},"ธ":{"ha":747,"x_min":-4,"x_max":735,"o":"m 299 -14 q 125 3 204 -14 q -4 44 46 21 l 56 324 l 228 324 l 192 153 q 319 132 238 132 q 443 153 406 132 q 493 232 481 175 q 478 294 501 272 q 406 329 454 315 q 290 360 357 343 q 178 399 228 376 q 105 458 129 421 q 92 556 81 496 q 201 710 111 656 q 469 764 292 764 q 624 753 551 764 q 735 729 697 743 l 703 579 q 595 608 661 599 q 464 618 529 618 q 379 614 422 618 q 306 598 336 610 q 269 561 275 586 q 292 517 264 532 q 371 491 321 501 q 478 463 421 481 q 633 381 581 432 q 667 232 686 329 q 551 49 643 113 q 299 -14 460 -14 z "},"น":{"ha":860,"x_min":39,"x_max":853,"o":"m 257 -14 q 134 19 186 -14 q 60 114 82 51 q 57 263 39 176 l 160 750 l 347 750 l 246 274 q 255 163 229 193 q 351 132 281 132 q 459 154 404 132 q 551 210 514 176 l 665 750 l 853 750 l 694 0 l 522 0 l 529 74 q 402 10 469 33 q 257 -14 335 -14 z "},"บ":{"ha":881,"x_min":35,"x_max":874,"o":"m 354 -14 q 115 71 194 -14 q 65 301 35 156 l 160 750 l 347 750 l 251 299 q 263 169 232 207 q 386 132 293 132 q 523 173 474 132 q 590 299 572 214 l 686 750 l 874 750 l 779 301 q 354 -14 711 -14 z "},"ป":{"ha":881,"x_min":35,"x_max":921,"o":"m 354 -14 q 115 71 194 -14 q 65 301 35 156 l 160 750 l 347 750 l 251 299 q 263 169 232 207 q 386 132 293 132 q 523 173 474 132 q 590 299 572 214 l 733 972 l 921 972 l 779 301 q 354 -14 713 -14 z "},"ผ":{"ha":903,"x_min":1,"x_max":897,"o":"m 1 0 l 129 607 q 184 710 143 669 q 290 750 225 750 l 458 750 l 438 611 l 367 611 q 294 549 310 611 l 231 247 l 446 521 l 515 521 l 614 247 l 721 750 l 897 750 l 739 0 l 567 0 l 450 339 l 190 0 l 1 0 z "},"ฝ":{"ha":903,"x_min":1,"x_max":944,"o":"m 1 0 l 129 607 q 184 710 143 669 q 290 750 225 750 l 458 750 l 438 611 l 367 611 q 294 549 310 611 l 231 247 l 446 521 l 515 521 l 614 247 l 768 972 l 944 972 l 739 0 l 567 0 l 450 339 l 190 0 l 1 0 z "},"พ":{"ha":1007,"x_min":118,"x_max":1050,"o":"m 135 0 l 118 750 l 299 750 l 296 268 l 486 631 l 511 750 l 642 750 l 674 268 l 871 750 l 1050 750 l 717 0 l 563 0 l 529 429 l 306 0 l 135 0 z "},"ฟ":{"ha":1007,"x_min":118,"x_max":1133,"o":"m 135 0 l 118 750 l 299 750 l 296 268 l 486 631 l 511 750 l 642 750 l 674 268 l 954 972 l 1133 972 l 717 0 l 563 0 l 529 429 l 306 0 l 135 0 z "},"ภ":{"ha":875,"x_min":-12,"x_max":876,"o":"m -12 0 l 18 146 l 64 146 q 103 157 92 146 q 121 196 115 168 l 131 239 q 173 350 144 303 q 269 421 201 397 l 136 458 l 174 638 q 344 725 242 686 q 569 764 447 764 q 799 685 722 764 q 844 453 876 607 l 749 0 l 561 0 l 657 457 q 650 581 676 544 q 529 618 624 618 q 410 600 467 618 q 317 554 354 582 l 313 535 l 458 493 l 435 379 q 356 333 378 363 q 321 238 335 303 l 310 186 q 238 44 289 88 q 88 0 186 0 l -12 0 z "},"ม":{"ha":860,"x_min":1,"x_max":853,"o":"m 431 -14 q 295 10 353 -14 q 197 74 238 33 l 174 0 l 1 0 l 160 750 l 347 750 l 233 210 q 300 154 257 176 q 400 132 343 132 q 510 165 471 132 q 564 274 549 197 l 665 750 l 853 750 l 750 263 q 640 59 722 132 q 431 -14 558 -14 z "},"ย":{"ha":844,"x_min":-1,"x_max":839,"o":"m 321 -14 q 190 -1 251 -14 q 83 39 128 11 q 18 113 38 67 q 13 228 -1 160 q 56 320 24 276 q 142 390 88 364 q 88 447 106 408 q 82 542 71 486 q 183 708 106 651 q 378 764 260 764 q 451 759 421 764 q 503 744 481 754 l 474 607 q 381 618 436 618 q 299 601 329 618 q 260 542 269 583 q 276 478 250 496 q 360 461 301 461 l 438 461 l 415 324 l 329 324 q 190 228 211 324 q 214 156 181 181 q 344 132 247 132 q 488 169 439 132 q 551 278 538 207 l 651 750 l 839 750 l 743 294 q 608 59 708 132 q 321 -14 508 -14 z "},"ร":{"ha":699,"x_min":-6,"x_max":678,"o":"m 250 -14 q 103 -3 172 -14 q -6 26 35 8 l 26 178 q 135 144 74 156 q 247 132 196 132 q 381 146 338 132 q 435 203 425 160 q 424 254 442 236 q 364 287 406 272 q 258 325 322 301 q 153 376 196 349 q 92 442 110 403 q 88 540 75 482 q 196 702 110 640 q 447 764 282 764 q 576 754 513 764 q 678 731 639 744 l 646 581 q 547 609 604 600 q 443 618 490 618 q 327 603 378 618 q 267 544 276 589 q 281 500 261 517 q 344 469 301 483 q 444 433 386 456 q 592 346 553 394 q 613 203 632 297 q 502 40 589 93 q 250 -14 415 -14 z "},"ฤ":{"ha":825,"x_min":25,"x_max":819,"o":"m 464 -222 l 608 457 q 600 581 628 544 q 464 618 572 618 q 345 600 401 618 q 251 554 289 582 l 247 535 l 393 493 l 369 379 q 285 334 311 365 q 246 238 260 303 l 238 197 q 238 158 232 169 q 275 146 244 146 l 351 146 l 321 0 l 151 0 q 56 42 88 0 q 39 147 25 83 l 58 239 q 104 352 72 303 q 204 421 136 401 l 71 458 l 108 638 q 279 725 176 686 q 504 764 382 764 q 688 732 614 764 q 790 632 761 700 q 796 453 819 564 l 651 -222 l 464 -222 z "},"ล":{"ha":835,"x_min":4,"x_max":799,"o":"m 231 -14 q 111 10 165 -14 q 31 87 57 35 q 21 222 4 139 q 124 395 44 335 q 365 456 203 456 l 578 456 l 586 492 q 573 592 603 565 q 436 618 543 618 q 306 609 368 618 q 179 581 243 600 l 210 721 q 347 751 269 739 q 497 764 425 764 q 730 688 661 764 q 769 472 799 613 l 669 0 l 482 0 l 549 318 l 347 318 q 249 297 288 318 q 199 222 210 276 q 210 151 188 171 q 308 132 232 132 q 363 135 335 132 q 410 143 392 138 l 381 6 q 315 -8 353 -3 q 231 -14 278 -14 z "},"ฦ":{"ha":914,"x_min":-12,"x_max":868,"o":"m 513 -222 l 657 457 q 650 581 676 544 q 529 618 624 618 q 410 600 467 618 q 317 554 354 582 l 313 535 l 458 493 l 435 379 q 356 333 378 363 q 321 238 335 303 l 310 186 q 233 44 289 88 q 88 0 176 0 l -12 0 l 18 146 l 64 146 q 103 157 92 146 q 121 196 115 168 l 131 239 q 173 350 144 303 q 269 421 201 397 l 136 458 l 174 638 q 344 725 242 686 q 569 764 447 764 q 740 730 671 764 q 839 627 810 696 q 844 453 868 558 l 700 -222 l 513 -222 z "},"ว":{"ha":682,"x_min":-43,"x_max":685,"o":"m 186 -14 q -43 31 53 -14 l -12 174 q 74 144 26 156 q 174 132 122 132 q 372 186 304 132 q 468 375 439 240 q 478 518 488 465 q 422 594 469 571 q 276 618 375 618 q 173 607 225 618 q 74 576 121 596 l 104 719 q 351 764 217 764 q 607 663 529 764 q 646 375 685 561 q 566 162 619 249 q 420 31 513 75 q 186 -14 328 -14 z "},"ศ":{"ha":899,"x_min":1,"x_max":938,"o":"m 1 0 l 100 465 q 170 633 122 567 q 303 731 218 699 q 517 764 388 764 q 580 760 550 764 q 636 750 610 757 l 938 750 l 897 607 l 793 607 q 811 541 807 576 q 807 465 815 506 l 708 0 l 521 0 l 622 479 q 608 586 638 554 q 486 618 579 618 q 349 585 393 618 q 290 479 306 553 l 261 344 q 327 376 292 364 q 401 389 363 389 l 492 389 l 465 240 l 365 240 q 294 230 326 240 q 231 200 261 219 l 189 0 l 1 0 z "},"ษ":{"ha":908,"x_min":35,"x_max":904,"o":"m 354 -14 q 115 71 194 -14 q 65 301 35 156 l 160 750 l 347 750 l 251 299 q 263 169 232 207 q 386 132 293 132 q 523 173 474 132 q 590 299 572 214 l 608 383 l 449 383 l 478 521 l 638 521 l 686 750 l 874 750 l 825 521 l 904 521 l 863 383 l 796 383 l 779 301 q 354 -14 711 -14 z "},"ส":{"ha":860,"x_min":4,"x_max":889,"o":"m 231 -14 q 111 10 165 -14 q 31 87 57 35 q 21 222 4 139 q 124 395 44 335 q 365 456 203 456 l 578 456 l 586 492 q 573 592 603 565 q 436 618 543 618 q 306 609 368 618 q 179 581 243 600 l 210 721 q 347 751 269 739 q 497 764 425 764 q 562 760 532 764 q 618 750 592 757 l 889 750 l 849 607 l 761 607 q 769 472 788 553 l 669 0 l 482 0 l 549 318 l 347 318 q 249 297 288 318 q 199 222 210 276 q 210 151 188 171 q 308 132 232 132 q 363 135 335 132 q 410 143 392 138 l 381 6 q 315 -8 353 -3 q 231 -14 278 -14 z "},"ห":{"ha":851,"x_min":1,"x_max":847,"o":"m 1 0 l 160 750 l 347 750 l 299 522 l 485 522 q 594 553 563 522 q 639 649 625 585 l 660 750 l 847 750 l 826 646 q 782 526 813 576 q 676 446 751 475 q 740 375 725 419 q 740 269 754 331 l 683 0 l 496 0 l 550 258 q 544 357 565 329 q 451 385 522 385 l 269 385 l 189 0 l 1 0 z "},"ฬ":{"ha":1007,"x_min":118,"x_max":1133,"o":"m 135 0 l 118 750 l 299 750 l 296 268 l 474 575 l 500 694 l 631 694 l 674 268 l 814 596 q 830 685 842 660 q 769 711 818 711 l 714 711 l 767 847 l 831 847 q 908 865 879 847 q 957 929 936 883 l 975 972 l 1133 972 l 1101 894 q 1047 808 1078 839 q 967 767 1015 778 q 998 700 994 740 q 974 597 1001 660 l 715 0 l 563 0 l 521 388 l 306 0 l 135 0 z "},"อ":{"ha":807,"x_min":-8,"x_max":796,"o":"m 289 -14 q 121 3 200 -14 q -8 44 42 21 l 76 439 l 394 439 l 374 301 l 225 301 l 192 150 q 253 137 217 142 q 322 132 289 132 q 485 186 419 132 q 578 372 550 240 q 590 520 599 467 q 532 596 582 574 q 378 618 482 618 q 249 609 317 618 q 115 581 181 600 l 146 721 q 295 753 213 742 q 454 764 378 764 q 720 663 644 764 q 756 372 796 563 q 678 162 729 249 q 535 31 628 75 q 289 -14 442 -14 z "},"ฮ":{"ha":863,"x_min":-8,"x_max":892,"o":"m 289 -14 q 121 3 200 -14 q -8 44 42 21 l 76 439 l 394 439 l 374 301 l 225 301 l 192 150 q 253 137 217 142 q 322 132 289 132 q 485 186 419 132 q 578 372 550 240 q 590 520 599 467 q 532 596 582 574 q 378 618 482 618 q 249 609 317 618 q 115 581 181 600 l 146 721 q 295 753 213 742 q 454 764 378 764 q 520 760 489 764 q 578 750 551 757 l 892 750 l 851 607 l 733 607 q 765 503 760 564 q 756 372 771 443 q 678 162 729 249 q 535 31 628 75 q 289 -14 442 -14 z "},"ะ":{"ha":449,"x_min":-11,"x_max":449,"o":"m 68 447 l 111 653 l 269 653 l 256 585 l 449 585 l 414 447 l 68 447 m -11 75 l 32 281 l 190 281 l 176 213 l 369 213 l 335 75 l -11 75 z "},"า":{"ha":619,"x_min":56,"x_max":585,"o":"m 267 0 l 364 461 q 362 582 382 546 q 251 618 342 618 q 153 608 206 618 q 56 582 100 597 l 85 719 q 193 751 129 739 q 318 764 257 764 q 524 692 463 764 q 557 488 585 621 l 454 0 l 267 0 z "},"ำ":{"ha":619,"x_min":-226,"x_max":585,"o":"m -78 815 q -187 860 -147 815 q -211 975 -226 906 q -140 1090 -196 1044 q -11 1136 -85 1136 q 98 1090 58 1136 q 122 975 138 1044 q 51 860 107 906 q -78 815 -4 815 m -58 914 q -11 933 -33 914 q 17 975 11 951 q 11 1019 22 1000 q -32 1038 0 1038 q -78 1019 -57 1038 q -106 975 -100 1000 q -100 933 -111 951 q -58 914 -89 914 m 267 0 l 364 461 q 362 582 382 546 q 251 618 342 618 q 153 608 206 618 q 56 582 100 597 l 85 719 q 193 751 129 739 q 318 764 257 764 q 524 692 463 764 q 557 488 585 621 l 454 0 l 267 0 z "},"เ":{"ha":428,"x_min":21,"x_max":351,"o":"m 169 0 q 50 38 79 0 q 38 156 21 75 l 164 750 l 351 750 l 236 204 q 235 159 229 172 q 276 146 242 146 l 328 146 l 297 0 l 169 0 z "},"แ":{"ha":781,"x_min":21,"x_max":707,"o":"m 525 0 q 406 38 435 0 q 393 156 376 75 l 519 750 l 707 750 l 592 204 q 591 159 585 172 q 632 146 597 146 l 683 146 l 653 0 l 525 0 m 169 0 q 50 38 79 0 q 38 156 21 75 l 164 750 l 351 750 l 236 204 q 235 159 229 172 q 276 146 242 146 l 328 146 l 297 0 l 169 0 z "},"โ":{"ha":435,"x_min":64,"x_max":590,"o":"m 213 0 q 93 38 122 0 q 81 156 64 75 l 201 724 q 196 854 219 808 q 107 924 172 900 l 136 1061 l 590 1061 l 560 915 l 342 915 q 392 843 379 889 q 390 729 406 797 l 279 204 q 278 159 272 172 q 319 146 285 146 l 371 146 l 340 0 l 213 0 z "},"ใ":{"ha":417,"x_min":-4,"x_max":556,"o":"m 146 0 q 26 38 56 0 q 14 156 -4 75 l 100 553 q 148 665 115 619 q 217 744 181 711 q 283 803 254 776 q 317 856 311 829 q 307 905 324 890 q 247 919 290 919 q 170 908 210 919 q 92 878 131 897 l 121 1013 q 231 1051 169 1038 q 347 1065 292 1065 q 522 906 556 1065 q 477 808 510 849 q 405 729 444 767 q 332 649 365 692 q 286 546 299 607 l 213 204 q 212 159 206 172 q 253 146 218 146 l 304 146 l 274 0 l 146 0 z "},"ไ":{"ha":428,"x_min":36,"x_max":564,"o":"m 185 0 q 65 38 94 0 q 53 156 36 75 l 171 711 q 223 835 186 785 q 307 915 260 886 l 92 915 l 122 1061 l 564 1061 l 535 925 q 418 847 460 900 q 357 703 376 793 l 251 204 q 251 159 244 172 q 292 146 257 146 l 343 146 l 313 0 l 185 0 z "},"ๅ":{"ha":618,"x_min":56,"x_max":585,"o":"m 218 -222 l 364 461 q 362 582 382 546 q 251 618 342 618 q 153 608 206 618 q 56 582 100 597 l 85 719 q 193 751 129 739 q 318 764 257 764 q 524 692 463 764 q 557 488 585 621 l 406 -222 l 218 -222 z "},"ℊ":{"ha":821,"x_min":17,"x_max":801,"o":"m 229 -244 q 173 -242 207 -244 q 106 -237 139 -240 q 54 -229 74 -233 l 85 -86 q 156 -99 113 -94 q 229 -104 199 -104 q 397 -78 331 -104 q 478 15 464 -51 l 485 50 q 286 0 400 0 q 136 31 200 0 q 44 131 72 63 q 39 313 17 200 q 175 581 75 490 q 428 672 275 672 q 540 653 497 672 q 617 597 582 633 l 640 658 l 801 658 l 672 46 q 603 -103 654 -37 q 461 -207 553 -169 q 229 -244 369 -244 m 356 138 q 442 151 403 138 q 514 188 481 164 l 575 475 q 519 520 550 506 q 443 535 488 535 q 303 477 353 535 q 231 314 254 419 q 236 176 208 214 q 356 138 264 138 z "},"₀":{"ha":500,"x_min":-47,"x_max":400,"o":"m 133 -178 q -8 -125 31 -178 q -29 19 -47 -72 q 52 173 -8 118 q 219 228 113 228 q 363 173 326 228 q 379 19 400 118 q 299 -125 361 -72 q 133 -178 238 -178 m 156 -78 q 224 -54 201 -78 q 256 19 246 -31 q 258 103 268 78 q 199 128 247 128 q 129 103 151 128 q 94 19 107 78 q 97 -54 85 -31 q 156 -78 110 -78 z "},"₁":{"ha":300,"x_min":-40,"x_max":215,"o":"m 3 -167 l 60 104 l -40 85 l -18 183 l 215 228 l 132 -167 l 3 -167 z "},"₂":{"ha":421,"x_min":-62,"x_max":321,"o":"m -62 -167 l -50 -106 q 8 -53 -21 -74 q 71 -7 36 -32 q 148 47 125 31 q 175 83 171 63 q 166 117 181 107 q 113 128 151 128 q 60 122 88 128 q 6 106 32 115 l 26 204 q 93 220 50 213 q 176 228 136 228 q 288 194 254 228 q 311 111 321 160 q 282 46 303 72 q 217 -14 261 19 q 181 -41 194 -32 q 144 -67 167 -50 l 275 -67 l 254 -167 l -62 -167 z "},"₃":{"ha":425,"x_min":-61,"x_max":322,"o":"m 72 -178 q -1 -172 39 -178 q -61 -158 -42 -167 l -42 -71 q 8 -85 -18 -81 q 58 -90 33 -90 q 124 -82 103 -90 q 149 -53 144 -74 q 86 -12 158 -12 l 28 -12 l 50 65 l 97 65 q 175 107 167 65 q 159 132 178 125 q 107 139 140 139 q 53 133 81 139 q 6 119 26 128 l 24 208 q 83 222 46 215 q 160 228 121 228 q 288 196 254 228 q 311 115 322 164 q 288 63 306 86 q 242 26 271 39 q 281 -5 271 17 q 283 -58 290 -26 q 72 -178 256 -178 z "},"₄":{"ha":411,"x_min":-75,"x_max":314,"o":"m 103 -167 l 118 -97 l -75 -97 l -57 -12 l 182 228 l 314 228 l 264 -8 l 306 -8 l 288 -97 l 246 -97 l 231 -167 l 103 -167 m 68 -7 l 165 -7 l 193 121 l 68 -7 z "},"₅":{"ha":421,"x_min":-61,"x_max":308,"o":"m 64 -178 q -6 -174 31 -178 q -61 -160 -42 -169 l -42 -68 q 6 -82 -22 -78 q 56 -86 33 -86 q 128 -76 104 -86 q 157 -43 151 -65 q 147 -8 163 -17 q 89 1 131 1 l -25 1 l -10 72 l 29 214 l 308 214 l 283 126 l 122 126 l 108 79 l 164 79 q 281 -44 306 79 q 213 -140 268 -101 q 64 -178 158 -178 z "}}}
